<?xml version="1.0" standalone="no"?>
<!DOCTYPE svg PUBLIC "-//W3C//DTD SVG 1.1//EN" "http://www.w3.org/Graphics/SVG/1.1/DTD/svg11.dtd" >
<svg xmlns="http://www.w3.org/2000/svg">
<metadata></metadata>
<defs>
<font id="klima_regularregular" horiz-adv-x="573" >
<font-face units-per-em="1000" ascent="764" descent="-236" />
<missing-glyph horiz-adv-x="180" />
<glyph unicode="&#xd;" horiz-adv-x="230" />
<glyph unicode=" "  horiz-adv-x="180" />
<glyph unicode="&#x09;" horiz-adv-x="180" />
<glyph unicode="&#xa0;" horiz-adv-x="180" />
<glyph unicode="!" horiz-adv-x="278" d="M119 206l-23 233v271h85v-271l-22 -233h-40zM138 -6q-21 0 -36.5 16t-15.5 39t15.5 38.5t36.5 15.5q22 0 38 -15.5t16 -38.5t-16 -39t-38 -16z" />
<glyph unicode="&#x22;" horiz-adv-x="386" d="M239 494v216h72v-216h-72zM75 494v216h72v-216h-72z" />
<glyph unicode="#" horiz-adv-x="764" d="M416 0l28 201h-173l-28 -201h-78l28 201h-139v71h149l24 168h-173v71h183l28 199h78l-28 -199h173l28 199h77l-28 -199h145v-71h-155l-24 -168h179v-71h-189l-28 -201h-77zM281 272h173l24 168h-173z" />
<glyph unicode="$" horiz-adv-x="617" d="M551 200q0 -91 -52 -144t-140 -63v-126h-76v126q-137 14 -219 126l57 48q82 -101 195 -101q75 0 116.5 34.5t41.5 98.5q0 70 -44 97t-135 38q-80 10 -140 58.5t-60 129.5q0 82 50 134t138 62v113h76v-113q106 -9 174 -87l-56 -49q-49 64 -162 64q-66 0 -105 -31.5 t-39 -90.5q0 -55 42.5 -80t125.5 -36q92 -12 152 -61.5t60 -146.5z" />
<glyph unicode="%" horiz-adv-x="807" d="M220 384q-63 0 -106 44.5t-43 121.5q0 73 43 118.5t106 45.5q65 0 107.5 -44.5t42.5 -118.5q0 -79 -42 -123t-108 -44zM109 0l500 710h82l-500 -710h-82zM221 445q37 0 61.5 27t24.5 77q0 47 -24 75t-62 28t-62 -28t-24 -75q0 -48 24 -76t62 -28zM582 -8q-63 0 -106.5 45 t-43.5 121q0 74 43.5 119t106.5 45q65 0 107.5 -44.5t42.5 -119.5q0 -79 -42 -122.5t-108 -43.5zM583 53q38 0 62 27t24 77q0 47 -24 75t-62 28t-61.5 -27.5t-23.5 -75.5t24 -76t61 -28z" />
<glyph unicode="&#x26;" horiz-adv-x="680" d="M256 -5q-94 -1 -154 58t-60 148q0 64 37.5 117.5t107.5 88.5q-69 89 -69 151q0 67 47 114t123 47t120.5 -48t44.5 -119q0 -58 -42 -102t-107 -72l39 -43q39 -43 79 -86l39 -43l87 96h96l-134 -148l130 -155h-93l-87 99q-95 -102 -204 -103zM258 430q121 46 121 121 q0 44 -25 72t-69 27q-38 -1 -65.5 -26.5t-27.5 -67.5q0 -17 4 -32.5t13.5 -30.5t15.5 -23.5t18.5 -22.5t14.5 -17zM255 68q85 0 154 86l-43 48l-88 96l-44 49q-58 -22 -86.5 -59t-28.5 -83q0 -59 37 -98t99 -39z" />
<glyph unicode="'" horiz-adv-x="222" d="M75 494v216h72v-216h-72z" />
<glyph unicode="(" horiz-adv-x="303" d="M183 -104q-55 76 -94.5 188t-39.5 237q0 135 31.5 233.5t97.5 200.5l64 -42q-59 -88 -87 -178.5t-28 -213.5q0 -217 118 -381z" />
<glyph unicode=")" horiz-adv-x="303" d="M95 754q55 -76 94.5 -188t39.5 -237q0 -135 -31.5 -233.5t-97.5 -200.5l-64 42q59 88 87 178.5t28 213.5q0 217 -118 381z" />
<glyph unicode="*" horiz-adv-x="418" d="M140 422l-47 33l66 97l-101 29l15 57l103 -29v117h62v-117l107 31l15 -55l-104 -33l67 -98l-47 -33l-68 95z" />
<glyph unicode="+" horiz-adv-x="617" d="M269 112v179h-175v75h175v177h76v-177h178v-75h-178v-179h-76z" />
<glyph unicode="," horiz-adv-x="247" d="M100 87h87l-53 -184h-69z" />
<glyph unicode="-" horiz-adv-x="445" d="M69 250v74h307v-74h-307z" />
<glyph unicode="." horiz-adv-x="231" d="M115 -7q-22 0 -38.5 16t-16.5 40q0 23 16.5 39t38.5 16t39 -16t17 -39q0 -24 -17 -40t-39 -16z" />
<glyph unicode="/" horiz-adv-x="387" d="M37 0l231 710h82l-235 -710h-78z" />
<glyph unicode="0" horiz-adv-x="632" d="M315 -9q-120 0 -190.5 91t-70.5 268q0 185 71.5 277.5t189.5 92.5q119 0 191 -93t72 -276q0 -178 -71 -269t-192 -91zM316 65q88 0 136 70t48 215q0 152 -48.5 223.5t-135.5 71.5q-186 0 -186 -295q0 -285 186 -285z" />
<glyph unicode="1" horiz-adv-x="365" d="M186 0v621l-141 -37l-9 62l163 64h64v-710h-77z" />
<glyph unicode="2" horiz-adv-x="576" d="M64 0v70l233 260q11 12 39 42.5t36.5 41t23 32t19 39t4.5 38.5q0 53 -37.5 89t-100.5 35q-61 -1 -96.5 -29t-46.5 -76h-75q11 76 71 127.5t146 51.5q99 0 157.5 -55t59.5 -140q0 -22 -2 -39.5t-10 -36.5t-12 -29.5t-21 -31.5t-22 -27.5t-30 -34t-32 -35.5l-196 -218h343 v-74h-451z" />
<glyph unicode="3" horiz-adv-x="580" d="M277 -5q-75 1 -143 48t-85 137h79q12 -48 55.5 -79.5t94.5 -31.5q72 0 117 37t45 100q0 125 -215 130v64q90 1 144.5 34t54.5 94q0 55 -38.5 87.5t-104.5 32.5q-116 0 -148 -106h-72q12 81 77 129.5t144 48.5q85 0 149.5 -49.5t68.5 -130.5q3 -70 -33 -111t-82 -54 q51 -13 93.5 -54t42.5 -116q0 -97 -68 -154.5t-176 -55.5z" />
<glyph unicode="4" horiz-adv-x="588" d="M366 0v162h-322v74l302 473h99v-475h81v-74h-81v-160h-79zM125 236h242v378z" />
<glyph unicode="5" horiz-adv-x="582" d="M277 -11q-83 0 -150.5 51t-80.5 140h82q12 -57 51.5 -87t93.5 -30q78 0 122 43.5t44 118.5q0 76 -42 118.5t-113 42.5q-54 0 -90 -22t-48 -53l-76 11l15 388h390v-72h-323l-8 -227l5 4q5 4 10 7.5t14 9t20 9.5t25 8t32 6.5t38 2.5q98 0 162.5 -62.5t64.5 -170.5 q0 -106 -67 -171t-171 -65z" />
<glyph unicode="6" horiz-adv-x="605" d="M299 -3q-97 0 -171 67.5t-74 167.5q0 98 99 249l158 238h91l-194 -290q9 13 37.5 25t71.5 12q95 0 164.5 -64t69.5 -168q0 -99 -71.5 -168t-180.5 -69zM300 72q74 0 123 45t49 116q0 73 -48.5 117.5t-120.5 44.5q-75 0 -123 -45.5t-48 -117.5t49 -116.5t119 -43.5z" />
<glyph unicode="7" horiz-adv-x="561" d="M115 0l305 636h-390v73h476v-64l-305 -645h-86z" />
<glyph unicode="8" horiz-adv-x="594" d="M298 -8q-107 0 -175 55t-69 143q0 126 125 182q-100 64 -99 164q0 78 61 130.5t154 52.5q96 0 156 -53t60 -129q0 -62 -37.5 -108t-77.5 -57q144 -47 144 -179q-1 -88 -67.5 -144.5t-174.5 -56.5zM293 403q66 9 103 47.5t37 85.5q0 48 -38 80t-100 32q-60 0 -99 -31.5 t-39 -79.5t36.5 -85.5t99.5 -48.5zM298 64q72 0 117.5 36.5t45.5 95.5q0 28 -12.5 50.5t-28.5 36.5t-44 26t-48 17.5t-52 12.5q-74 -21 -108.5 -61t-33.5 -86q1 -56 45.5 -92t118.5 -36z" />
<glyph unicode="9" horiz-adv-x="599" d="M279 0h-91l190 264q-26 -24 -81 -24q-96 0 -169.5 68.5t-73.5 171.5q0 101 71.5 171t179.5 70q100 0 170 -67t70 -172q0 -46 -19 -98t-39.5 -85t-52.5 -79zM301 312q72 0 118.5 46t46.5 124q0 72 -47 119t-117 47q-74 0 -122 -46.5t-48 -120.5t48.5 -121.5t120.5 -47.5z " />
<glyph unicode=":" horiz-adv-x="249" d="M125 365q-22 0 -38.5 16.5t-16.5 39.5q0 24 16.5 40t38.5 16t39 -16t17 -40q0 -23 -17 -39.5t-39 -16.5zM125 11q-23 0 -39.5 16t-16.5 40t16.5 40t39.5 16q22 0 39 -16.5t17 -39.5t-17 -39.5t-39 -16.5z" />
<glyph unicode=";" horiz-adv-x="239" d="M129 366q-22 0 -38.5 16t-16.5 40q0 23 16.5 39t38.5 16t39 -16t17 -39q0 -24 -17 -40t-39 -16zM95 98h87l-53 -184h-69z" />
<glyph unicode="&#x3c;" horiz-adv-x="541" d="M459 31l-411 212v62l411 212v-82l-318 -162l318 -157v-85z" />
<glyph unicode="=" horiz-adv-x="735" d="M126 422v74h482v-74h-482zM126 190v75h482v-75h-482z" />
<glyph unicode="&#x3e;" horiz-adv-x="541" d="M63 509l411 -212v-62l-411 -212v82l318 162l-318 157v85z" />
<glyph unicode="?" horiz-adv-x="533" d="M212 201q0 85 25.5 129t76.5 83q52 39 69.5 60t17.5 55q0 53 -36 86.5t-98 33.5q-54 0 -95.5 -33t-49.5 -90l-72 7q9 80 68.5 134.5t150.5 54.5q95 0 150.5 -55t57.5 -136q0 -19 -2 -35t-10 -31t-13 -24.5t-20.5 -23.5t-21 -19t-26 -20.5t-25.5 -19.5 q-44 -35 -59.5 -64.5t-15.5 -91.5h-72zM251 -7q-22 0 -38 15.5t-16 38.5q0 24 16 39.5t38 15.5q21 0 36.5 -15.5t15.5 -39.5q0 -23 -15.5 -38.5t-36.5 -15.5z" />
<glyph unicode="@" horiz-adv-x="961" d="M506 -101q-176 0 -294.5 111t-118.5 284q0 170 113.5 287.5t277.5 117.5t274 -111t110 -279q0 -126 -47.5 -192.5t-119.5 -66.5q-36 0 -75 27t-52 79q-3 -20 -31 -37.5t-63 -18.5q-81 -1 -129 54t-46 141q1 84 47 136t124 51q43 -1 70.5 -26t30.5 -49l1 55l55 -3l-6 -226 q-3 -59 17 -90.5t56 -30.5q42 1 70 46t28 150q0 142 -90 234t-224 90q-136 -2 -228.5 -100t-92.5 -237q0 -138 92.5 -233.5t250.5 -95.5l55 6q1 -4 2.5 -10.5t4.5 -20.5t4 -23l2 -9q-11 -10 -68 -10zM477 162q83 5 86 126q2 61 -21 96t-66 36q-46 1 -74 -35.5t-30 -93.5 q-1 -59 29 -94t76 -35z" />
<glyph unicode="A" horiz-adv-x="674" d="M565 0l-68 179h-318l-68 -179h-82l268 710h80l268 -710h-80zM337 598l-131 -346h263z" />
<glyph unicode="B" horiz-adv-x="622" d="M82 0v710h225q93 0 152.5 -52.5t59.5 -136.5q0 -60 -24.5 -94t-55.5 -47q49 -10 91.5 -59t42.5 -122q0 -84 -60.5 -141.5t-175.5 -57.5h-255zM162 401h149q60 0 95 33.5t35 85.5q0 48 -35 83t-102 35h-142v-237zM162 72h172q160 0 160 132q0 60 -44.5 93.5t-116.5 33.5 h-171v-259z" />
<glyph unicode="C" horiz-adv-x="702" d="M366 -10q-56 0 -109.5 20.5t-101 62t-76.5 113.5t-29 164q0 79 19 143t49.5 105.5t72.5 69.5t85.5 40t89.5 12q107 0 187.5 -63.5t96.5 -169.5h-78q-13 72 -71.5 115t-134.5 43q-44 0 -83.5 -15t-75.5 -47t-57.5 -92t-21.5 -141q0 -75 21.5 -132.5t57.5 -89.5t76 -48 t83 -16q76 0 135.5 47.5t72.5 118.5h78q-16 -108 -97.5 -174t-188.5 -66z" />
<glyph unicode="D" horiz-adv-x="683" d="M83 0v710h225q140 0 233.5 -91.5t93.5 -262.5q0 -178 -91.5 -267t-235.5 -89h-225zM160 74h148q116 0 183 70.5t67 211.5q0 138 -70 209t-180 71h-148v-562z" />
<glyph unicode="E" horiz-adv-x="602" d="M86 0v710h443v-73h-366v-240h291v-74h-291v-250h375v-73h-452z" />
<glyph unicode="F" horiz-adv-x="605" d="M86 0v710h459v-74h-382v-241h314v-73h-314v-322h-77z" />
<glyph unicode="G" horiz-adv-x="702" d="M354 -11q-56 0 -107 19t-96.5 59t-73 115.5t-27.5 176.5q0 92 27 163.5t71.5 113.5t97 63t108.5 21q108 0 191 -61.5t96 -158.5h-77q-9 57 -69.5 101.5t-140.5 44.5q-42 0 -80 -16t-72 -48.5t-54 -90t-20 -133.5q0 -81 20 -141t54 -92t71.5 -47t80.5 -15q94 0 157 57.5 t63 178.5h-186v72h262v-66q0 -68 -17 -122.5t-45 -90t-67 -59.5t-80 -34t-87 -10z" />
<glyph unicode="H" horiz-adv-x="679" d="M89 0v710h77v-318h347v318h77v-710h-77v318h-347v-318h-77z" />
<glyph unicode="I" horiz-adv-x="248" d="M86 0v710h77v-710h-77z" />
<glyph unicode="J" horiz-adv-x="487" d="M183 -10q-52 0 -97.5 21.5t-75.5 53.5l54 51q53 -50 120 -50q33 0 55.5 7t42 26t29 56.5t9.5 94.5v460h77v-459q0 -145 -54.5 -203t-159.5 -58z" />
<glyph unicode="K" horiz-adv-x="646" d="M86 0v710h77v-377l340 377h103l-283 -313l294 -397h-95l-251 340l-108 -120v-220h-77z" />
<glyph unicode="L" horiz-adv-x="560" d="M86 0v710h77v-636h352v-74h-429z" />
<glyph unicode="M" horiz-adv-x="825" d="M85 0v710h94l232 -532l235 532h94v-710h-77v562l-220 -498h-68l-214 494v-558h-76z" />
<glyph unicode="N" horiz-adv-x="705" d="M85 0v710h91l367 -586v586h77v-710h-93l-365 583v-583h-77z" />
<glyph unicode="O" horiz-adv-x="702" d="M351 -8q-57 0 -109 21t-96 63.5t-70 115.5t-26 168q0 174 88 266.5t213 92.5q59 0 112 -22.5t95.5 -65t68 -113t25.5 -158.5q0 -92 -25.5 -164t-68.5 -115.5t-95.5 -66t-111.5 -22.5zM351 66q93 0 159 74.5t66 219.5q0 141 -66.5 213t-158.5 72q-94 0 -159 -72t-65 -213 q0 -149 65 -221.5t159 -72.5z" />
<glyph unicode="P" horiz-adv-x="617" d="M85 0v710h241q108 0 172 -60.5t64 -152.5q0 -90 -64.5 -148.5t-170.5 -58.5h-165v-290h-77zM162 636v-272h161q70 0 115.5 35.5t45.5 97.5q0 65 -45.5 102t-116.5 37h-160z" />
<glyph unicode="Q" horiz-adv-x="702" d="M618 -33l-62 -44l-78 98q-58 -29 -127 -29q-57 0 -109 21t-96 63.5t-70 115.5t-26 168q0 174 88 266.5t213 92.5q59 0 112 -22.5t95.5 -65t68 -113t25.5 -158.5q0 -197 -111 -296zM351 66q93 0 159 74.5t66 219.5q0 141 -66.5 213t-158.5 72q-94 0 -159 -72t-65 -213 q0 -149 65 -221.5t159 -72.5z" />
<glyph unicode="R" horiz-adv-x="635" d="M85 0v710h241q113 0 175.5 -57.5t62.5 -148.5q0 -75 -41.5 -126t-97.5 -65l147 -313h-85l-139 297h-186v-297h-77zM162 370h163q72 0 116 36t44 98t-43 97t-117 35h-163v-266z" />
<glyph unicode="S" horiz-adv-x="585" d="M298 -9q-151 0 -254 128l55 47q43 -50 88.5 -75t108.5 -25q75 0 116.5 34.5t41.5 98.5q0 70 -44 97t-135 38q-80 10 -140 58.5t-60 129.5q0 91 61 144.5t168 53.5q132 0 209 -89l-56 -49q-49 64 -162 64q-66 0 -105 -31.5t-39 -90.5q0 -55 42.5 -80t125.5 -36 q92 -12 152 -61.5t60 -146.5q0 -102 -64.5 -155.5t-168.5 -53.5z" />
<glyph unicode="T" horiz-adv-x="589" d="M255 0v636h-208v74h495v-74h-209v-636h-78z" />
<glyph unicode="U" horiz-adv-x="663" d="M332 -11q-121 0 -194.5 78.5t-73.5 222.5v420h77v-421q0 -112 52.5 -169t138.5 -57q87 0 139 57.5t52 168.5v421h76v-420q0 -143 -72.5 -222t-194.5 -79z" />
<glyph unicode="V" horiz-adv-x="640" d="M281 0l-248 710h82l205 -589l206 589h81l-247 -710h-79z" />
<glyph unicode="W" horiz-adv-x="926" d="M227 0l-194 710h80l159 -578l164 529h60l163 -534l153 583h81l-190 -710h-85l-152 496l-152 -496h-87z" />
<glyph unicode="X" horiz-adv-x="633" d="M38 0l228 353l-222 357h91l179 -290l189 290h92l-234 -357l218 -353h-90l-175 284l-185 -284h-91z" />
<glyph unicode="Y" horiz-adv-x="621" d="M272 0v281l-238 429h88l189 -340l188 340h88l-238 -429v-281h-77z" />
<glyph unicode="Z" horiz-adv-x="572" d="M42 0v73l385 563h-373v74h474v-65l-390 -571h392v-74h-488z" />
<glyph unicode="[" horiz-adv-x="353" d="M82 -58v809h220v-74h-144v-661h144v-74h-220z" />
<glyph unicode="\" horiz-adv-x="391" d="M276 0l-239 710h81l235 -710h-77z" />
<glyph unicode="]" horiz-adv-x="353" d="M258 750v-809h-220v74h144v661h-144v74h220z" />
<glyph unicode="^" horiz-adv-x="450" d="M55 492l143 218h59l147 -220l-68 -11l-107 151l-106 -150z" />
<glyph unicode="_" horiz-adv-x="535" d="M3 -70v70h528v-70h-528z" />
<glyph unicode="`" horiz-adv-x="189" d="M114 578l-110 114l77 61l104 -175h-71z" />
<glyph unicode="a" horiz-adv-x="532" d="M224 -8q-72 0 -121.5 45.5t-49.5 107.5q0 71 54.5 119t151.5 48q74 0 133 -22v25q0 77 -40.5 110.5t-97.5 33.5q-75 0 -111 -48l-63 32q59 87 181 87q84 0 145.5 -54.5t61.5 -162.5v-313h-62l-10 66q-15 -27 -66.5 -50.5t-105.5 -23.5zM241 59q45 0 94 31.5t57 63.5v76 q-52 15 -133 13q-65 -1 -98 -27.5t-33 -66.5q0 -43 30.5 -66.5t82.5 -23.5z" />
<glyph unicode="b" horiz-adv-x="602" d="M80 0v710h80v-274q20 40 68.5 67t101.5 27q85 0 151 -69t66 -197q0 -131 -64.5 -202t-149.5 -71q-57 0 -106.5 27.5t-68.5 65.5v-84h-78zM324 57q60 0 102 53t42 153q0 98 -43 148t-112 50q-62 0 -111.5 -53.5t-49.5 -144.5q0 -97 53.5 -151.5t118.5 -54.5z" />
<glyph unicode="c" horiz-adv-x="569" d="M295 -14q-43 0 -84.5 16.5t-77 48t-57.5 85t-22 119.5q0 65 22 119t57.5 87t77.5 51t85 18q81 0 141.5 -44.5t77.5 -128.5h-79q-31 101 -140 101q-65 0 -115.5 -51.5t-50.5 -153.5q0 -96 51.5 -146t113.5 -50q53 0 89.5 23t51.5 65h79q-17 -74 -77 -116.5t-143 -42.5z " />
<glyph unicode="d" horiz-adv-x="599" d="M282 -9q-87 0 -157 71.5t-70 201.5q0 128 68 197t159 69q47 0 95 -28.5t62 -65.5v274h80v-710h-65l-10 84q-16 -40 -63 -66.5t-99 -26.5zM293 62q57 0 104.5 52.5t47.5 148.5q0 91 -45 143t-106 52q-65 0 -112.5 -47.5t-47.5 -147.5q0 -103 50 -152t109 -49z" />
<glyph unicode="e" d="M298 -12q-99 0 -171.5 70.5t-72.5 200.5q0 125 70 198t167 73t162.5 -65.5t65.5 -181.5v-50h-387q1 -84 51.5 -129.5t118.5 -45.5q50 0 93 17t65 47l54 -46q-68 -88 -216 -88zM132 299h311q0 75 -44 118t-108 43t-109.5 -45t-49.5 -116z" />
<glyph unicode="f" horiz-adv-x="386" d="M128 0v449h-78v71h78v34q0 83 44 130.5t127 47.5h37v-72q-70 2 -100 -20t-30 -88v-32h127v-71h-127v-449h-78z" />
<glyph unicode="g" horiz-adv-x="597" d="M289 -231q-62 0 -118 25t-87 70l68 37q49 -58 136 -58q71 0 111.5 41.5t40.5 115.5v81q-14 -38 -59 -64t-100 -26q-90 0 -154.5 72.5t-64.5 195.5q0 127 66.5 200t156.5 73q54 0 96.5 -23t58.5 -59l12 70h67v-519q0 -107 -65 -169.5t-165 -62.5zM293 63q67 0 110 52.5 t43 143.5q0 103 -41.5 151.5t-111.5 48.5q-66 0 -109.5 -51.5t-43.5 -149.5q-1 -93 43 -144t110 -51z" />
<glyph unicode="h" horiz-adv-x="565" d="M80 0v710h78v-270q12 36 56 63t90 27q93 0 144.5 -59.5t51.5 -175.5v-295h-79v295q0 87 -31 125t-95 38q-59 0 -98 -45t-39 -118v-295h-78z" />
<glyph unicode="i" horiz-adv-x="247" d="M123 622q-20 0 -35.5 14t-15.5 36q0 21 15.5 35t35.5 14q21 0 36.5 -14t15.5 -35q0 -22 -15.5 -36t-36.5 -14zM89 0v520h77v-520h-77z" />
<glyph unicode="j" horiz-adv-x="270" d="M145 618q-22 0 -37 14t-15 36q0 21 15 35t37 14q21 0 35.5 -14t14.5 -35q0 -22 -14.5 -36t-35.5 -14zM0 -201v73q44 -4 75 28.5t31 98.5v521h78v-522q0 -103 -55.5 -154t-128.5 -45z" />
<glyph unicode="k" horiz-adv-x="534" d="M85 0v710h78v-421l226 231h104l-211 -216l232 -304h-93l-193 253l-65 -63v-190h-78z" />
<glyph unicode="l" horiz-adv-x="248" d="M85 0v710h78v-710h-78z" />
<glyph unicode="m" horiz-adv-x="856" d="M85 0v520h58l12 -71q15 33 54 59t88 26q54 0 94.5 -27.5t53.5 -74.5q20 45 63 73.5t101 28.5q85 0 131 -58t46 -156v-320h-77v314q0 75 -26 111t-83 36q-58 0 -92 -39t-34 -108v-314h-77v313q4 148 -108 148q-60 0 -93.5 -39t-33.5 -109v-313h-77z" />
<glyph unicode="n" horiz-adv-x="572" d="M85 0v520h59l13 -71q17 37 61 61.5t95 24.5q85 0 137 -59t52 -164v-312h-78v311q0 152 -128 152q-59 0 -96 -41.5t-37 -110.5v-311h-78z" />
<glyph unicode="o" horiz-adv-x="590" d="M294 -9q-95 0 -167.5 70t-72.5 199q0 133 71 201.5t169 68.5t170 -69.5t72 -200.5q0 -66 -21.5 -119t-57 -84.5t-77.5 -48.5t-86 -17zM294 63q64 0 115 50.5t51 146.5q0 99 -49.5 149t-116.5 50q-69 0 -116.5 -49t-47.5 -150q0 -94 50 -145.5t114 -51.5z" />
<glyph unicode="p" horiz-adv-x="605" d="M163 80v-293h-78v733h63l13 -77q19 39 69 63.5t100 24.5q39 0 77 -16t71 -47t53 -85t20 -122q0 -134 -66.5 -202t-157.5 -68q-50 0 -100.5 26t-63.5 63zM317 62q63 0 109 49.5t46 149.5q0 101 -45.5 149.5t-109.5 48.5q-60 0 -109.5 -48.5t-49.5 -149.5q0 -97 48 -148 t111 -51z" />
<glyph unicode="q" horiz-adv-x="605" d="M442 -213v293q-13 -37 -63.5 -63t-100.5 -26q-91 0 -157.5 68t-66.5 202q0 68 20 122t53 85t71 47t77 16q50 0 100 -24.5t69 -63.5l11 77h65v-733h-78zM133 261q0 -100 46 -149.5t109 -49.5t111.5 51t48.5 148q0 101 -50 149.5t-110 48.5q-58 0 -106.5 -49.5 t-48.5 -148.5z" />
<glyph unicode="r" horiz-adv-x="386" d="M85 0v520h59l13 -66q18 32 58 54t80 22q13 0 35.5 -1.5t31.5 -1.5v-74q-50 4 -71 4q-59 0 -93.5 -39.5t-34.5 -116.5v-301h-78z" />
<glyph unicode="s" horiz-adv-x="502" d="M253 -12q-115 0 -204 75l49 56q66 -57 154 -57q59 0 93 22t34 62q0 42 -33 59.5t-125 26.5q-67 7 -110.5 43t-43.5 103q0 63 55.5 107.5t135.5 44.5q117 0 177 -62l-49 -54q-6 5 -17 13t-44.5 21t-67.5 13q-48 0 -81 -21.5t-33 -55.5q0 -42 30 -57.5t101 -22.5 q183 -17 183 -158q0 -70 -56.5 -114t-147.5 -44z" />
<glyph unicode="t" horiz-adv-x="358" d="M117 157v293h-87v70h82l25 145h57v-145h124v-70h-124v-285q0 -97 87 -97q26 0 37 1v-69q-18 -4 -50 -4q-63 0 -107 41t-44 120z" />
<glyph unicode="u" d="M268 -11q-85 0 -141.5 57.5t-56.5 163.5v310h79v-310q0 -73 35 -111t95 -38q58 0 94.5 39.5t36.5 109.5v310h78v-520h-59l-12 75q-12 -35 -58 -60.5t-91 -25.5z" />
<glyph unicode="v" horiz-adv-x="528" d="M226 0l-196 520h84l150 -410l150 410h84l-196 -520h-76z" />
<glyph unicode="w" horiz-adv-x="755" d="M184 0l-154 520h81l112 -391l125 391h61l129 -389l105 389h82l-148 -520h-76l-123 359l-122 -359h-72z" />
<glyph unicode="x" horiz-adv-x="546" d="M39 0l187 259l-180 261h94l133 -195l139 195h95l-184 -254l182 -266h-94l-134 196l-144 -196h-94z" />
<glyph unicode="y" horiz-adv-x="518" d="M219 -199h-77l77 198v2l-189 519h83l145 -418l147 418h83z" />
<glyph unicode="z" horiz-adv-x="469" d="M51 0v62l268 386h-263v72h355v-57l-269 -390h276v-73h-367z" />
<glyph unicode="{" horiz-adv-x="386" d="M312 -64h-25q-59 5 -100.5 46t-41.5 105v141q0 47 -25 66.5t-79 19.5v71q104 0 104 96v135q0 67 39.5 108.5t104.5 44.5q4 1 23 1v-73q-93 0 -93 -87v-133q0 -105 -62 -126q61 -19 61 -118v-140q0 -44 30 -64.5t64 -20.5v-72z" />
<glyph unicode="|" horiz-adv-x="286" d="M105 -133v942h76v-942h-76z" />
<glyph unicode="}" horiz-adv-x="391" d="M64 770h25q59 -5 100.5 -46t41.5 -105v-141q0 -47 25 -66.5t79 -19.5v-71q-104 0 -104 -96v-135q0 -67 -39.5 -108.5t-104.5 -44.5q-4 -1 -23 -1v73q93 0 93 87v133q0 105 62 126q-61 19 -61 118v140q0 44 -30 64.5t-64 20.5v72z" />
<glyph unicode="~" horiz-adv-x="595" d="M64 328q8 38 48.5 72t99.5 34q40 0 73.5 -16t58.5 -31.5t45 -15.5q30 0 51 17t24 38l68 -15q-11 -47 -51 -79t-103 -32q-45 0 -98 31.5t-78 31.5q-29 0 -48 -17.5t-24 -38.5z" />
<glyph unicode="&#xa1;" horiz-adv-x="278" d="M120 601q21 0 36.5 -16t15.5 -39t-15.5 -38.5t-36.5 -15.5q-22 0 -38 15.5t-16 38.5t16 39t38 16zM139 389l23 -233v-271h-85v271l22 233h40z" />
<glyph unicode="&#xa2;" horiz-adv-x="559" d="M515 145q-17 -74 -76 -116.5t-138 -42.5l-28 -110h-81l26 123q-71 25 -117.5 90t-46.5 166q0 65 22 119t57.5 87t77.5 51t85 18l21 104h84l-25 -116q113 -38 139 -161h-79q-31 101 -140 101q-65 0 -115.5 -51.5t-50.5 -153.5q0 -96 51.5 -146t113.5 -50q53 0 89.5 23 t51.5 65h79z" />
<glyph unicode="&#xa3;" horiz-adv-x="579" d="M56 0v61q2 2 17 15.5t28 28t28.5 36t24.5 50t9 58.5q0 54 -27 104h-98v76h68q-25 52 -25 118q0 73 61 127t157 54t161 -53l-14 -74q-65 53 -146 53q-64 0 -101.5 -33.5t-37.5 -79.5q0 -53 28 -112h174v-76h-144q23 -54 23 -111q0 -90 -70 -165h325v-77h-441z" />
<glyph unicode="&#xa5;" horiz-adv-x="615" d="M520 122h-173v-122h-77v122h-184v72h184v87h-184v72h144l-198 357h88l189 -340l188 340h88l-198 -357h133v-72h-173v-87h173v-72z" />
<glyph unicode="&#xa6;" horiz-adv-x="288" d="M103 406v394h83v-394h-83zM103 -114v385h83v-385h-83z" />
<glyph unicode="&#xa7;" horiz-adv-x="531" d="M274 -12q-120 -6 -214 67l45 57q75 -58 164 -54q48 2 80 25.5t30 61.5q-2 41 -22.5 53t-65.5 10q-18 -2 -38 0q-44 4 -69 13q-50 15 -82 47t-35 81q-3 78 65 123q-45 34 -48 97q-4 66 43 109.5t142 48.5q109 6 176 -55l-43 -57q-5 5 -15 13t-44 20t-72 10q-56 -3 -86 -25 t-28 -54q2 -37 20 -54t68 -18h7h29q83 4 135 -36.5t55 -101.5q3 -74 -60 -121q40 -32 43 -99q4 -69 -45.5 -112.5t-134.5 -48.5zM141 359q4 -88 145 -81q48 2 80 25.5t30 61.5q-4 66 -98 73q-18 1 -43 0q-57 -3 -86.5 -25t-27.5 -54z" />
<glyph unicode="&#xa8;" horiz-adv-x="317" d="M54 601q-19 0 -34.5 15t-15.5 36t15.5 36t34.5 15q20 0 35.5 -15t15.5 -36t-15.5 -36t-35.5 -15zM262 601q-20 0 -35 15t-15 36t15 36t35 15t35.5 -15t15.5 -36t-15.5 -36t-35.5 -15z" />
<glyph unicode="&#xa9;" horiz-adv-x="892" d="M445 -11q-156 0 -257.5 100.5t-101.5 264.5q0 160 103.5 261t258.5 101q153 0 255.5 -101t102.5 -261q0 -162 -102 -263.5t-259 -101.5zM448 53q125 0 208.5 85t83.5 216q0 134 -84.5 215t-207.5 81t-207 -83.5t-84 -212.5q0 -133 83 -217t208 -84zM451 174 q-70 0 -117.5 47.5t-47.5 127.5q0 81 47.5 131t117.5 50q55 0 98 -33.5t51 -94.5h-68q-4 30 -26.5 47.5t-54.5 17.5q-41 0 -67 -30.5t-26 -86.5t25 -83.5t68 -27.5q31 0 53.5 15.5t27.5 43.5h68q-6 -56 -50 -90t-99 -34z" />
<glyph unicode="&#xaa;" horiz-adv-x="407" d="M171 308q-49 0 -83.5 30.5t-34.5 76.5v11q0 52 37 81t105 29q59 0 78 -18v51q-2 54 -76 54q-51 0 -96 -33l-33 47q59 45 135 45q74 0 106.5 -31t32.5 -103v-236h-64v45q-3 -7 -13 -16.5t-36 -21t-58 -11.5zM188 366q30 0 53 13.5t32 29.5v64q-18 17 -71 17 q-35 0 -57 -18.5t-22 -46.5q0 -27 18 -43t47 -16zM59 159v56h285v-56h-285z" />
<glyph unicode="&#xab;" horiz-adv-x="568" d="M419 109l-135 154v44l134 153l53 -45l-113 -131l113 -130zM213 109l-135 154v44l134 153l53 -45l-113 -131l113 -130z" />
<glyph unicode="&#xad;" horiz-adv-x="445" d="M69 250v74h307v-74h-307z" />
<glyph unicode="&#xae;" horiz-adv-x="889" d="M442 -9q-154 0 -255 101t-101 264q0 159 103.5 259.5t255.5 100.5q153 0 255.5 -100.5t102.5 -259.5q0 -162 -102 -263.5t-259 -101.5zM445 56q124 0 207 84.5t83 215.5q0 132 -84 213t-206 81t-205.5 -83t-83.5 -211q0 -133 82.5 -216.5t206.5 -83.5zM328 181v340h133 q56 0 85.5 -32t29.5 -76q0 -32 -19 -61t-39 -35l64 -136h-62l-62 125h-67v-125h-63zM391 366h55q62 0 62 47q0 49 -65 49h-52v-96z" />
<glyph unicode="&#xaf;" horiz-adv-x="371" d="M4 596v67h363v-67h-363z" />
<glyph unicode="&#xb0;" horiz-adv-x="426" d="M212 374q-68 0 -118.5 51t-50.5 120t50.5 120t118.5 51q69 0 120.5 -51t51.5 -120t-51.5 -120t-120.5 -51zM213 442q42 0 71.5 30t29.5 73t-29.5 72.5t-71.5 29.5t-71.5 -30t-29.5 -72q0 -43 29.5 -73t71.5 -30z" />
<glyph unicode="&#xb1;" horiz-adv-x="642" d="M529 123v-70h-428v70h178v178h-175v75h175v177h76v-177h178v-75h-178v-178h174z" />
<glyph unicode="&#xb4;" horiz-adv-x="189" d="M4 763l104 175l77 -61l-110 -114h-71z" />
<glyph unicode="&#xb6;" horiz-adv-x="611" d="M472 2v710h72v-710h-72zM387 0h-80v293h-16q-102 0 -161.5 58t-59.5 148q0 92 60.5 151.5t162.5 59.5h94v-710z" />
<glyph unicode="&#xb7;" horiz-adv-x="157" d="M78 297q-21 0 -37 15t-16 38t16 39t37 16t37.5 -16t16.5 -39t-16 -38t-38 -15z" />
<glyph unicode="&#xb8;" horiz-adv-x="597" d="M250 10h51l-7 -44q44 -5 73 -33.5t29 -72.5q0 -45 -30 -75t-86 -30q-36 0 -92 24l23 60q43 -18 70 -18q20 0 34.5 10.5t14.5 28.5q0 37 -63 44l-39 4z" />
<glyph unicode="&#xba;" horiz-adv-x="414" d="M206 312q-67 0 -110 45.5t-43 121.5v36q0 75 42.5 119.5t110.5 44.5q70 0 113 -44.5t43 -119.5v-36q0 -78 -44 -122.5t-112 -44.5zM206 375q41 0 64.5 26t23.5 77v37q0 49 -23.5 76.5t-64.5 27.5q-42 0 -63.5 -27.5t-21.5 -76.5v-37q0 -49 23 -76t62 -27zM63 159v56h287 v-56h-287z" />
<glyph unicode="&#xbb;" horiz-adv-x="568" d="M134 465l135 -154v-44l-134 -153l-53 45l113 131l-113 130zM340 465l135 -154v-44l-134 -153l-53 45l113 131l-113 130z" />
<glyph unicode="&#xbf;" horiz-adv-x="533" d="M261 529q22 0 38 -15.5t16 -38.5q0 -24 -16 -39.5t-38 -15.5q-21 0 -36.5 15.5t-15.5 39.5q0 23 15.5 38.5t36.5 15.5zM300 321q0 -85 -25.5 -129t-76.5 -83q-52 -39 -69.5 -60t-17.5 -55q0 -53 36 -86.5t98 -33.5q54 0 95.5 33t49.5 90l72 -7q-9 -80 -68.5 -134.5 t-150.5 -54.5q-95 0 -150.5 55t-57.5 136q0 19 2 35t10 31t13 24.5t20.5 23.5t21 19t26 20.5t25.5 19.5q44 35 59.5 64.5t15.5 91.5h72z" />
<glyph unicode="&#xc0;" horiz-adv-x="674" d="M314 784l-110 114l77 61l104 -175h-71zM565 0l-68 179h-318l-68 -179h-82l268 710h80l268 -710h-80zM337 598l-131 -346h263z" />
<glyph unicode="&#xc1;" horiz-adv-x="674" d="M290 790l104 175l77 -61l-110 -114h-71zM565 0l-68 179h-318l-68 -179h-82l268 710h80l268 -710h-80zM337 598l-131 -346h263z" />
<glyph unicode="&#xc2;" horiz-adv-x="674" d="M229 772l-39 36l108 110h77l107 -108l-40 -37l-105 74zM565 0l-68 179h-318l-68 -179h-82l268 710h80l268 -710h-80zM337 598l-131 -346h263z" />
<glyph unicode="&#xc3;" horiz-adv-x="674" d="M155 800q4 38 34 67.5t76 33.5q45 3 88 -19t57 -21q23 1 38 13t19 28l49 -17q-1 -28 -27 -59t-70 -34q-34 -2 -77.5 19.5t-68.5 20.5q-57 -3 -72 -47zM565 0l-68 179h-318l-68 -179h-82l268 710h80l268 -710h-80zM337 598l-131 -346h263z" />
<glyph unicode="&#xc4;" horiz-adv-x="674" d="M233 783q-19 0 -34.5 15t-15.5 36t15.5 36t34.5 15q20 0 35.5 -15t15.5 -36t-15.5 -36t-35.5 -15zM441 783q-20 0 -35 15t-15 36t15 36t35 15t35.5 -15t15.5 -36t-15.5 -36t-35.5 -15zM565 0l-68 179h-318l-68 -179h-82l268 710h80l268 -710h-80zM337 598l-131 -346h263z " />
<glyph unicode="&#xc5;" horiz-adv-x="674" d="M338 744q-45 0 -79 33t-34 79q0 45 34.5 79t78.5 34q43 0 77.5 -34t34.5 -79q0 -46 -34 -79t-78 -33zM338 798q25 0 41 16t16 41q0 24 -16.5 41.5t-40.5 17.5t-41 -17.5t-17 -41.5q0 -25 16.5 -41t41.5 -16zM565 0l-68 179h-318l-68 -179h-82l268 710h80l268 -710h-80z M337 598l-131 -346h263z" />
<glyph unicode="&#xc6;" horiz-adv-x="960" d="M-2 0l431 710h474v-73h-358v-241h288v-73h-288v-250h360v-73h-437v175h-274l-108 -175h-88zM237 247h231v378z" />
<glyph unicode="&#xc7;" horiz-adv-x="702" d="M477 -148q0 -45 -30 -75t-86 -30q-36 0 -92 24l23 60q43 -18 70 -18q20 0 34.5 10.5t14.5 28.5q0 37 -63 44l-39 4l20 92q-52 7 -100 30.5t-89 65.5t-65.5 109.5t-24.5 152.5q0 79 19 143t49.5 105.5t72.5 69.5t85.5 40t89.5 12q107 0 187.5 -63.5t96.5 -169.5h-78 q-13 72 -71.5 115t-134.5 43q-44 0 -83.5 -15t-75.5 -47t-57.5 -92t-21.5 -141q0 -75 21.5 -132.5t57.5 -89.5t76 -48t83 -16q76 0 135.5 47.5t72.5 118.5h78q-15 -104 -92 -169.5t-180 -70.5l-5 -32q44 -5 73 -33.5t29 -72.5z" />
<glyph unicode="&#xc8;" horiz-adv-x="602" d="M287 784l-110 114l77 61l104 -175h-71zM86 0v710h443v-73h-366v-240h291v-74h-291v-250h375v-73h-452z" />
<glyph unicode="&#xc9;" horiz-adv-x="602" d="M263 790l104 175l77 -61l-110 -114h-71zM86 0v710h443v-73h-366v-240h291v-74h-291v-250h375v-73h-452z" />
<glyph unicode="&#xca;" horiz-adv-x="602" d="M202 772l-39 36l108 110h77l107 -108l-40 -37l-105 74zM86 0v710h443v-73h-366v-240h291v-74h-291v-250h375v-73h-452z" />
<glyph unicode="&#xcb;" horiz-adv-x="602" d="M206 783q-19 0 -34.5 15t-15.5 36t15.5 36t34.5 15q20 0 35.5 -15t15.5 -36t-15.5 -36t-35.5 -15zM414 783q-20 0 -35 15t-15 36t15 36t35 15t35.5 -15t15.5 -36t-15.5 -36t-35.5 -15zM86 0v710h443v-73h-366v-240h291v-74h-291v-250h375v-73h-452z" />
<glyph unicode="&#xcc;" horiz-adv-x="247" d="M105 775l-82 82l80 56l79 -138h-77zM85 0v710h77v-710h-77z" />
<glyph unicode="&#xcd;" horiz-adv-x="247" d="M76 772l78 140l82 -57l-82 -83h-78zM85 0v710h77v-710h-77z" />
<glyph unicode="&#xce;" horiz-adv-x="247" d="M67 766l-51 35l68 95h78l68 -95l-52 -35l-55 55zM85 0v710h77v-710h-77z" />
<glyph unicode="&#xcf;" horiz-adv-x="247" d="M54 792q-21 0 -35 15t-14 37t14 36t35 14q20 0 34 -14t14 -36t-14 -37t-34 -15zM201 792q-21 0 -35 14.5t-14 36.5q0 23 14 37t35 14t35 -14t14 -37q0 -22 -14 -36.5t-35 -14.5zM85 0v710h77v-710h-77z" />
<glyph unicode="&#xd0;" horiz-adv-x="719" d="M679 356q0 -178 -91.5 -267t-235.5 -89h-225v318h-102v73h102v319h225q140 0 233.5 -91.5t93.5 -262.5zM204 74h148q116 0 183 70.5t67 211.5q0 138 -70 209t-180 71h-148v-245h155v-73h-155v-244z" />
<glyph unicode="&#xd1;" horiz-adv-x="705" d="M172 786q4 38 34 67.5t76 33.5q45 3 88 -19t57 -21q23 1 38 13t19 28l49 -17q-1 -28 -27 -59t-70 -34q-34 -2 -77.5 19.5t-68.5 20.5q-57 -3 -72 -47zM85 0v710h91l367 -586v586h77v-710h-93l-365 583v-583h-77z" />
<glyph unicode="&#xd2;" horiz-adv-x="702" d="M329 780l-110 114l77 61l104 -175h-71zM351 -8q-57 0 -109 21t-96 63.5t-70 115.5t-26 168q0 174 88 266.5t213 92.5q59 0 112 -22.5t95.5 -65t68 -113t25.5 -158.5q0 -92 -25.5 -164t-68.5 -115.5t-95.5 -66t-111.5 -22.5zM351 66q93 0 159 74.5t66 219.5 q0 141 -66.5 213t-158.5 72q-94 0 -159 -72t-65 -213q0 -149 65 -221.5t159 -72.5z" />
<glyph unicode="&#xd3;" horiz-adv-x="702" d="M305 786l104 175l77 -61l-110 -114h-71zM351 -8q-57 0 -109 21t-96 63.5t-70 115.5t-26 168q0 174 88 266.5t213 92.5q59 0 112 -22.5t95.5 -65t68 -113t25.5 -158.5q0 -92 -25.5 -164t-68.5 -115.5t-95.5 -66t-111.5 -22.5zM351 66q93 0 159 74.5t66 219.5 q0 141 -66.5 213t-158.5 72q-94 0 -159 -72t-65 -213q0 -149 65 -221.5t159 -72.5z" />
<glyph unicode="&#xd4;" horiz-adv-x="702" d="M244 768l-39 36l108 110h77l107 -108l-40 -37l-105 74zM351 -8q-57 0 -109 21t-96 63.5t-70 115.5t-26 168q0 174 88 266.5t213 92.5q59 0 112 -22.5t95.5 -65t68 -113t25.5 -158.5q0 -92 -25.5 -164t-68.5 -115.5t-95.5 -66t-111.5 -22.5zM351 66q93 0 159 74.5 t66 219.5q0 141 -66.5 213t-158.5 72q-94 0 -159 -72t-65 -213q0 -149 65 -221.5t159 -72.5z" />
<glyph unicode="&#xd5;" horiz-adv-x="702" d="M170 796q4 38 34 67.5t76 33.5q45 3 88 -19t57 -21q23 1 38 13t19 28l49 -17q-1 -28 -27 -59t-70 -34q-34 -2 -77.5 19.5t-68.5 20.5q-57 -3 -72 -47zM351 -8q-57 0 -109 21t-96 63.5t-70 115.5t-26 168q0 174 88 266.5t213 92.5q59 0 112 -22.5t95.5 -65t68 -113 t25.5 -158.5q0 -92 -25.5 -164t-68.5 -115.5t-95.5 -66t-111.5 -22.5zM351 66q93 0 159 74.5t66 219.5q0 141 -66.5 213t-158.5 72q-94 0 -159 -72t-65 -213q0 -149 65 -221.5t159 -72.5z" />
<glyph unicode="&#xd6;" horiz-adv-x="702" d="M248 779q-19 0 -34.5 15t-15.5 36t15.5 36t34.5 15q20 0 35.5 -15t15.5 -36t-15.5 -36t-35.5 -15zM456 779q-20 0 -35 15t-15 36t15 36t35 15t35.5 -15t15.5 -36t-15.5 -36t-35.5 -15zM351 -8q-57 0 -109 21t-96 63.5t-70 115.5t-26 168q0 174 88 266.5t213 92.5 q59 0 112 -22.5t95.5 -65t68 -113t25.5 -158.5q0 -92 -25.5 -164t-68.5 -115.5t-95.5 -66t-111.5 -22.5zM351 66q93 0 159 74.5t66 219.5q0 141 -66.5 213t-158.5 72q-94 0 -159 -72t-65 -213q0 -149 65 -221.5t159 -72.5z" />
<glyph unicode="&#xd7;" horiz-adv-x="682" d="M100 143l188 187l-184 185l52 53l185 -185l185 185l54 -53l-185 -186l186 -186l-54 -53l-185 186l-188 -187z" />
<glyph unicode="&#xd8;" horiz-adv-x="702" d="M351 -8q-92 0 -164 50l-46 -70l-59 37l52 80q-84 101 -84 271q0 174 88 266.5t213 92.5q91 0 162 -49l46 70l58 -37l-52 -79q87 -97 87 -264q0 -92 -25.5 -164t-68.5 -115.5t-95.5 -66t-111.5 -22.5zM127 360q0 -127 52 -203l293 450q-53 38 -121 38q-94 0 -159 -72 t-65 -213zM576 360q0 122 -54 197l-294 -452q53 -39 123 -39q93 0 159 74.5t66 219.5z" />
<glyph unicode="&#xd9;" horiz-adv-x="663" d="M308 764l-110 114l77 61l104 -175h-71zM332 -11q-121 0 -194.5 78.5t-73.5 222.5v420h77v-421q0 -112 52.5 -169t138.5 -57q87 0 139 57.5t52 168.5v421h76v-420q0 -143 -72.5 -222t-194.5 -79z" />
<glyph unicode="&#xda;" horiz-adv-x="663" d="M284 770l104 175l77 -61l-110 -114h-71zM332 -11q-121 0 -194.5 78.5t-73.5 222.5v420h77v-421q0 -112 52.5 -169t138.5 -57q87 0 139 57.5t52 168.5v421h76v-420q0 -143 -72.5 -222t-194.5 -79z" />
<glyph unicode="&#xdb;" horiz-adv-x="663" d="M223 752l-39 36l108 110h77l107 -108l-40 -37l-105 74zM332 -11q-121 0 -194.5 78.5t-73.5 222.5v420h77v-421q0 -112 52.5 -169t138.5 -57q87 0 139 57.5t52 168.5v421h76v-420q0 -143 -72.5 -222t-194.5 -79z" />
<glyph unicode="&#xdc;" horiz-adv-x="663" d="M227 763q-19 0 -34.5 15t-15.5 36t15.5 36t34.5 15q20 0 35.5 -15t15.5 -36t-15.5 -36t-35.5 -15zM435 763q-20 0 -35 15t-15 36t15 36t35 15t35.5 -15t15.5 -36t-15.5 -36t-35.5 -15zM332 -11q-121 0 -194.5 78.5t-73.5 222.5v420h77v-421q0 -112 52.5 -169t138.5 -57 q87 0 139 57.5t52 168.5v421h76v-420q0 -143 -72.5 -222t-194.5 -79z" />
<glyph unicode="&#xdd;" horiz-adv-x="621" d="M265 781l104 175l77 -61l-110 -114h-71zM272 0v281l-238 429h88l189 -340l188 340h88l-238 -429v-281h-77z" />
<glyph unicode="&#xde;" horiz-adv-x="622" d="M85 0v710h77v-141h165q104 0 169.5 -58.5t65.5 -158.5q0 -97 -65 -155.5t-168 -58.5h-167v-138h-77zM162 211h169q67 0 110 39.5t43 103.5q-1 65 -44 104t-109 39h-169v-286z" />
<glyph unicode="&#xdf;" horiz-adv-x="611" d="M85 0v449q0 131 67.5 201t161.5 70q76 0 131.5 -37.5t70.5 -94.5l-140 -188q80 -11 128 -61.5t48 -127.5q0 -93 -63 -154.5t-165 -61.5q-39 0 -64 5v73q17 -5 65 -5q70 0 109.5 40.5t39.5 102.5q0 61 -40.5 92.5t-140.5 34.5h-7v49l141 199q-10 29 -39.5 46.5t-74.5 17.5 q-62 0 -106 -50.5t-44 -148.5v-451h-78z" />
<glyph unicode="&#xe0;" horiz-adv-x="532" d="M251 610l-110 114l77 61l104 -175h-71zM224 -8q-72 0 -121.5 45.5t-49.5 107.5q0 71 54.5 119t151.5 48q74 0 133 -22v25q0 77 -40.5 110.5t-97.5 33.5q-75 0 -111 -48l-63 32q59 87 181 87q84 0 145.5 -54.5t61.5 -162.5v-313h-62l-10 66q-15 -27 -66.5 -50.5 t-105.5 -23.5zM241 59q45 0 94 31.5t57 63.5v76q-52 15 -133 13q-65 -1 -98 -27.5t-33 -66.5q0 -43 30.5 -66.5t82.5 -23.5z" />
<glyph unicode="&#xe1;" horiz-adv-x="532" d="M208 608l104 175l77 -61l-110 -114h-71zM224 -8q-72 0 -121.5 45.5t-49.5 107.5q0 71 54.5 119t151.5 48q74 0 133 -22v25q0 77 -40.5 110.5t-97.5 33.5q-75 0 -111 -48l-63 32q59 87 181 87q84 0 145.5 -54.5t61.5 -162.5v-313h-62l-10 66q-15 -27 -66.5 -50.5 t-105.5 -23.5zM241 59q45 0 94 31.5t57 63.5v76q-52 15 -133 13q-65 -1 -98 -27.5t-33 -66.5q0 -43 30.5 -66.5t82.5 -23.5z" />
<glyph unicode="&#xe2;" horiz-adv-x="532" d="M156 604l-39 36l108 110h77l107 -108l-40 -37l-105 74zM224 -8q-72 0 -121.5 45.5t-49.5 107.5q0 71 54.5 119t151.5 48q74 0 133 -22v25q0 77 -40.5 110.5t-97.5 33.5q-75 0 -111 -48l-63 32q59 87 181 87q84 0 145.5 -54.5t61.5 -162.5v-313h-62l-10 66 q-15 -27 -66.5 -50.5t-105.5 -23.5zM241 59q45 0 94 31.5t57 63.5v76q-52 15 -133 13q-65 -1 -98 -27.5t-33 -66.5q0 -43 30.5 -66.5t82.5 -23.5z" />
<glyph unicode="&#xe3;" horiz-adv-x="532" d="M83 638q4 38 34 67.5t76 33.5q45 3 88 -19t57 -21q23 1 38 13t19 28l49 -17q-1 -28 -27 -59t-70 -34q-34 -2 -77.5 19.5t-68.5 20.5q-57 -3 -72 -47zM224 -8q-72 0 -121.5 45.5t-49.5 107.5q0 71 54.5 119t151.5 48q74 0 133 -22v25q0 77 -40.5 110.5t-97.5 33.5 q-75 0 -111 -48l-63 32q59 87 181 87q84 0 145.5 -54.5t61.5 -162.5v-313h-62l-10 66q-15 -27 -66.5 -50.5t-105.5 -23.5zM241 59q45 0 94 31.5t57 63.5v76q-52 15 -133 13q-65 -1 -98 -27.5t-33 -66.5q0 -43 30.5 -66.5t82.5 -23.5z" />
<glyph unicode="&#xe4;" horiz-adv-x="532" d="M161 619q-19 0 -34.5 15t-15.5 36t15.5 36t34.5 15q20 0 35.5 -15t15.5 -36t-15.5 -36t-35.5 -15zM369 619q-20 0 -35 15t-15 36t15 36t35 15t35.5 -15t15.5 -36t-15.5 -36t-35.5 -15zM224 -8q-72 0 -121.5 45.5t-49.5 107.5q0 71 54.5 119t151.5 48q74 0 133 -22v25 q0 77 -40.5 110.5t-97.5 33.5q-75 0 -111 -48l-63 32q59 87 181 87q84 0 145.5 -54.5t61.5 -162.5v-313h-62l-10 66q-15 -27 -66.5 -50.5t-105.5 -23.5zM241 59q45 0 94 31.5t57 63.5v76q-52 15 -133 13q-65 -1 -98 -27.5t-33 -66.5q0 -43 30.5 -66.5t82.5 -23.5z" />
<glyph unicode="&#xe5;" horiz-adv-x="532" d="M266 564q-45 0 -79 33t-34 79q0 45 34.5 79t78.5 34q43 0 77.5 -34t34.5 -79q0 -46 -34 -79t-78 -33zM266 618q25 0 41 16t16 41q0 24 -16.5 41.5t-40.5 17.5t-41 -17.5t-17 -41.5q0 -25 16.5 -41t41.5 -16zM224 -8q-72 0 -121.5 45.5t-49.5 107.5q0 71 54.5 119 t151.5 48q74 0 133 -22v25q0 77 -40.5 110.5t-97.5 33.5q-75 0 -111 -48l-63 32q59 87 181 87q84 0 145.5 -54.5t61.5 -162.5v-313h-62l-10 66q-15 -27 -66.5 -50.5t-105.5 -23.5zM241 59q45 0 94 31.5t57 63.5v76q-52 15 -133 13q-65 -1 -98 -27.5t-33 -66.5 q0 -43 30.5 -66.5t82.5 -23.5z" />
<glyph unicode="&#xe6;" horiz-adv-x="853" d="M838 76q-68 -88 -216 -88q-61 0 -115.5 28.5t-87.5 82.5q-60 -107 -195 -107q-87 0 -140.5 44t-53.5 111q0 78 55.5 123t153.5 45q88 0 135 -15v7q-6 79 -38.5 118t-99.5 39q-12 0 -23.5 -1t-21.5 -3.5t-17.5 -5t-15.5 -7t-12.5 -7t-11.5 -8.5t-9.5 -8t-9 -8.5l-7.5 -7.5 l-57 39q65 85 188 85q136 0 185 -106q33 50 83.5 77t107.5 27q97 0 162.5 -65.5t65.5 -181.5v-50h-387q1 -84 51.5 -129.5t118.5 -45.5q50 0 93 17t65 47zM456 299h311q0 75 -44 118t-108 43t-109.5 -45t-49.5 -116zM221 59q66 0 108 38t45 115v23q-50 21 -133 15 q-68 -1 -102.5 -28t-34.5 -70q0 -41 31 -67t86 -26z" />
<glyph unicode="&#xe7;" horiz-adv-x="569" d="M406 -148q0 -45 -30 -75t-86 -30q-36 0 -92 24l23 60q43 -18 70 -18q20 0 34.5 10.5t14.5 28.5q0 37 -63 44l-39 4l19 89q-83 14 -143 82.5t-60 183.5q0 65 22 119t57.5 87t77.5 51t85 18q81 0 141.5 -44.5t77.5 -128.5h-79q-31 101 -140 101q-65 0 -115.5 -51.5 t-50.5 -153.5q0 -96 51.5 -146t113.5 -50q53 0 89.5 23t51.5 65h79q-16 -71 -72 -113t-134 -46l-5 -28q44 -5 73 -33.5t29 -72.5z" />
<glyph unicode="&#xe8;" d="M277 609l-110 114l77 61l104 -175h-71zM298 -12q-99 0 -171.5 70.5t-72.5 200.5q0 125 70 198t167 73t162.5 -65.5t65.5 -181.5v-50h-387q1 -84 51.5 -129.5t118.5 -45.5q50 0 93 17t65 47l54 -46q-68 -88 -216 -88zM132 299h311q0 75 -44 118t-108 43t-109.5 -45 t-49.5 -116z" />
<glyph unicode="&#xe9;" d="M234 607l104 175l77 -61l-110 -114h-71zM298 -12q-99 0 -171.5 70.5t-72.5 200.5q0 125 70 198t167 73t162.5 -65.5t65.5 -181.5v-50h-387q1 -84 51.5 -129.5t118.5 -45.5q50 0 93 17t65 47l54 -46q-68 -88 -216 -88zM132 299h311q0 75 -44 118t-108 43t-109.5 -45 t-49.5 -116z" />
<glyph unicode="&#xea;" d="M182 603l-39 36l108 110h77l107 -108l-40 -37l-105 74zM298 -12q-99 0 -171.5 70.5t-72.5 200.5q0 125 70 198t167 73t162.5 -65.5t65.5 -181.5v-50h-387q1 -84 51.5 -129.5t118.5 -45.5q50 0 93 17t65 47l54 -46q-68 -88 -216 -88zM132 299h311q0 75 -44 118t-108 43 t-109.5 -45t-49.5 -116z" />
<glyph unicode="&#xeb;" d="M187 618q-19 0 -34.5 15t-15.5 36t15.5 36t34.5 15q20 0 35.5 -15t15.5 -36t-15.5 -36t-35.5 -15zM395 618q-20 0 -35 15t-15 36t15 36t35 15t35.5 -15t15.5 -36t-15.5 -36t-35.5 -15zM298 -12q-99 0 -171.5 70.5t-72.5 200.5q0 125 70 198t167 73t162.5 -65.5 t65.5 -181.5v-50h-387q1 -84 51.5 -129.5t118.5 -45.5q50 0 93 17t65 47l54 -46q-68 -88 -216 -88zM132 299h311q0 75 -44 118t-108 43t-109.5 -45t-49.5 -116z" />
<glyph unicode="&#xec;" horiz-adv-x="247" d="M96 618l-66 109l75 57l64 -166h-73zM85 0v520h77v-520h-77z" />
<glyph unicode="&#xed;" horiz-adv-x="247" d="M85 616l67 167l78 -61l-74 -106h-71zM85 0v520h77v-520h-77z" />
<glyph unicode="&#xee;" horiz-adv-x="247" d="M58 628l-48 35l75 101h78l74 -100l-48 -35l-65 59zM85 0v520h77v-520h-77z" />
<glyph unicode="&#xef;" horiz-adv-x="247" d="M53 645q-20 0 -34 14.5t-14 36.5t14 36.5t34 14.5q21 0 35.5 -14.5t14.5 -36.5t-14.5 -36.5t-35.5 -14.5zM194 644q-21 0 -35 14.5t-14 37.5q0 22 14 36.5t35 14.5q20 0 34 -14.5t14 -36.5q0 -23 -13.5 -37.5t-34.5 -14.5zM85 0v520h77v-520h-77z" />
<glyph unicode="&#xf0;" horiz-adv-x="592" d="M533 279q1 -141 -71 -214.5t-171 -73.5q-92 0 -164.5 69t-72.5 196q0 120 67.5 194.5t170.5 74.5q80 0 117 -33q-4 31 -59 107l-144 -31l-13 53l117 30q-29 33 -61 64l54 55q46 -42 88 -98l110 28l18 -64l-89 -19q102 -166 103 -338zM292 63q60 0 110.5 48.5t50.5 140.5 q0 96 -39.5 148.5t-119.5 52.5q-74 0 -118 -54.5t-44 -142.5q0 -97 50 -145t110 -48z" />
<glyph unicode="&#xf1;" horiz-adv-x="572" d="M107 638q4 38 34 67.5t76 33.5q45 3 88 -19t57 -21q23 1 38 13t19 28l49 -17q-1 -28 -27 -59t-70 -34q-34 -2 -77.5 19.5t-68.5 20.5q-57 -3 -72 -47zM85 0v520h59l13 -71q17 37 61 61.5t95 24.5q85 0 137 -59t52 -164v-312h-78v311q0 152 -128 152q-59 0 -96 -41.5 t-37 -110.5v-311h-78z" />
<glyph unicode="&#xf2;" horiz-adv-x="590" d="M280 610l-110 114l77 61l104 -175h-71zM294 -9q-95 0 -167.5 70t-72.5 199q0 133 71 201.5t169 68.5t170 -69.5t72 -200.5q0 -66 -21.5 -119t-57 -84.5t-77.5 -48.5t-86 -17zM294 63q64 0 115 50.5t51 146.5q0 99 -49.5 149t-116.5 50q-69 0 -116.5 -49t-47.5 -150 q0 -94 50 -145.5t114 -51.5z" />
<glyph unicode="&#xf3;" horiz-adv-x="590" d="M237 608l104 175l77 -61l-110 -114h-71zM294 -9q-95 0 -167.5 70t-72.5 199q0 133 71 201.5t169 68.5t170 -69.5t72 -200.5q0 -66 -21.5 -119t-57 -84.5t-77.5 -48.5t-86 -17zM294 63q64 0 115 50.5t51 146.5q0 99 -49.5 149t-116.5 50q-69 0 -116.5 -49t-47.5 -150 q0 -94 50 -145.5t114 -51.5z" />
<glyph unicode="&#xf4;" horiz-adv-x="590" d="M185 604l-39 36l108 110h77l107 -108l-40 -37l-105 74zM294 -9q-95 0 -167.5 70t-72.5 199q0 133 71 201.5t169 68.5t170 -69.5t72 -200.5q0 -66 -21.5 -119t-57 -84.5t-77.5 -48.5t-86 -17zM294 63q64 0 115 50.5t51 146.5q0 99 -49.5 149t-116.5 50q-69 0 -116.5 -49 t-47.5 -150q0 -94 50 -145.5t114 -51.5z" />
<glyph unicode="&#xf5;" horiz-adv-x="590" d="M112 638q4 38 34 67.5t76 33.5q45 3 88 -19t57 -21q23 1 38 13t19 28l49 -17q-1 -28 -27 -59t-70 -34q-34 -2 -77.5 19.5t-68.5 20.5q-57 -3 -72 -47zM294 -9q-95 0 -167.5 70t-72.5 199q0 133 71 201.5t169 68.5t170 -69.5t72 -200.5q0 -66 -21.5 -119t-57 -84.5 t-77.5 -48.5t-86 -17zM294 63q64 0 115 50.5t51 146.5q0 99 -49.5 149t-116.5 50q-69 0 -116.5 -49t-47.5 -150q0 -94 50 -145.5t114 -51.5z" />
<glyph unicode="&#xf6;" horiz-adv-x="590" d="M190 619q-19 0 -34.5 15t-15.5 36t15.5 36t34.5 15q20 0 35.5 -15t15.5 -36t-15.5 -36t-35.5 -15zM398 619q-20 0 -35 15t-15 36t15 36t35 15t35.5 -15t15.5 -36t-15.5 -36t-35.5 -15zM294 -9q-95 0 -167.5 70t-72.5 199q0 133 71 201.5t169 68.5t170 -69.5t72 -200.5 q0 -66 -21.5 -119t-57 -84.5t-77.5 -48.5t-86 -17zM294 63q64 0 115 50.5t51 146.5q0 99 -49.5 149t-116.5 50q-69 0 -116.5 -49t-47.5 -150q0 -94 50 -145.5t114 -51.5z" />
<glyph unicode="&#xf7;" horiz-adv-x="664" d="M330 450q-22 0 -38 15.5t-16 38.5t16 38.5t38 15.5q21 0 37 -15.5t16 -38.5t-16 -38.5t-37 -15.5zM94 294v73h477v-73h-477zM330 95q-21 0 -37.5 16t-16.5 39t16 39t38 16q21 0 37 -16t16 -39t-16 -39t-37 -16z" />
<glyph unicode="&#xf8;" horiz-adv-x="610" d="M304 -9q-78 0 -140 46l-46 -56l-52 38l52 64q-54 70 -54 177q0 133 71 201.5t169 68.5q79 0 142 -45l49 60l51 -39l-54 -66q54 -72 54 -180q0 -66 -21.5 -119t-57 -84.5t-77.5 -48.5t-86 -17zM140 260q0 -67 28 -116l232 284q-43 31 -96 31q-69 0 -116.5 -49t-47.5 -150z M470 260q0 70 -28 119l-231 -284q41 -32 93 -32q64 0 115 50.5t51 146.5z" />
<glyph unicode="&#xf9;" d="M266 609l-110 114l77 61l104 -175h-71zM268 -11q-85 0 -141.5 57.5t-56.5 163.5v310h79v-310q0 -73 35 -111t95 -38q58 0 94.5 39.5t36.5 109.5v310h78v-520h-59l-12 75q-12 -35 -58 -60.5t-91 -25.5z" />
<glyph unicode="&#xfa;" d="M223 607l104 175l77 -61l-110 -114h-71zM268 -11q-85 0 -141.5 57.5t-56.5 163.5v310h79v-310q0 -73 35 -111t95 -38q58 0 94.5 39.5t36.5 109.5v310h78v-520h-59l-12 75q-12 -35 -58 -60.5t-91 -25.5z" />
<glyph unicode="&#xfb;" d="M171 603l-39 36l108 110h77l107 -108l-40 -37l-105 74zM268 -11q-85 0 -141.5 57.5t-56.5 163.5v310h79v-310q0 -73 35 -111t95 -38q58 0 94.5 39.5t36.5 109.5v310h78v-520h-59l-12 75q-12 -35 -58 -60.5t-91 -25.5z" />
<glyph unicode="&#xfc;" d="M176 618q-19 0 -34.5 15t-15.5 36t15.5 36t34.5 15q20 0 35.5 -15t15.5 -36t-15.5 -36t-35.5 -15zM384 618q-20 0 -35 15t-15 36t15 36t35 15t35.5 -15t15.5 -36t-15.5 -36t-35.5 -15zM268 -11q-85 0 -141.5 57.5t-56.5 163.5v310h79v-310q0 -73 35 -111t95 -38 q58 0 94.5 39.5t36.5 109.5v310h78v-520h-59l-12 75q-12 -35 -58 -60.5t-91 -25.5z" />
<glyph unicode="&#xfd;" horiz-adv-x="518" d="M202 608l104 175l77 -61l-110 -114h-71zM219 -199h-77l77 198v2l-189 519h83l145 -418l147 418h83z" />
<glyph unicode="&#xfe;" horiz-adv-x="606" d="M85 -213v923h76v-267q19 39 69 63.5t100 24.5q39 0 77 -16t71 -47t53 -85t20 -122q0 -134 -66.5 -202t-157.5 -68q-50 0 -100.5 26t-63.5 63v-293h-78zM317 62q63 0 109 49.5t46 149.5q0 101 -45.5 149.5t-109.5 48.5q-60 0 -109.5 -48.5t-49.5 -149.5q0 -97 48 -148 t111 -51z" />
<glyph unicode="&#xff;" horiz-adv-x="518" d="M155 619q-19 0 -34.5 15t-15.5 36t15.5 36t34.5 15q20 0 35.5 -15t15.5 -36t-15.5 -36t-35.5 -15zM363 619q-20 0 -35 15t-15 36t15 36t35 15t35.5 -15t15.5 -36t-15.5 -36t-35.5 -15zM219 -199h-77l77 198v2l-189 519h83l145 -418l147 418h83z" />
<glyph unicode="&#x100;" horiz-adv-x="674" d="M156 806v67h363v-67h-363zM565 0l-68 179h-318l-68 -179h-82l268 710h80l268 -710h-80zM337 598l-131 -346h263z" />
<glyph unicode="&#x101;" horiz-adv-x="532" d="M84 643v67h363v-67h-363zM224 -8q-72 0 -121.5 45.5t-49.5 107.5q0 71 54.5 119t151.5 48q74 0 133 -22v25q0 77 -40.5 110.5t-97.5 33.5q-75 0 -111 -48l-63 32q59 87 181 87q84 0 145.5 -54.5t61.5 -162.5v-313h-62l-10 66q-15 -27 -66.5 -50.5t-105.5 -23.5zM241 59 q45 0 94 31.5t57 63.5v76q-52 15 -133 13q-65 -1 -98 -27.5t-33 -66.5q0 -43 30.5 -66.5t82.5 -23.5z" />
<glyph unicode="&#x102;" horiz-adv-x="674" d="M337 784q-47 0 -94 25.5t-76 65.5l45 43q25 -29 59 -47t66 -18q70 0 123 65l46 -43q-28 -44 -73.5 -67.5t-95.5 -23.5zM565 0l-68 179h-318l-68 -179h-82l268 710h80l268 -710h-80zM337 598l-131 -346h263z" />
<glyph unicode="&#x103;" horiz-adv-x="532" d="M265 620q-47 0 -94 25.5t-76 65.5l45 43q25 -29 59 -47t66 -18q70 0 123 65l46 -43q-28 -44 -73.5 -67.5t-95.5 -23.5zM224 -8q-72 0 -121.5 45.5t-49.5 107.5q0 71 54.5 119t151.5 48q74 0 133 -22v25q0 77 -40.5 110.5t-97.5 33.5q-75 0 -111 -48l-63 32q59 87 181 87 q84 0 145.5 -54.5t61.5 -162.5v-313h-62l-10 66q-15 -27 -66.5 -50.5t-105.5 -23.5zM241 59q45 0 94 31.5t57 63.5v76q-52 15 -133 13q-65 -1 -98 -27.5t-33 -66.5q0 -43 30.5 -66.5t82.5 -23.5z" />
<glyph unicode="&#x104;" horiz-adv-x="674" d="M641 -145v-70h-75q-68 0 -94 46.5t15 95.5q32 41 74 84l-64 168h-318l-68 -179h-82l268 710h80l268 -710l-93 -103q-16 -15 -9.5 -28.5t38.5 -13.5h60zM337 598l-131 -346h263z" />
<glyph unicode="&#x105;" horiz-adv-x="532" d="M463 -145v-70h-75q-68 0 -94 46.5t15 95.5q10 13 85 97q2 4 7 6l-5 36q-15 -27 -66.5 -50.5t-105.5 -23.5q-72 0 -121.5 45.5t-49.5 107.5q0 71 54.5 119t151.5 48q74 0 133 -22v25q0 77 -40.5 110.5t-97.5 33.5q-75 0 -111 -48l-63 32q59 87 181 87q84 0 145.5 -54.5 t61.5 -162.5v-313h-1l-93 -103q-16 -15 -9.5 -28.5t38.5 -13.5h60zM241 59q45 0 94 31.5t57 63.5v76q-52 15 -133 13q-65 -1 -98 -27.5t-33 -66.5q0 -43 30.5 -66.5t82.5 -23.5z" />
<glyph unicode="&#x106;" horiz-adv-x="702" d="M309 790l104 175l77 -61l-110 -114h-71zM366 -10q-56 0 -109.5 20.5t-101 62t-76.5 113.5t-29 164q0 79 19 143t49.5 105.5t72.5 69.5t85.5 40t89.5 12q107 0 187.5 -63.5t96.5 -169.5h-78q-13 72 -71.5 115t-134.5 43q-44 0 -83.5 -15t-75.5 -47t-57.5 -92t-21.5 -141 q0 -75 21.5 -132.5t57.5 -89.5t76 -48t83 -16q76 0 135.5 47.5t72.5 118.5h78q-16 -108 -97.5 -174t-188.5 -66z" />
<glyph unicode="&#x107;" horiz-adv-x="569" d="M239 608l104 175l77 -61l-110 -114h-71zM295 -14q-43 0 -84.5 16.5t-77 48t-57.5 85t-22 119.5q0 65 22 119t57.5 87t77.5 51t85 18q81 0 141.5 -44.5t77.5 -128.5h-79q-31 101 -140 101q-65 0 -115.5 -51.5t-50.5 -153.5q0 -96 51.5 -146t113.5 -50q53 0 89.5 23 t51.5 65h79q-17 -74 -77 -116.5t-143 -42.5z" />
<glyph unicode="&#x10a;" horiz-adv-x="702" d="M357 785q-21 0 -38 15.5t-17 38.5q0 21 17 37.5t38 16.5t37.5 -16.5t16.5 -37.5q0 -23 -16.5 -38.5t-37.5 -15.5zM366 -10q-56 0 -109.5 20.5t-101 62t-76.5 113.5t-29 164q0 79 19 143t49.5 105.5t72.5 69.5t85.5 40t89.5 12q107 0 187.5 -63.5t96.5 -169.5h-78 q-13 72 -71.5 115t-134.5 43q-44 0 -83.5 -15t-75.5 -47t-57.5 -92t-21.5 -141q0 -75 21.5 -132.5t57.5 -89.5t76 -48t83 -16q76 0 135.5 47.5t72.5 118.5h78q-16 -108 -97.5 -174t-188.5 -66z" />
<glyph unicode="&#x10b;" horiz-adv-x="569" d="M297 616q-21 0 -38 15.5t-17 38.5q0 21 17 37.5t38 16.5t37.5 -16.5t16.5 -37.5q0 -23 -16.5 -38.5t-37.5 -15.5zM295 -14q-43 0 -84.5 16.5t-77 48t-57.5 85t-22 119.5q0 65 22 119t57.5 87t77.5 51t85 18q81 0 141.5 -44.5t77.5 -128.5h-79q-31 101 -140 101 q-65 0 -115.5 -51.5t-50.5 -153.5q0 -96 51.5 -146t113.5 -50q53 0 89.5 23t51.5 65h79q-17 -74 -77 -116.5t-143 -42.5z" />
<glyph unicode="&#x10c;" horiz-adv-x="702" d="M318 784l-109 108l39 38l108 -75l107 75l38 -37l-106 -109h-77zM366 -10q-56 0 -109.5 20.5t-101 62t-76.5 113.5t-29 164q0 79 19 143t49.5 105.5t72.5 69.5t85.5 40t89.5 12q107 0 187.5 -63.5t96.5 -169.5h-78q-13 72 -71.5 115t-134.5 43q-44 0 -83.5 -15t-75.5 -47 t-57.5 -92t-21.5 -141q0 -75 21.5 -132.5t57.5 -89.5t76 -48t83 -16q76 0 135.5 47.5t72.5 118.5h78q-16 -108 -97.5 -174t-188.5 -66z" />
<glyph unicode="&#x10d;" horiz-adv-x="569" d="M258 618l-109 108l39 38l108 -75l107 75l38 -37l-106 -109h-77zM295 -14q-43 0 -84.5 16.5t-77 48t-57.5 85t-22 119.5q0 65 22 119t57.5 87t77.5 51t85 18q81 0 141.5 -44.5t77.5 -128.5h-79q-31 101 -140 101q-65 0 -115.5 -51.5t-50.5 -153.5q0 -96 51.5 -146 t113.5 -50q53 0 89.5 23t51.5 65h79q-17 -74 -77 -116.5t-143 -42.5z" />
<glyph unicode="&#x10e;" horiz-adv-x="683" d="M297 783l-109 108l39 38l108 -75l107 75l38 -37l-106 -109h-77zM83 0v710h225q140 0 233.5 -91.5t93.5 -262.5q0 -178 -91.5 -267t-235.5 -89h-225zM160 74h148q116 0 183 70.5t67 211.5q0 138 -70 209t-180 71h-148v-562z" />
<glyph unicode="&#x10f;" horiz-adv-x="703" d="M619 710h74l-34 -170h-61zM282 -9q-87 0 -157 71.5t-70 201.5q0 128 68 197t159 69q47 0 95 -28.5t62 -65.5v274h80v-710h-65l-10 84q-16 -40 -63 -66.5t-99 -26.5zM293 62q57 0 104.5 52.5t47.5 148.5q0 91 -45 143t-106 52q-65 0 -112.5 -47.5t-47.5 -147.5 q0 -103 50 -152t109 -49z" />
<glyph unicode="&#x110;" horiz-adv-x="717" d="M677 356q0 -178 -91.5 -267t-235.5 -89h-225v318h-102v73h102v319h225q140 0 233.5 -91.5t93.5 -262.5zM202 74h148q116 0 183 70.5t67 211.5q0 138 -70 209t-180 71h-148v-245h155v-73h-155v-244z" />
<glyph unicode="&#x111;" horiz-adv-x="622" d="M454 84q-16 -40 -66.5 -66.5t-102.5 -26.5q-87 0 -158.5 71.5t-71.5 201.5q0 128 69.5 197t160.5 69q48 0 99 -28.5t65 -65.5v166h-153v66h153v96h80v-96h79v-66h-79v-602h-65zM296 62q57 0 106 52.5t49 148.5q0 91 -46.5 143t-107.5 52q-66 0 -114.5 -48t-48.5 -147 q0 -54 16 -95t41.5 -63t52 -32.5t52.5 -10.5z" />
<glyph unicode="&#x112;" horiz-adv-x="602" d="M129 806v67h363v-67h-363zM86 0v710h443v-73h-366v-240h291v-74h-291v-250h375v-73h-452z" />
<glyph unicode="&#x113;" d="M110 642v67h363v-67h-363zM298 -12q-99 0 -171.5 70.5t-72.5 200.5q0 125 70 198t167 73t162.5 -65.5t65.5 -181.5v-50h-387q1 -84 51.5 -129.5t118.5 -45.5q50 0 93 17t65 47l54 -46q-68 -88 -216 -88zM132 299h311q0 75 -44 118t-108 43t-109.5 -45t-49.5 -116z" />
<glyph unicode="&#x114;" horiz-adv-x="602" d="M310 784q-47 0 -94 25.5t-76 65.5l45 43q25 -29 59 -47t66 -18q70 0 123 65l46 -43q-28 -44 -73.5 -67.5t-95.5 -23.5zM86 0v710h443v-73h-366v-240h291v-74h-291v-250h375v-73h-452z" />
<glyph unicode="&#x115;" d="M291 619q-47 0 -94 25.5t-76 65.5l45 43q25 -29 59 -47t66 -18q70 0 123 65l46 -43q-28 -44 -73.5 -67.5t-95.5 -23.5zM298 -12q-99 0 -171.5 70.5t-72.5 200.5q0 125 70 198t167 73t162.5 -65.5t65.5 -181.5v-50h-387q1 -84 51.5 -129.5t118.5 -45.5q50 0 93 17t65 47 l54 -46q-68 -88 -216 -88zM132 299h311q0 75 -44 118t-108 43t-109.5 -45t-49.5 -116z" />
<glyph unicode="&#x116;" horiz-adv-x="602" d="M311 785q-21 0 -38 15.5t-17 38.5q0 21 17 37.5t38 16.5t37.5 -16.5t16.5 -37.5q0 -23 -16.5 -38.5t-37.5 -15.5zM86 0v710h443v-73h-366v-240h291v-74h-291v-250h375v-73h-452z" />
<glyph unicode="&#x117;" d="M292 615q-21 0 -38 15.5t-17 38.5q0 21 17 37.5t38 16.5t37.5 -16.5t16.5 -37.5q0 -23 -16.5 -38.5t-37.5 -15.5zM298 -12q-99 0 -171.5 70.5t-72.5 200.5q0 125 70 198t167 73t162.5 -65.5t65.5 -181.5v-50h-387q1 -84 51.5 -129.5t118.5 -45.5q50 0 93 17t65 47l54 -46 q-68 -88 -216 -88zM132 299h311q0 75 -44 118t-108 43t-109.5 -45t-49.5 -116z" />
<glyph unicode="&#x118;" horiz-adv-x="602" d="M534 -145v-70h-75q-68 0 -94 46.5t15 95.5q6 8 63 73h-357v710h443v-73h-366v-240h291v-74h-291v-250h375v-73l-93 -103q-16 -15 -9.5 -28.5t38.5 -13.5h60z" />
<glyph unicode="&#x119;" d="M460 -114l-1 -70h-75q-68 0 -93.5 47t15.5 95q11 14 26 31q-11 -1 -34 -1q-99 0 -171.5 70.5t-72.5 200.5q0 125 70 198t167 73t162.5 -65.5t65.5 -181.5v-50h-387q1 -84 51.5 -129.5t118.5 -45.5q50 0 93 17t65 47l54 -46q-21 -27 -52 -47l-91 -101q-16 -15 -9.5 -28.5 t38.5 -13.5h60zM132 299h311q0 75 -44 118t-108 43t-109.5 -45t-49.5 -116z" />
<glyph unicode="&#x11a;" horiz-adv-x="602" d="M272 784l-109 108l39 38l108 -75l107 75l38 -37l-106 -109h-77zM86 0v710h443v-73h-366v-240h291v-74h-291v-250h375v-73h-452z" />
<glyph unicode="&#x11b;" d="M253 617l-109 108l39 38l108 -75l107 75l38 -37l-106 -109h-77zM298 -12q-99 0 -171.5 70.5t-72.5 200.5q0 125 70 198t167 73t162.5 -65.5t65.5 -181.5v-50h-387q1 -84 51.5 -129.5t118.5 -45.5q50 0 93 17t65 47l54 -46q-68 -88 -216 -88zM132 299h311q0 75 -44 118 t-108 43t-109.5 -45t-49.5 -116z" />
<glyph unicode="&#x11e;" horiz-adv-x="702" d="M352 780q-47 0 -94 25.5t-76 65.5l45 43q25 -29 59 -47t66 -18q70 0 123 65l46 -43q-28 -44 -73.5 -67.5t-95.5 -23.5zM354 -11q-56 0 -107 19t-96.5 59t-73 115.5t-27.5 176.5q0 92 27 163.5t71.5 113.5t97 63t108.5 21q108 0 191 -61.5t96 -158.5h-77 q-9 57 -69.5 101.5t-140.5 44.5q-42 0 -80 -16t-72 -48.5t-54 -90t-20 -133.5q0 -81 20 -141t54 -92t71.5 -47t80.5 -15q94 0 157 57.5t63 178.5h-186v72h262v-66q0 -68 -17 -122.5t-45 -90t-67 -59.5t-80 -34t-87 -10z" />
<glyph unicode="&#x11f;" horiz-adv-x="597" d="M299 619q-47 0 -94 25.5t-76 65.5l45 43q25 -29 59 -47t66 -18q70 0 123 65l46 -43q-28 -44 -73.5 -67.5t-95.5 -23.5zM289 -231q-62 0 -118 25t-87 70l68 37q49 -58 136 -58q71 0 111.5 41.5t40.5 115.5v81q-14 -38 -59 -64t-100 -26q-90 0 -154.5 72.5t-64.5 195.5 q0 127 66.5 200t156.5 73q54 0 96.5 -23t58.5 -59l12 70h67v-519q0 -107 -65 -169.5t-165 -62.5zM293 63q67 0 110 52.5t43 143.5q0 103 -41.5 151.5t-111.5 48.5q-66 0 -109.5 -51.5t-43.5 -149.5q-1 -93 43 -144t110 -51z" />
<glyph unicode="&#x120;" horiz-adv-x="702" d="M353 781q-21 0 -38 15.5t-17 38.5q0 21 17 37.5t38 16.5t37.5 -16.5t16.5 -37.5q0 -23 -16.5 -38.5t-37.5 -15.5zM354 -11q-56 0 -107 19t-96.5 59t-73 115.5t-27.5 176.5q0 92 27 163.5t71.5 113.5t97 63t108.5 21q108 0 191 -61.5t96 -158.5h-77q-9 57 -69.5 101.5 t-140.5 44.5q-42 0 -80 -16t-72 -48.5t-54 -90t-20 -133.5q0 -81 20 -141t54 -92t71.5 -47t80.5 -15q94 0 157 57.5t63 178.5h-186v72h262v-66q0 -68 -17 -122.5t-45 -90t-67 -59.5t-80 -34t-87 -10z" />
<glyph unicode="&#x121;" horiz-adv-x="597" d="M300 615q-21 0 -38 15.5t-17 38.5q0 21 17 37.5t38 16.5t37.5 -16.5t16.5 -37.5q0 -23 -16.5 -38.5t-37.5 -15.5zM289 -231q-62 0 -118 25t-87 70l68 37q49 -58 136 -58q71 0 111.5 41.5t40.5 115.5v81q-14 -38 -59 -64t-100 -26q-90 0 -154.5 72.5t-64.5 195.5 q0 127 66.5 200t156.5 73q54 0 96.5 -23t58.5 -59l12 70h67v-519q0 -107 -65 -169.5t-165 -62.5zM293 63q67 0 110 52.5t43 143.5q0 103 -41.5 151.5t-111.5 48.5q-66 0 -109.5 -51.5t-43.5 -149.5q-1 -93 43 -144t110 -51z" />
<glyph unicode="&#x122;" horiz-adv-x="702" d="M354 -11q-56 0 -107 19t-96.5 59t-73 115.5t-27.5 176.5q0 92 27 163.5t71.5 113.5t97 63t108.5 21q108 0 191 -61.5t96 -158.5h-77q-9 57 -69.5 101.5t-140.5 44.5q-42 0 -80 -16t-72 -48.5t-54 -90t-20 -133.5q0 -81 20 -141t54 -92t71.5 -47t80.5 -15q94 0 157 57.5 t63 178.5h-186v72h262v-66q0 -68 -17 -122.5t-45 -90t-67 -59.5t-80 -34t-87 -10zM292 -214l22 151h90l-40 -151h-72z" />
<glyph unicode="&#x123;" horiz-adv-x="597" d="M360 756l-22 -151h-90l40 151h72zM289 -231q-62 0 -118 25t-87 70l68 37q49 -58 136 -58q71 0 111.5 41.5t40.5 115.5v81q-14 -38 -59 -64t-100 -26q-90 0 -154.5 72.5t-64.5 195.5q0 127 66.5 200t156.5 73q54 0 96.5 -23t58.5 -59l12 70h67v-519q0 -107 -65 -169.5 t-165 -62.5zM293 63q67 0 110 52.5t43 143.5q0 103 -41.5 151.5t-111.5 48.5q-66 0 -109.5 -51.5t-43.5 -149.5q-1 -93 43 -144t110 -51z" />
<glyph unicode="&#x126;" horiz-adv-x="678" d="M168 318v-318h-77v531h-82v67h82v112h77v-112h347v112h77v-112h77v-67h-77v-531h-77v318h-347zM168 392h347v139h-347v-139z" />
<glyph unicode="&#x127;" horiz-adv-x="582" d="M165 295v-295h-78v610h-88v63h88v91h78v-91h136v-63h-136v-170q12 36 56 63t90 27q93 0 144.5 -59.5t51.5 -175.5v-295h-79v295q0 87 -31 125t-95 38q-59 0 -98 -45t-39 -118z" />
<glyph unicode="&#x12a;" horiz-adv-x="247" d="M18 799v67h212v-67h-212zM85 0v710h77v-710h-77z" />
<glyph unicode="&#x12b;" horiz-adv-x="247" d="M21 655v77h205v-77h-205zM85 0v520h77v-520h-77z" />
<glyph unicode="&#x12c;" horiz-adv-x="247" d="M123 766q-42 0 -79 28.5t-52 72.5l48 26q30 -59 83 -59q27 0 49 16t33 43l51 -21q-12 -48 -50 -77t-83 -29zM85 0v710h77v-710h-77z" />
<glyph unicode="&#x12d;" horiz-adv-x="247" d="M123 634q-43 0 -80 28.5t-51 72.5l48 26q27 -58 83 -58q57 0 82 58l50 -21q-12 -48 -49.5 -77t-82.5 -29zM85 0v520h77v-520h-77z" />
<glyph unicode="&#x12e;" horiz-adv-x="247" d="M158 -145v-70h-75q-68 0 -94 46.5t15 95.5q11 13 44.5 51.5t36.5 41.5v690h77v-710l-93 -103q-16 -15 -9.5 -28.5t38.5 -13.5h60z" />
<glyph unicode="&#x12f;" horiz-adv-x="261" d="M124 622q-20 0 -35.5 14t-15.5 36q0 21 15.5 35t35.5 14q21 0 36.5 -14t15.5 -35q0 -22 -15.5 -36t-36.5 -14zM163 -144v-70h-75q-68 0 -94 46.5t15 95.5q11 13 44.5 51.5t36.5 41.5v499h77v-520h-1l-92 -102q-16 -15 -9.5 -28.5t38.5 -13.5h60z" />
<glyph unicode="&#x130;" horiz-adv-x="247" d="M119 786q-21 0 -38 15.5t-17 38.5q0 21 17 37.5t38 16.5t37.5 -16.5t16.5 -37.5q0 -23 -16.5 -38.5t-37.5 -15.5zM85 0v710h77v-710h-77z" />
<glyph unicode="&#x131;" horiz-adv-x="247" d="M85 0v520h77v-520h-77z" />
<glyph unicode="&#x136;" horiz-adv-x="646" d="M86 0v710h77v-377l340 377h103l-283 -313l294 -397h-95l-251 340l-108 -120v-220h-77zM266 -241l22 151h90l-40 -151h-72z" />
<glyph unicode="&#x137;" horiz-adv-x="534" d="M85 0v710h78v-421l226 231h104l-211 -216l232 -304h-93l-193 253l-65 -63v-190h-78zM223 -243l22 151h90l-40 -151h-72z" />
<glyph unicode="&#x139;" horiz-adv-x="560" d="M92 795l104 175l77 -61l-110 -114h-71zM86 0v710h77v-636h352v-74h-429z" />
<glyph unicode="&#x13a;" horiz-adv-x="248" d="M83 764l64 144l77 -61l-70 -83h-71zM85 0v710h78v-710h-78z" />
<glyph unicode="&#x13b;" horiz-adv-x="560" d="M86 0v710h77v-636h352v-74h-429zM220 -243l22 151h90l-40 -151h-72z" />
<glyph unicode="&#x13c;" horiz-adv-x="248" d="M85 0v710h78v-710h-78zM54 -234l22 151h90l-40 -151h-72z" />
<glyph unicode="&#x13d;" horiz-adv-x="559" d="M467 710h87l-41 -196h-69zM85 0v710h77v-636h352v-74h-429z" />
<glyph unicode="&#x13e;" horiz-adv-x="370" d="M308 720h87l-61 -188h-69zM85 0v710h78v-710h-78z" />
<glyph unicode="&#x13f;" horiz-adv-x="560" d="M86 0v710h77v-636h352v-74h-429zM426 331q-21 0 -38 15.5t-17 38.5q0 21 17 37.5t38 16.5t37.5 -16.5t16.5 -37.5q0 -23 -16.5 -38.5t-37.5 -15.5z" />
<glyph unicode="&#x140;" horiz-adv-x="411" d="M85 0v710h78v-710h-78zM315 297q-21 0 -37 15t-16 38t16 39t37 16t37.5 -16t16.5 -39t-16 -38t-38 -15z" />
<glyph unicode="&#x141;" horiz-adv-x="584" d="M539 74v-74h-429v277l-73 -38l-31 65l104 53v353h77v-313l175 90l31 -64l-206 -106v-243h352z" />
<glyph unicode="&#x142;" horiz-adv-x="299" d="M282 434l-95 -46v-388h-78v350l-58 -28l-34 67l92 45v276h78v-237l62 30z" />
<glyph unicode="&#x143;" horiz-adv-x="705" d="M307 776l104 175l77 -61l-110 -114h-71zM85 0v710h91l367 -586v586h77v-710h-93l-365 583v-583h-77z" />
<glyph unicode="&#x144;" horiz-adv-x="572" d="M232 608l104 175l77 -61l-110 -114h-71zM85 0v520h59l13 -71q17 37 61 61.5t95 24.5q85 0 137 -59t52 -164v-312h-78v311q0 152 -128 152q-59 0 -96 -41.5t-37 -110.5v-311h-78z" />
<glyph unicode="&#x145;" horiz-adv-x="705" d="M85 0v710h91l367 -586v586h77v-710h-93l-365 583v-583h-77zM281 -194l22 151h90l-40 -151h-72z" />
<glyph unicode="&#x146;" horiz-adv-x="572" d="M85 0v520h59l13 -71q17 37 61 61.5t95 24.5q85 0 137 -59t52 -164v-312h-78v311q0 152 -128 152q-59 0 -96 -41.5t-37 -110.5v-311h-78zM228 -238l22 151h90l-40 -151h-72z" />
<glyph unicode="&#x147;" horiz-adv-x="705" d="M316 770l-109 108l39 38l108 -75l107 75l38 -37l-106 -109h-77zM85 0v710h91l367 -586v586h77v-710h-93l-365 583v-583h-77z" />
<glyph unicode="&#x148;" horiz-adv-x="572" d="M251 618l-109 108l39 38l108 -75l107 75l38 -37l-106 -109h-77zM85 0v520h59l13 -71q17 37 61 61.5t95 24.5q85 0 137 -59t52 -164v-312h-78v311q0 152 -128 152q-59 0 -96 -41.5t-37 -110.5v-311h-78z" />
<glyph unicode="&#x14c;" horiz-adv-x="702" d="M171 802v67h363v-67h-363zM351 -8q-57 0 -109 21t-96 63.5t-70 115.5t-26 168q0 174 88 266.5t213 92.5q59 0 112 -22.5t95.5 -65t68 -113t25.5 -158.5q0 -92 -25.5 -164t-68.5 -115.5t-95.5 -66t-111.5 -22.5zM351 66q93 0 159 74.5t66 219.5q0 141 -66.5 213t-158.5 72 q-94 0 -159 -72t-65 -213q0 -149 65 -221.5t159 -72.5z" />
<glyph unicode="&#x14d;" horiz-adv-x="590" d="M113 643v67h363v-67h-363zM294 -9q-95 0 -167.5 70t-72.5 199q0 133 71 201.5t169 68.5t170 -69.5t72 -200.5q0 -66 -21.5 -119t-57 -84.5t-77.5 -48.5t-86 -17zM294 63q64 0 115 50.5t51 146.5q0 99 -49.5 149t-116.5 50q-69 0 -116.5 -49t-47.5 -150q0 -94 50 -145.5 t114 -51.5z" />
<glyph unicode="&#x14e;" horiz-adv-x="702" d="M352 780q-47 0 -94 25.5t-76 65.5l45 43q25 -29 59 -47t66 -18q70 0 123 65l46 -43q-28 -44 -73.5 -67.5t-95.5 -23.5zM351 -8q-57 0 -109 21t-96 63.5t-70 115.5t-26 168q0 174 88 266.5t213 92.5q59 0 112 -22.5t95.5 -65t68 -113t25.5 -158.5q0 -92 -25.5 -164 t-68.5 -115.5t-95.5 -66t-111.5 -22.5zM351 66q93 0 159 74.5t66 219.5q0 141 -66.5 213t-158.5 72q-94 0 -159 -72t-65 -213q0 -149 65 -221.5t159 -72.5z" />
<glyph unicode="&#x14f;" horiz-adv-x="590" d="M294 620q-47 0 -94 25.5t-76 65.5l45 43q25 -29 59 -47t66 -18q70 0 123 65l46 -43q-28 -44 -73.5 -67.5t-95.5 -23.5zM294 -9q-95 0 -167.5 70t-72.5 199q0 133 71 201.5t169 68.5t170 -69.5t72 -200.5q0 -66 -21.5 -119t-57 -84.5t-77.5 -48.5t-86 -17zM294 63 q64 0 115 50.5t51 146.5q0 99 -49.5 149t-116.5 50q-69 0 -116.5 -49t-47.5 -150q0 -94 50 -145.5t114 -51.5z" />
<glyph unicode="&#x150;" horiz-adv-x="702" d="M301 783h-67l85 174l74 -45zM454 783h-67l85 174l75 -45zM351 -8q-57 0 -109 21t-96 63.5t-70 115.5t-26 168q0 174 88 266.5t213 92.5q59 0 112 -22.5t95.5 -65t68 -113t25.5 -158.5q0 -92 -25.5 -164t-68.5 -115.5t-95.5 -66t-111.5 -22.5zM351 66q93 0 159 74.5 t66 219.5q0 141 -66.5 213t-158.5 72q-94 0 -159 -72t-65 -213q0 -149 65 -221.5t159 -72.5z" />
<glyph unicode="&#x151;" horiz-adv-x="590" d="M235 608h-67l85 174l74 -45zM388 608h-67l85 174l75 -45zM294 -9q-95 0 -167.5 70t-72.5 199q0 133 71 201.5t169 68.5t170 -69.5t72 -200.5q0 -66 -21.5 -119t-57 -84.5t-77.5 -48.5t-86 -17zM294 63q64 0 115 50.5t51 146.5q0 99 -49.5 149t-116.5 50q-69 0 -116.5 -49 t-47.5 -150q0 -94 50 -145.5t114 -51.5z" />
<glyph unicode="&#x152;" horiz-adv-x="997" d="M521 0v77q-82 -85 -204 -85q-57 0 -109 21t-96 63.5t-70 115.5t-26 168q0 174 88 266.5t213 92.5q121 0 204 -84v75h443v-73h-366v-134q14 -46 19 -106h272v-74h-272q-5 -64 -19 -110v-140h375v-73h-452zM93 360q0 -149 65 -221.5t159 -72.5q66 0 121.5 39.5t82.5 116.5 v271q-27 76 -82.5 114t-121.5 38q-94 0 -159 -72t-65 -213z" />
<glyph unicode="&#x153;" horiz-adv-x="872" d="M867 76q-68 -88 -216 -88q-58 0 -111 26.5t-87 76.5q-35 -49 -86.5 -74.5t-106.5 -25.5q-95 0 -167.5 70t-72.5 199q0 133 71 201.5t169 68.5q57 0 109 -25.5t86 -74.5q33 48 83 74t106 26q97 0 162.5 -65.5t65.5 -181.5v-50h-371q-1 -29 -9 -54q16 -59 62 -90t101 -31 q50 0 93 17t65 47zM644 460q-53 0 -94 -32t-57 -85q6 -28 7 -44h296q0 75 -44 118t-108 43zM96 260q0 -94 50 -145.5t114 -51.5q49 0 92.5 30.5t62.5 89.5q-8 37 -8 76q0 43 9 79q-18 61 -61.5 91t-94.5 30q-69 0 -116.5 -49t-47.5 -150z" />
<glyph unicode="&#x154;" horiz-adv-x="635" d="M262 789l104 175l77 -61l-110 -114h-71zM85 0v710h241q113 0 175.5 -57.5t62.5 -148.5q0 -75 -41.5 -126t-97.5 -65l147 -313h-85l-139 297h-186v-297h-77zM162 370h163q72 0 116 36t44 98t-43 97t-117 35h-163v-266z" />
<glyph unicode="&#x155;" horiz-adv-x="386" d="M148 611l104 175l77 -61l-110 -114h-71zM85 0v520h59l13 -66q18 32 58 54t80 22q13 0 35.5 -1.5t31.5 -1.5v-74q-50 4 -71 4q-59 0 -93.5 -39.5t-34.5 -116.5v-301h-78z" />
<glyph unicode="&#x156;" horiz-adv-x="635" d="M85 0v710h241q113 0 175.5 -57.5t62.5 -148.5q0 -75 -41.5 -126t-97.5 -65l147 -313h-85l-139 297h-186v-297h-77zM162 370h163q72 0 116 36t44 98t-43 97t-117 35h-163v-266zM252 -194l22 151h90l-40 -151h-72z" />
<glyph unicode="&#x157;" horiz-adv-x="386" d="M85 0v520h59l13 -66q18 32 58 54t80 22q13 0 35.5 -1.5t31.5 -1.5v-74q-50 4 -71 4q-59 0 -93.5 -39.5t-34.5 -116.5v-301h-78zM67 -216l22 151h90l-40 -151h-72z" />
<glyph unicode="&#x158;" horiz-adv-x="635" d="M271 783l-109 108l39 38l108 -75l107 75l38 -37l-106 -109h-77zM85 0v710h241q113 0 175.5 -57.5t62.5 -148.5q0 -75 -41.5 -126t-97.5 -65l147 -313h-85l-139 297h-186v-297h-77zM162 370h163q72 0 116 36t44 98t-43 97t-117 35h-163v-266z" />
<glyph unicode="&#x159;" horiz-adv-x="386" d="M167 621l-109 108l39 38l108 -75l107 75l38 -37l-106 -109h-77zM85 0v520h59l13 -66q18 32 58 54t80 22q13 0 35.5 -1.5t31.5 -1.5v-74q-50 4 -71 4q-59 0 -93.5 -39.5t-34.5 -116.5v-301h-78z" />
<glyph unicode="&#x15a;" horiz-adv-x="585" d="M250 787l104 175l77 -61l-110 -114h-71zM298 -9q-151 0 -254 128l55 47q43 -50 88.5 -75t108.5 -25q75 0 116.5 34.5t41.5 98.5q0 70 -44 97t-135 38q-80 10 -140 58.5t-60 129.5q0 91 61 144.5t168 53.5q132 0 209 -89l-56 -49q-49 64 -162 64q-66 0 -105 -31.5 t-39 -90.5q0 -55 42.5 -80t125.5 -36q92 -12 152 -61.5t60 -146.5q0 -102 -64.5 -155.5t-168.5 -53.5z" />
<glyph unicode="&#x15b;" horiz-adv-x="502" d="M199 605l104 175l77 -61l-110 -114h-71zM253 -12q-115 0 -204 75l49 56q66 -57 154 -57q59 0 93 22t34 62q0 42 -33 59.5t-125 26.5q-67 7 -110.5 43t-43.5 103q0 63 55.5 107.5t135.5 44.5q117 0 177 -62l-49 -54q-6 5 -17 13t-44.5 21t-67.5 13q-48 0 -81 -21.5 t-33 -55.5q0 -42 30 -57.5t101 -22.5q183 -17 183 -158q0 -70 -56.5 -114t-147.5 -44z" />
<glyph unicode="&#x15e;" horiz-adv-x="585" d="M407 -145q0 -45 -30 -75t-86 -30q-36 0 -92 24l23 60q43 -18 70 -18q20 0 34.5 10.5t14.5 28.5q0 37 -63 44l-39 4l19 90q-124 15 -214 126l55 47q43 -50 88.5 -75t108.5 -25q75 0 116.5 34.5t41.5 98.5q0 70 -44 97t-135 38q-80 10 -140 58.5t-60 129.5q0 91 61 144.5 t168 53.5q132 0 209 -89l-56 -49q-49 64 -162 64q-66 0 -105 -31.5t-39 -90.5q0 -55 42.5 -80t125.5 -36q92 -12 152 -61.5t60 -146.5q0 -99 -60.5 -152.5t-160.5 -56.5l-5 -30q44 -5 73 -33.5t29 -72.5z" />
<glyph unicode="&#x15f;" horiz-adv-x="502" d="M361 -151q0 -45 -30 -75t-86 -30q-36 0 -92 24l23 60q43 -18 70 -18q20 0 34.5 10.5t14.5 28.5q0 37 -63 44l-39 4l20 94q-91 10 -164 72l49 56q66 -57 154 -57q59 0 93 22t34 62q0 42 -33 59.5t-125 26.5q-67 7 -110.5 43t-43.5 103q0 63 55.5 107.5t135.5 44.5 q117 0 177 -62l-49 -54q-6 5 -17 13t-44.5 21t-67.5 13q-48 0 -81 -21.5t-33 -55.5q0 -42 30 -57.5t101 -22.5q183 -17 183 -158q0 -68 -53.5 -111.5t-139.5 -46.5l-5 -33q44 -5 73 -33.5t29 -72.5z" />
<glyph unicode="&#x160;" horiz-adv-x="585" d="M259 781l-109 108l39 38l108 -75l107 75l38 -37l-106 -109h-77zM298 -9q-151 0 -254 128l55 47q43 -50 88.5 -75t108.5 -25q75 0 116.5 34.5t41.5 98.5q0 70 -44 97t-135 38q-80 10 -140 58.5t-60 129.5q0 91 61 144.5t168 53.5q132 0 209 -89l-56 -49q-49 64 -162 64 q-66 0 -105 -31.5t-39 -90.5q0 -55 42.5 -80t125.5 -36q92 -12 152 -61.5t60 -146.5q0 -102 -64.5 -155.5t-168.5 -53.5z" />
<glyph unicode="&#x161;" horiz-adv-x="502" d="M218 615l-109 108l39 38l108 -75l107 75l38 -37l-106 -109h-77zM253 -12q-115 0 -204 75l49 56q66 -57 154 -57q59 0 93 22t34 62q0 42 -33 59.5t-125 26.5q-67 7 -110.5 43t-43.5 103q0 63 55.5 107.5t135.5 44.5q117 0 177 -62l-49 -54q-6 5 -17 13t-44.5 21t-67.5 13 q-48 0 -81 -21.5t-33 -55.5q0 -42 30 -57.5t101 -22.5q183 -17 183 -158q0 -70 -56.5 -114t-147.5 -44z" />
<glyph unicode="&#x162;" horiz-adv-x="589" d="M401 -148q0 -45 -30 -75t-86 -30q-36 0 -92 24l23 60q43 -18 70 -18q20 0 34.5 10.5t14.5 28.5q0 37 -63 44l-39 4l22 102v634h-208v74h495v-74h-209v-636h-27l-7 -42q44 -5 73 -33.5t29 -72.5z" />
<glyph unicode="&#x163;" horiz-adv-x="358" d="M324 -128q0 -45 -30 -75t-86 -30q-36 0 -92 24l23 60q43 -18 70 -18q20 0 34.5 10.5t14.5 28.5q0 37 -63 44l-39 4l22 102h2q-63 43 -63 135v293h-87v70h82l25 145h57v-145h124v-70h-124v-285q0 -97 87 -97q26 0 37 1v-69q-18 -4 -50 -4q-20 0 -42 5l-4 -23 q44 -5 73 -33.5t29 -72.5z" />
<glyph unicode="&#x164;" horiz-adv-x="589" d="M254 783l-109 108l39 38l108 -75l107 75l38 -37l-106 -109h-77zM255 0v636h-208v74h495v-74h-209v-636h-78z" />
<glyph unicode="&#x165;" horiz-adv-x="456" d="M389 795h87l-51 -186h-69zM117 157v293h-87v70h82l25 145h57v-145h124v-70h-124v-285q0 -97 87 -97q26 0 37 1v-69q-18 -4 -50 -4q-63 0 -107 41t-44 120z" />
<glyph unicode="&#x16a;" horiz-adv-x="663" d="M150 786v67h363v-67h-363zM332 -11q-121 0 -194.5 78.5t-73.5 222.5v420h77v-421q0 -112 52.5 -169t138.5 -57q87 0 139 57.5t52 168.5v421h76v-420q0 -143 -72.5 -222t-194.5 -79z" />
<glyph unicode="&#x16b;" d="M99 642v67h363v-67h-363zM268 -11q-85 0 -141.5 57.5t-56.5 163.5v310h79v-310q0 -73 35 -111t95 -38q58 0 94.5 39.5t36.5 109.5v310h78v-520h-59l-12 75q-12 -35 -58 -60.5t-91 -25.5z" />
<glyph unicode="&#x16c;" horiz-adv-x="663" d="M331 764q-47 0 -94 25.5t-76 65.5l45 43q25 -29 59 -47t66 -18q70 0 123 65l46 -43q-28 -44 -73.5 -67.5t-95.5 -23.5zM332 -11q-121 0 -194.5 78.5t-73.5 222.5v420h77v-421q0 -112 52.5 -169t138.5 -57q87 0 139 57.5t52 168.5v421h76v-420q0 -143 -72.5 -222 t-194.5 -79z" />
<glyph unicode="&#x16d;" d="M280 619q-47 0 -94 25.5t-76 65.5l45 43q25 -29 59 -47t66 -18q70 0 123 65l46 -43q-28 -44 -73.5 -67.5t-95.5 -23.5zM268 -11q-85 0 -141.5 57.5t-56.5 163.5v310h79v-310q0 -73 35 -111t95 -38q58 0 94.5 39.5t36.5 109.5v310h78v-520h-59l-12 75q-12 -35 -58 -60.5 t-91 -25.5z" />
<glyph unicode="&#x16e;" horiz-adv-x="663" d="M332 724q-45 0 -79 33t-34 79q0 45 34.5 79t78.5 34q43 0 77.5 -34t34.5 -79q0 -46 -34 -79t-78 -33zM332 778q25 0 41 16t16 41q0 24 -16.5 41.5t-40.5 17.5t-41 -17.5t-17 -41.5q0 -25 16.5 -41t41.5 -16zM332 -11q-121 0 -194.5 78.5t-73.5 222.5v420h77v-421 q0 -112 52.5 -169t138.5 -57q87 0 139 57.5t52 168.5v421h76v-420q0 -143 -72.5 -222t-194.5 -79z" />
<glyph unicode="&#x16f;" d="M281 593q-45 0 -79 33t-34 79q0 45 34.5 79t78.5 34q43 0 77.5 -34t34.5 -79q0 -46 -34 -79t-78 -33zM281 647q25 0 41 16t16 41q0 24 -16.5 41.5t-40.5 17.5t-41 -17.5t-17 -41.5q0 -25 16.5 -41t41.5 -16zM268 -11q-85 0 -141.5 57.5t-56.5 163.5v310h79v-310 q0 -73 35 -111t95 -38q58 0 94.5 39.5t36.5 109.5v310h78v-520h-59l-12 75q-12 -35 -58 -60.5t-91 -25.5z" />
<glyph unicode="&#x170;" horiz-adv-x="663" d="M280 767h-67l85 174l74 -45zM433 767h-67l85 174l75 -45zM332 -11q-121 0 -194.5 78.5t-73.5 222.5v420h77v-421q0 -112 52.5 -169t138.5 -57q87 0 139 57.5t52 168.5v421h76v-420q0 -143 -72.5 -222t-194.5 -79z" />
<glyph unicode="&#x171;" d="M221 607h-67l85 174l74 -45zM374 607h-67l85 174l75 -45zM268 -11q-85 0 -141.5 57.5t-56.5 163.5v310h79v-310q0 -73 35 -111t95 -38q58 0 94.5 39.5t36.5 109.5v310h78v-520h-59l-12 75q-12 -35 -58 -60.5t-91 -25.5z" />
<glyph unicode="&#x172;" horiz-adv-x="663" d="M437 -135v-70h-75q-68 0 -94 46.5t15 95.5q21 25 45 52q-119 2 -191.5 80t-72.5 221v420h77v-421q0 -112 52.5 -169t138.5 -57q87 0 139 57.5t52 168.5v421h76v-420q0 -108 -42 -180t-118 -102l-91 -101q-16 -15 -9.5 -28.5t38.5 -13.5h60z" />
<glyph unicode="&#x173;" d="M484 -145v-70h-75q-68 0 -94 46.5t15 95.5q10 13 85 97q1 2 9 7l-7 44q-12 -35 -58 -60.5t-91 -25.5q-85 0 -141.5 57.5t-56.5 163.5v310h79v-310q0 -73 35 -111t95 -38q58 0 94.5 39.5t36.5 109.5v310h78v-520l-93 -103q-16 -15 -9.5 -28.5t38.5 -13.5h60z" />
<glyph unicode="&#x174;" horiz-adv-x="926" d="M358 771l-39 36l108 110h77l107 -108l-40 -37l-105 74zM227 0l-194 710h80l159 -578l164 529h60l163 -534l153 583h81l-190 -710h-85l-152 496l-152 -496h-87z" />
<glyph unicode="&#x175;" horiz-adv-x="755" d="M267 603l-39 36l108 110h77l107 -108l-40 -37l-105 74zM184 0l-154 520h81l112 -391l125 391h61l129 -389l105 389h82l-148 -520h-76l-123 359l-122 -359h-72z" />
<glyph unicode="&#x176;" horiz-adv-x="621" d="M204 763l-39 36l108 110h77l107 -108l-40 -37l-105 74zM272 0v281l-238 429h88l189 -340l188 340h88l-238 -429v-281h-77z" />
<glyph unicode="&#x177;" horiz-adv-x="518" d="M150 604l-39 36l108 110h77l107 -108l-40 -37l-105 74zM219 -199h-77l77 198v2l-189 519h83l145 -418l147 418h83z" />
<glyph unicode="&#x178;" horiz-adv-x="621" d="M208 774q-19 0 -34.5 15t-15.5 36t15.5 36t34.5 15q20 0 35.5 -15t15.5 -36t-15.5 -36t-35.5 -15zM416 774q-20 0 -35 15t-15 36t15 36t35 15t35.5 -15t15.5 -36t-15.5 -36t-35.5 -15zM272 0v281l-238 429h88l189 -340l188 340h88l-238 -429v-281h-77z" />
<glyph unicode="&#x179;" horiz-adv-x="572" d="M234 790l104 175l77 -61l-110 -114h-71zM42 0v73l385 563h-373v74h474v-65l-390 -571h392v-74h-488z" />
<glyph unicode="&#x17a;" horiz-adv-x="469" d="M174 607l104 175l77 -61l-110 -114h-71zM51 0v62l268 386h-263v72h355v-57l-269 -390h276v-73h-367z" />
<glyph unicode="&#x17b;" horiz-adv-x="572" d="M282 785q-21 0 -38 15.5t-17 38.5q0 21 17 37.5t38 16.5t37.5 -16.5t16.5 -37.5q0 -23 -16.5 -38.5t-37.5 -15.5zM42 0v73l385 563h-373v74h474v-65l-390 -571h392v-74h-488z" />
<glyph unicode="&#x17c;" horiz-adv-x="469" d="M232 615q-21 0 -38 15.5t-17 38.5q0 21 17 37.5t38 16.5t37.5 -16.5t16.5 -37.5q0 -23 -16.5 -38.5t-37.5 -15.5zM51 0v62l268 386h-263v72h355v-57l-269 -390h276v-73h-367z" />
<glyph unicode="&#x17d;" horiz-adv-x="572" d="M243 784l-109 108l39 38l108 -75l107 75l38 -37l-106 -109h-77zM42 0v73l385 563h-373v74h474v-65l-390 -571h392v-74h-488z" />
<glyph unicode="&#x17e;" horiz-adv-x="469" d="M193 617l-109 108l39 38l108 -75l107 75l38 -37l-106 -109h-77zM51 0v62l268 386h-263v72h355v-57l-269 -390h276v-73h-367z" />
<glyph unicode="&#x1dd;" d="M267 506q99 0 171.5 -70.5t72.5 -200.5q0 -125 -70 -198t-167 -73t-162.5 65.5t-65.5 181.5v50h387q-1 84 -51.5 129.5t-118.5 45.5q-50 0 -93 -17t-65 -47l-54 46q68 88 216 88zM433 195h-311q0 -75 44 -118t108 -43t109.5 45t49.5 116z" />
<glyph unicode="&#x1fa;" horiz-adv-x="674" d="M280 1008l104 175l77 -61l-110 -114h-71zM338 744q-45 0 -79 33t-34 79q0 45 34.5 79t78.5 34q43 0 77.5 -34t34.5 -79q0 -46 -34 -79t-78 -33zM338 798q25 0 41 16t16 41q0 24 -16.5 41.5t-40.5 17.5t-41 -17.5t-17 -41.5q0 -25 16.5 -41t41.5 -16zM565 0l-68 179h-318 l-68 -179h-82l268 710h80l268 -710h-80zM337 598l-131 -346h263z" />
<glyph unicode="&#x1fb;" horiz-adv-x="532" d="M225 816l104 175l77 -61l-110 -114h-71zM272 564q-45 0 -79 33t-34 79q0 45 34.5 79t78.5 34q43 0 77.5 -34t34.5 -79q0 -46 -34 -79t-78 -33zM272 618q25 0 41 16t16 41q0 24 -16.5 41.5t-40.5 17.5t-41 -17.5t-17 -41.5q0 -25 16.5 -41t41.5 -16zM224 -8 q-72 0 -121.5 45.5t-49.5 107.5q0 71 54.5 119t151.5 48q74 0 133 -22v25q0 77 -40.5 110.5t-97.5 33.5q-75 0 -111 -48l-63 32q59 87 181 87q84 0 145.5 -54.5t61.5 -162.5v-313h-62l-10 66q-15 -27 -66.5 -50.5t-105.5 -23.5zM241 59q45 0 94 31.5t57 63.5v76 q-52 15 -133 13q-65 -1 -98 -27.5t-33 -66.5q0 -43 30.5 -66.5t82.5 -23.5z" />
<glyph unicode="&#x1fc;" horiz-adv-x="976" d="M478 778l104 175l77 -61l-110 -114h-71zM0 0l431 710h474v-73h-358v-241h288v-73h-288v-250h360v-73h-437v175h-274l-108 -175h-88zM239 247h231v378z" />
<glyph unicode="&#x1fd;" horiz-adv-x="853" d="M379 603l104 175l77 -61l-110 -114h-71zM838 76q-68 -88 -216 -88q-61 0 -115.5 28.5t-87.5 82.5q-60 -107 -195 -107q-87 0 -140.5 44t-53.5 111q0 78 55.5 123t153.5 45q88 0 135 -15v7q-6 79 -38.5 118t-99.5 39q-12 0 -23.5 -1t-21.5 -3.5t-17.5 -5t-15.5 -7 t-12.5 -7t-11.5 -8.5t-9.5 -8t-9 -8.5l-7.5 -7.5l-57 39q65 85 188 85q136 0 185 -106q33 50 83.5 77t107.5 27q97 0 162.5 -65.5t65.5 -181.5v-50h-387q1 -84 51.5 -129.5t118.5 -45.5q50 0 93 17t65 47zM456 299h311q0 75 -44 118t-108 43t-109.5 -45t-49.5 -116zM221 59 q66 0 108 38t45 115v23q-50 21 -133 15q-68 -1 -102.5 -28t-34.5 -70q0 -41 31 -67t86 -26z" />
<glyph unicode="&#x1fe;" horiz-adv-x="702" d="M279 782l104 175l77 -61l-110 -114h-71zM351 -8q-92 0 -164 50l-46 -70l-59 37l52 80q-84 101 -84 271q0 174 88 266.5t213 92.5q91 0 162 -49l46 70l58 -37l-52 -79q87 -97 87 -264q0 -92 -25.5 -164t-68.5 -115.5t-95.5 -66t-111.5 -22.5zM127 360q0 -127 52 -203 l293 450q-53 38 -121 38q-94 0 -159 -72t-65 -213zM576 360q0 122 -54 197l-294 -452q53 -39 123 -39q93 0 159 74.5t66 219.5z" />
<glyph unicode="&#x1ff;" horiz-adv-x="610" d="M219 608l104 175l77 -61l-110 -114h-71zM304 -9q-78 0 -140 46l-46 -56l-52 38l52 64q-54 70 -54 177q0 133 71 201.5t169 68.5q79 0 142 -45l49 60l51 -39l-54 -66q54 -72 54 -180q0 -66 -21.5 -119t-57 -84.5t-77.5 -48.5t-86 -17zM140 260q0 -67 28 -116l232 284 q-43 31 -96 31q-69 0 -116.5 -49t-47.5 -150zM470 260q0 70 -28 119l-231 -284q41 -32 93 -32q64 0 115 50.5t51 146.5z" />
<glyph unicode="&#x218;" horiz-adv-x="585" d="M298 -9q-151 0 -254 128l55 47q43 -50 88.5 -75t108.5 -25q75 0 116.5 34.5t41.5 98.5q0 70 -44 97t-135 38q-80 10 -140 58.5t-60 129.5q0 91 61 144.5t168 53.5q132 0 209 -89l-56 -49q-49 64 -162 64q-66 0 -105 -31.5t-39 -90.5q0 -55 42.5 -80t125.5 -36 q92 -12 152 -61.5t60 -146.5q0 -102 -64.5 -155.5t-168.5 -53.5zM234 -211l22 151h90l-40 -151h-72z" />
<glyph unicode="&#x219;" horiz-adv-x="502" d="M253 -12q-115 0 -204 75l49 56q66 -57 154 -57q59 0 93 22t34 62q0 42 -33 59.5t-125 26.5q-67 7 -110.5 43t-43.5 103q0 63 55.5 107.5t135.5 44.5q117 0 177 -62l-49 -54q-6 5 -17 13t-44.5 21t-67.5 13q-48 0 -81 -21.5t-33 -55.5q0 -42 30 -57.5t101 -22.5 q183 -17 183 -158q0 -70 -56.5 -114t-147.5 -44zM188 -217l22 151h90l-40 -151h-72z" />
<glyph unicode="&#x21a;" horiz-adv-x="589" d="M255 0v636h-208v74h495v-74h-209v-636h-78zM232 -214l22 151h90l-40 -151h-72z" />
<glyph unicode="&#x21b;" horiz-adv-x="358" d="M117 157v293h-87v70h82l25 145h57v-145h124v-70h-124v-285q0 -97 87 -97q26 0 37 1v-69q-18 -4 -50 -4q-63 0 -107 41t-44 120zM151 -214l22 151h90l-40 -151h-72z" />
<glyph unicode="&#x2c6;" horiz-adv-x="300" d="M43 582l-39 36l108 110h77l107 -108l-40 -37l-105 74z" />
<glyph unicode="&#x2c7;" horiz-adv-x="359" d="M112 585l-109 108l39 38l108 -75l107 75l38 -37l-106 -109h-77z" />
<glyph unicode="&#x2d8;" horiz-adv-x="347" d="M174 574q-47 0 -94 25.5t-76 65.5l45 43q25 -29 59 -47t66 -18q70 0 123 65l46 -43q-28 -44 -73.5 -67.5t-95.5 -23.5z" />
<glyph unicode="&#x2d9;" horiz-adv-x="117" d="M59 610q-21 0 -38 15.5t-17 38.5q0 21 17 37.5t38 16.5t37.5 -16.5t16.5 -37.5q0 -23 -16.5 -38.5t-37.5 -15.5z" />
<glyph unicode="&#x2da;" horiz-adv-x="233" d="M117 543q-45 0 -79 33t-34 79q0 45 34.5 79t78.5 34q43 0 77.5 -34t34.5 -79q0 -46 -34 -79t-78 -33zM117 597q25 0 41 16t16 41q0 24 -16.5 41.5t-40.5 17.5t-41 -17.5t-17 -41.5q0 -25 16.5 -41t41.5 -16z" />
<glyph unicode="&#x2db;" horiz-adv-x="469" d="M329 -235h-75q-68 0 -94 46.5t15 95.5q10 13 85 97q6 7 17.5 10.5t20.5 3.5l9 -1l26 -37l-93 -103q-16 -15 -9.5 -28.5t38.5 -13.5h60v-70z" />
<glyph unicode="&#x2dc;" horiz-adv-x="369" d="M4 565q4 38 34 67.5t76 33.5q45 3 88 -19t57 -21q23 1 38 13t19 28l49 -17q-1 -28 -27 -59t-70 -34q-34 -2 -77.5 19.5t-68.5 20.5q-57 -3 -72 -47z" />
<glyph unicode="&#x2dd;" horiz-adv-x="321" d="M71 571h-67l85 174l74 -45zM224 571h-67l85 174l75 -45z" />
<glyph unicode="&#x1e80;" horiz-adv-x="926" d="M443 783l-110 114l77 61l104 -175h-71zM227 0l-194 710h80l159 -578l164 529h60l163 -534l153 583h81l-190 -710h-85l-152 496l-152 -496h-87z" />
<glyph unicode="&#x1e81;" horiz-adv-x="755" d="M362 609l-110 114l77 61l104 -175h-71zM184 0l-154 520h81l112 -391l125 391h61l129 -389l105 389h82l-148 -520h-76l-123 359l-122 -359h-72z" />
<glyph unicode="&#x1e82;" horiz-adv-x="926" d="M419 789l104 175l77 -61l-110 -114h-71zM227 0l-194 710h80l159 -578l164 529h60l163 -534l153 583h81l-190 -710h-85l-152 496l-152 -496h-87z" />
<glyph unicode="&#x1e83;" horiz-adv-x="755" d="M319 607l104 175l77 -61l-110 -114h-71zM184 0l-154 520h81l112 -391l125 391h61l129 -389l105 389h82l-148 -520h-76l-123 359l-122 -359h-72z" />
<glyph unicode="&#x1e84;" horiz-adv-x="926" d="M362 782q-19 0 -34.5 15t-15.5 36t15.5 36t34.5 15q20 0 35.5 -15t15.5 -36t-15.5 -36t-35.5 -15zM570 782q-20 0 -35 15t-15 36t15 36t35 15t35.5 -15t15.5 -36t-15.5 -36t-35.5 -15zM227 0l-194 710h80l159 -578l164 529h60l163 -534l153 583h81l-190 -710h-85 l-152 496l-152 -496h-87z" />
<glyph unicode="&#x1e85;" horiz-adv-x="755" d="M272 618q-19 0 -34.5 15t-15.5 36t15.5 36t34.5 15q20 0 35.5 -15t15.5 -36t-15.5 -36t-35.5 -15zM480 618q-20 0 -35 15t-15 36t15 36t35 15t35.5 -15t15.5 -36t-15.5 -36t-35.5 -15zM184 0l-154 520h81l112 -391l125 391h61l129 -389l105 389h82l-148 -520h-76 l-123 359l-122 -359h-72z" />
<glyph unicode="&#x1ef2;" horiz-adv-x="621" d="M289 775l-110 114l77 61l104 -175h-71zM272 0v281l-238 429h88l189 -340l188 340h88l-238 -429v-281h-77z" />
<glyph unicode="&#x1ef3;" horiz-adv-x="518" d="M245 610l-110 114l77 61l104 -175h-71zM219 -199h-77l77 198v2l-189 519h83l145 -418l147 418h83z" />
<glyph unicode="&#x2000;" horiz-adv-x="591" />
<glyph unicode="&#x2001;" horiz-adv-x="1183" />
<glyph unicode="&#x2002;" horiz-adv-x="591" />
<glyph unicode="&#x2003;" horiz-adv-x="1183" />
<glyph unicode="&#x2004;" horiz-adv-x="394" />
<glyph unicode="&#x2005;" horiz-adv-x="295" />
<glyph unicode="&#x2006;" horiz-adv-x="197" />
<glyph unicode="&#x2007;" horiz-adv-x="197" />
<glyph unicode="&#x2008;" horiz-adv-x="147" />
<glyph unicode="&#x2009;" horiz-adv-x="236" />
<glyph unicode="&#x200a;" horiz-adv-x="65" />
<glyph unicode="&#x2010;" horiz-adv-x="445" d="M69 250v74h307v-74h-307z" />
<glyph unicode="&#x2011;" horiz-adv-x="445" d="M69 250v74h307v-74h-307z" />
<glyph unicode="&#x2012;" horiz-adv-x="445" d="M69 250v74h307v-74h-307z" />
<glyph unicode="&#x2013;" horiz-adv-x="557" d="M78 249v74h400v-74h-400z" />
<glyph unicode="&#x2014;" horiz-adv-x="930" d="M118 249v74h694v-74h-694z" />
<glyph unicode="&#x2018;" horiz-adv-x="240" d="M55 710h87l43 -216h-69z" />
<glyph unicode="&#x2019;" horiz-adv-x="240" d="M98 710h87l-61 -216h-69z" />
<glyph unicode="&#x201a;" horiz-adv-x="222" d="M127 217v-216h-72v216h72z" />
<glyph unicode="&#x201c;" horiz-adv-x="420" d="M235 710h87l43 -216h-69zM55 710h87l43 -216h-69z" />
<glyph unicode="&#x201d;" horiz-adv-x="419" d="M277 710h87l-61 -216h-69zM98 710h87l-61 -216h-69z" />
<glyph unicode="&#x201e;" horiz-adv-x="377" d="M282 217v-216h-72v216h72zM127 217v-216h-72v216h72z" />
<glyph unicode="&#x2020;" horiz-adv-x="502" d="M217 173v323h-131v67h131v138h71v-138h128v-67h-128v-323h-71z" />
<glyph unicode="&#x2021;" horiz-adv-x="503" d="M287 311v-139h-72v139h-129v67h129v118h-128v67h128v139h72v-139h130v-67h-130v-118h129v-67h-129z" />
<glyph unicode="&#x2022;" horiz-adv-x="315" d="M158 267q-32 0 -57.5 23.5t-25.5 57.5t25.5 59t57.5 25q33 0 57.5 -25t24.5 -59t-24.5 -57.5t-57.5 -23.5z" />
<glyph unicode="&#x2026;" horiz-adv-x="653" d="M115 -7q-21 0 -38 16.5t-17 40.5q0 23 16.5 39t38.5 16t39 -16t17 -39t-17 -40t-39 -17zM317 -7q-22 0 -39 16.5t-17 40.5q0 23 17 39t39 16t39 -16t17 -39q0 -24 -17 -40.5t-39 -16.5zM514 -7q-22 0 -39 16.5t-17 40.5q0 23 17 39t39 16t38.5 -16t16.5 -39 q0 -24 -16.5 -40.5t-38.5 -16.5z" />
<glyph unicode="&#x202f;" horiz-adv-x="236" />
<glyph unicode="&#x2039;" horiz-adv-x="370" d="M220 109l-135 154v44l134 153l53 -45l-113 -131l113 -130z" />
<glyph unicode="&#x203a;" horiz-adv-x="368" d="M136 464l135 -154v-44l-134 -153l-53 45l113 131l-113 130z" />
<glyph unicode="&#x205f;" horiz-adv-x="295" />
<glyph unicode="&#x20ac;" horiz-adv-x="696" d="M618 33q-73 -45 -187 -45q-248 0 -298 241h-86v76h76q-1 14 -1 44q0 19 2 53h-77v75h87q25 117 98.5 180.5t194.5 63.5q54 0 98 -10.5t68.5 -23t53.5 -32.5l-34 -71q-75 61 -184 61q-88 0 -139 -41.5t-70 -126.5h356l-29 -75h-337q-2 -32 -2 -51q0 -16 2 -46h305l-29 -76 h-265q41 -165 216 -165q86 0 181 51v-82z" />
<glyph unicode="&#x2190;" horiz-adv-x="839" d="M363 48l-283 286l283 285l56 -55l-194 -193h500v-75h-500l194 -194z" />
<glyph unicode="&#x2191;" horiz-adv-x="642" d="M276 4v572l-192 -193l-55 55l285 283l287 -283l-55 -57l-194 195v-572h-76z" />
<glyph unicode="&#x2192;" horiz-adv-x="831" d="M461 41l-56 55l194 194h-500v75h500l-194 192l56 56l283 -284z" />
<glyph unicode="&#x2193;" horiz-adv-x="639" d="M314 -10l-285 283l55 56l192 -195v572h76v-571l194 194l55 -56z" />
<glyph unicode="&#x2212;" horiz-adv-x="639" d="M547 291h-453v75h453v-75z" />
<glyph unicode="&#x25fc;" horiz-adv-x="520" d="M0 520h520v-520h-520v520z" />
<glyph unicode="&#xf6c3;" horiz-adv-x="120" d="M4 -193l22 151h90l-40 -151h-72z" />
<glyph horiz-adv-x="384" d="M49 -178v65l141 149q47 50 59 68t12 43q0 27 -19.5 45t-48.5 18q-67 0 -78 -62h-67q4 58 45 94t100 36q60 0 99.5 -38.5t39.5 -92.5q0 -21 -3.5 -38t-15 -33.5t-17.5 -24t-27 -28t-27 -26.5l-103 -108h198v-67h-288z" />
</font>
</defs>
</svg>
