<?xml version="1.0" standalone="no"?>
<!DOCTYPE svg PUBLIC "-//W3C//DTD SVG 1.1//EN" "http://www.w3.org/Graphics/SVG/1.1/DTD/svg11.dtd" >
<svg xmlns="http://www.w3.org/2000/svg">
<metadata></metadata>
<defs>
<font id="klimabold" horiz-adv-x="591" >
<font-face units-per-em="1000" ascent="764" descent="-236" />
<missing-glyph horiz-adv-x="179" />
<glyph horiz-adv-x="0" />
<glyph unicode="&#xd;" horiz-adv-x="227" />
<glyph unicode=" "  horiz-adv-x="179" />
<glyph unicode="&#x09;" horiz-adv-x="179" />
<glyph unicode="&#xa0;" horiz-adv-x="179" />
<glyph unicode="!" horiz-adv-x="295" d="M112 198l-48 246v245h168v-245l-48 -246h-72zM148 -7q-31 0 -50.5 19.5t-19.5 52.5t19.5 52t50.5 19q32 0 51.5 -19t19.5 -52t-19.5 -52.5t-51.5 -19.5z" />
<glyph unicode="&#x22;" horiz-adv-x="425" d="M244 459v230h117v-230h-117zM58 459v230h117v-230h-117z" />
<glyph unicode="#" horiz-adv-x="753" d="M406 0l20 161h-141l-19 -161h-117l20 161h-107v112h120l18 145h-138v105h150l20 166h117l-20 -166h140l21 166h115l-20 -166h113v-105h-126l-17 -145h143v-112h-157l-19 -161h-116zM299 273h140l18 145h-141z" />
<glyph unicode="$" horiz-adv-x="607" d="M559 205q0 -86 -51.5 -140.5t-135.5 -69.5v-102h-127v101q-63 10 -119.5 39t-93.5 69l99 107q79 -80 182 -80q43 0 67 18.5t24 52.5q0 26 -11 42t-35.5 25t-67.5 13.5t-81 18t-71.5 37.5t-53.5 63t-20 88q0 82 47 136.5t134 70.5v90h127v-90q101 -18 171 -90l-100 -97 q-13 16 -35.5 28.5t-51 20.5t-55.5 8q-45 0 -68 -19.5t-23 -51.5t28 -47t92 -21q49 -5 88.5 -18.5t72 -38.5t50.5 -66.5t18 -96.5z" />
<glyph unicode="%" horiz-adv-x="819" d="M206 361q-44 0 -79.5 19.5t-57.5 58.5t-22 91q0 75 46 121t112 46q32 0 61 -11t51 -32t34.5 -52.5t12.5 -69.5q0 -83 -44.5 -127t-113.5 -44zM127 0l437 689h126l-437 -689h-126zM207 454q27 0 45.5 20.5t18.5 55.5q0 32 -17.5 52t-46.5 20q-28 0 -46 -20.5t-18 -53.5 q0 -35 17.5 -54.5t46.5 -19.5zM613 -5q-66 0 -112.5 47t-46.5 122q0 30 8 57t23 47t35 35t43.5 22.5t49.5 7.5q67 0 113 -45t46 -122q0 -82 -45 -126.5t-114 -44.5zM614 89q14 0 26 5.5t20.5 15t13.5 23.5t5 31q0 32 -17.5 52.5t-47.5 20.5q-28 0 -46 -21t-18 -53 q0 -23 8.5 -40t23 -25.5t32.5 -8.5z" />
<glyph unicode="&#x26;" horiz-adv-x="673" d="M249 -9q-100 0 -163 61.5t-63 146.5q0 68 40.5 118.5t98.5 75.5q-2 3 -11.5 16.5t-15.5 24t-14 26.5t-12 34t-4 37q0 68 54 117.5t142 49.5q85 0 136.5 -51t51.5 -121q0 -60 -39 -105t-95 -73l23.5 -28t47.5 -55l24 -28l55 70h156l-135 -156l124 -151h-151l-59 70 q-26 -32 -76 -55t-115 -24zM280 436q36 13 58.5 36t22.5 48q0 28 -18 47t-46 19q-25 -1 -43.5 -18t-18.5 -44q0 -42 45 -88zM254 110q56 0 106 49l-12.5 14.5t-30.5 35.5t-36.5 42t-31.5 35.5l-13 14.5q-75 -29 -75 -97q0 -39 27 -66.5t66 -27.5z" />
<glyph unicode="'" horiz-adv-x="232" d="M58 459v230h117v-230h-117z" />
<glyph unicode="(" horiz-adv-x="354" d="M192 -132q-66 94 -105 222.5t-37 254.5q3 257 139 448l120 -77q-118 -167 -120 -374q-2 -108 29.5 -208.5t88.5 -181.5z" />
<glyph unicode=")" horiz-adv-x="354" d="M146 796q67 -94 105.5 -222t36.5 -255q-3 -256 -139 -448l-120 78q119 166 120 373q3 109 -28.5 209t-89.5 181z" />
<glyph unicode="*" horiz-adv-x="423" d="M154 374l-72 56l62 78l-93 27l28 88l88 -33l-3 104h92l-4 -104l95 33l25 -87l-93 -28l60 -81l-73 -53l-55 83z" />
<glyph unicode="+" horiz-adv-x="606" d="M239 96v162h-158v123h158v161h128v-161h159v-123h-159v-162h-128z" />
<glyph unicode="," horiz-adv-x="259" d="M82 107h138l-65 -220h-113z" />
<glyph unicode="-" horiz-adv-x="436" d="M63 242v135h309v-135h-309z" />
<glyph unicode="." horiz-adv-x="248" d="M124 -9q-36 0 -56 20.5t-20 57.5t20 57t56 20q35 0 56.5 -20.5t21.5 -57t-21.5 -57t-56.5 -20.5z" />
<glyph unicode="/" horiz-adv-x="472" d="M27 0l272 688h147l-272 -688h-147z" />
<glyph unicode="0" horiz-adv-x="638" d="M319 -10q-40 0 -76 9.5t-67.5 28.5t-56.5 48.5t-43 68t-27.5 89t-9.5 109.5q0 173 77.5 264t202.5 91q47 0 88.5 -13.5t77 -42t61 -70t39.5 -100t14 -128.5q0 -89 -21.5 -157.5t-59.5 -111t-88.5 -64t-110.5 -21.5zM319 130q58 0 93.5 50t35.5 163q0 218 -129 218 q-61 0 -95 -50.5t-34 -168.5q0 -212 129 -212z" />
<glyph unicode="1" horiz-adv-x="373" d="M149 0v540l-113 -17l-3 111l146 55h122v-689h-152z" />
<glyph unicode="2" horiz-adv-x="580" d="M51 0v99l235 260q8 8 30 31.5t30.5 33.5t17 27.5t8.5 33.5q0 33 -25 56t-65 23q-77 -2 -95 -74h-141q8 90 72.5 148.5t163.5 58.5q111 0 176.5 -57t65.5 -148q0 -20 -2.5 -37t-11 -35t-13 -28t-20.5 -29.5t-20.5 -25.5t-27 -29.5t-26.5 -29.5l-131 -142h261v-136h-482z " />
<glyph unicode="3" horiz-adv-x="586" d="M283 -10q-40 0 -80 12.5t-76.5 36.5t-62.5 67t-32 97h149q6 -33 35 -53.5t64 -20.5q47 0 76 23t29 63q0 42 -37 61.5t-113 20.5v113q68 0 103 21t35 59q0 33 -25 52t-70 19q-19 0 -34 -4t-27 -12.5t-21.5 -21t-17.5 -29.5h-133q12 95 81.5 149t158.5 54q97 0 166 -50.5 t71 -137.5q1 -34 -8.5 -61.5t-26 -44.5t-31.5 -27t-31 -15q46 -13 81.5 -52t35.5 -101q0 -98 -71 -158t-188 -60z" />
<glyph unicode="4" horiz-adv-x="608" d="M345 0v123h-310v126l274 440h188v-430h74v-137h-74v-122h-152zM176 260h171v270z" />
<glyph unicode="5" horiz-adv-x="583" d="M288 -12q-101 0 -173 59.5t-82 145.5h154q7 -31 34.5 -49.5t62.5 -18.5q50 0 78 28.5t28 75.5t-28.5 74t-72.5 27q-35 0 -59.5 -15t-35.5 -39l-141 24l30 389h416v-128h-299l-6 -131q1 1 5.5 4.5t14.5 8.5t22.5 9.5t31 7.5t39.5 3q35 0 69 -9t64 -27.5t52.5 -45 t35.5 -65.5t13 -85q0 -113 -73 -178t-180 -65z" />
<glyph unicode="6" horiz-adv-x="608" d="M569 238q0 -77 -38 -134t-98.5 -84.5t-132.5 -27.5q-67 0 -125.5 27.5t-97 84t-38.5 131.5q0 36 8.5 71t26.5 71t31 58t37 57l130 199h173l-164 -252q14 22 72 22q35 0 72 -14t70 -40t53.5 -70.5t20.5 -98.5zM305 130q48 1 78.5 29.5t30.5 75.5q0 48 -31 76.5t-77 28.5 q-47 0 -78.5 -28.5t-31.5 -75.5t31.5 -77t77.5 -29z" />
<glyph unicode="7" horiz-adv-x="552" d="M96 0l250 555h-318v134h487v-117l-253 -572h-166z" />
<glyph unicode="8" horiz-adv-x="598" d="M304 -10q-124 0 -195.5 58.5t-71.5 146.5q0 105 99 168q-74 55 -73 138q0 84 67 140.5t169 56.5t168.5 -56.5t66.5 -140.5q0 -47 -25.5 -84.5t-54.5 -53.5q17 -9 33 -20.5t34 -31t29.5 -48.5t11.5 -63q0 -89 -72.5 -149.5t-185.5 -60.5zM299 409q39 9 63 35t24 57 q0 21 -10.5 38.5t-30.5 28t-46 10.5q-39 0 -64 -22t-25 -55t26 -59.5t63 -32.5zM302 119q30 1 52.5 12t35 30t12.5 43q0 39 -32 61t-88 36q-42 -14 -64 -41.5t-21 -57.5q0 -37 28 -60t77 -23z" />
<glyph unicode="9" horiz-adv-x="608" d="M330 0h-178l169 231q-21 -15 -64 -15q-23 0 -47.5 6.5t-49 19t-46 32.5t-38.5 44.5t-27 57t-10 69.5q0 112 76.5 183t191.5 71q112 0 187 -67.5t75 -177.5q0 -74 -34 -144.5t-89 -146.5zM304 340q44 0 75.5 31.5t31.5 80.5q0 33 -14 58.5t-38.5 39.5t-54.5 14 q-47 0 -78.5 -31t-31.5 -81q0 -49 32 -80.5t78 -31.5z" />
<glyph unicode=":" horiz-adv-x="281" d="M142 332q-35 0 -56.5 21t-21.5 57t21.5 56.5t56.5 20.5q33 0 55 -20.5t22 -56t-22.5 -57t-54.5 -21.5zM141 6q-35 0 -56.5 21t-21.5 56q0 36 21.5 56.5t56.5 20.5q34 0 55.5 -21t21.5 -56t-21.5 -56t-55.5 -21z" />
<glyph unicode=";" horiz-adv-x="295" d="M156 333q-36 0 -56 20t-20 57t20 57t56 20q35 0 56.5 -20t21.5 -56.5t-21.5 -57t-56.5 -20.5zM91 110h138l-65 -221h-114z" />
<glyph unicode="&#x3c;" horiz-adv-x="490" d="M427 2l-377 207v105l377 209v-150l-217 -112l217 -108v-151z" />
<glyph unicode="=" horiz-adv-x="666" d="M111 378v123h444v-123h-444zM111 138v123h444v-123h-444z" />
<glyph unicode="&#x3e;" horiz-adv-x="490" d="M40 520l376 -207v-105l-376 -209v149l217 113l-217 108v151z" />
<glyph unicode="?" horiz-adv-x="551" d="M194 194q0 51 16.5 92t36.5 63t49 43q37 26 51.5 45.5t14.5 48.5q0 35 -24.5 56.5t-62.5 21.5q-35 0 -63 -20t-34 -59l-130 4q2 92 68 149t161 57q63 0 113.5 -25.5t79.5 -70t30 -98.5q0 -16 -2.5 -30t-5 -25.5t-9.5 -24.5t-11 -21t-14.5 -19.5t-15 -17t-17 -16.5 t-16 -14.5t-17 -14.5t-16.5 -12q-33 -28 -46 -52.5t-13 -59.5h-123zM256 -9q-32 0 -52 19t-20 52t20 52t52 19q21 0 36.5 -8.5t24.5 -24.5t9 -38q0 -33 -19 -52t-51 -19z" />
<glyph unicode="@" horiz-adv-x="900" d="M456 -76q-110 0 -199 49t-139.5 136t-50.5 195q0 109 51.5 198t141 138.5t197.5 49.5q167 0 271.5 -106.5t104.5 -273.5q0 -77 -23.5 -135t-62 -87.5t-85.5 -29.5q-45 0 -82 24.5t-54 71.5q-8 -13 -31 -24t-48 -11q-75 0 -120 54t-45 133q1 76 45 126.5t113 49.5 q30 0 51.5 -15t29.5 -35l14 38l67 -1l-2 -188q0 -41 5 -67.5t17 -39.5t31 -13q70 0 70 150q0 122 -73 200.5t-193 77.5q-117 -1 -197.5 -83t-80.5 -201q0 -53 18 -102t51.5 -88.5t86.5 -63.5t119 -24q11 0 21.5 0.5t18 1.5t14 2.5t11 2.5t8 2.5t4.5 1.5l2 1q2 -6 5.5 -16 t11 -31.5t12.5 -35.5t4 -13q-33 -19 -110 -19zM454 210q58 1 59 89q1 46 -15 71t-45 25q-19 0 -34 -11.5t-23 -33t-8 -49.5q0 -29 8.5 -50t23.5 -31t34 -10z" />
<glyph unicode="A" horiz-adv-x="683" d="M512 0l-43 124h-253l-41 -124h-158l246 689h155l248 -689h-154zM340 499l-84 -254h172z" />
<glyph unicode="B" horiz-adv-x="619" d="M67 0v689h234q121 0 184.5 -57t63.5 -140q0 -44 -21 -80t-52 -47q51 -15 82 -61t31 -100q0 -40 -15 -75t-45 -64.5t-81.5 -47t-117.5 -17.5h-263zM215 403h91q45 0 69.5 21.5t24.5 58.5q0 35 -25.5 58t-71.5 23h-88v-161zM215 125h107q59 0 86 22t27 65q0 41 -29 62.5 t-84 21.5h-107v-171z" />
<glyph unicode="C" horiz-adv-x="694" d="M354 -11q-46 0 -90 12.5t-85.5 40.5t-73 68t-50 100t-18.5 132q0 88 26 158t71 113t101 65t119 22q123 0 205.5 -68t96.5 -184h-150q-8 54 -50.5 86t-99.5 32q-25 0 -48 -7t-45.5 -23t-39 -40.5t-27 -64t-10.5 -89.5q0 -58 15.5 -102t41 -68.5t54.5 -36.5t61 -12 q58 0 99.5 34t49.5 86h151q-7 -64 -35 -114t-70.5 -80t-92.5 -45t-106 -15z" />
<glyph unicode="D" horiz-adv-x="665" d="M67 0v689h229q150 0 242.5 -89.5t92.5 -251.5q0 -175 -90 -261.5t-245 -86.5h-229zM214 138h82q89 0 139 51.5t50 158.5q0 103 -51 153t-138 50h-82v-413z" />
<glyph unicode="E" d="M68 0v689h468v-133h-321v-145h247v-129h-247v-149h324v-133h-471z" />
<glyph unicode="F" horiz-adv-x="578" d="M68 0v688h471v-138h-324v-148h244v-129h-244v-273h-147z" />
<glyph unicode="G" horiz-adv-x="696" d="M353 -11q-48 0 -92 12.5t-85 40t-71.5 67.5t-48.5 100.5t-18 134.5q0 86 26 155t70 112t100 65.5t119 22.5q118 0 201.5 -66.5t97.5 -174.5h-150q-8 41 -49 74.5t-100 33.5q-70 0 -119 -57.5t-49 -164.5q0 -111 48.5 -166t119.5 -55q66 0 108 34.5t45 102.5h-118v115h268 v-70q0 -82 -25.5 -144.5t-69 -99t-96 -54.5t-112.5 -18z" />
<glyph unicode="H" horiz-adv-x="669" d="M69 0v689h147v-274h237v274h147v-689h-147v277h-237v-277h-147z" />
<glyph unicode="I" horiz-adv-x="284" d="M68 0v689h147v-689h-147z" />
<glyph unicode="J" horiz-adv-x="515" d="M206 -10q-58 0 -114 27t-86 68l107 87q43 -46 94 -46q95 0 95 123v440h147v-439q0 -70 -18 -121t-52 -81t-76.5 -44t-96.5 -14z" />
<glyph unicode="K" horiz-adv-x="667" d="M68 0v689h147v-291l235 291h188l-245 -301l264 -388h-178l-192 286l-72 -81v-205h-147z" />
<glyph unicode="L" horiz-adv-x="562" d="M68 0v689h147v-556h310v-133h-457z" />
<glyph unicode="M" horiz-adv-x="825" d="M68 0v689h149l193 -379l197 379h151v-689h-148v415l-159 -328h-82l-154 327v-414h-147z" />
<glyph unicode="N" horiz-adv-x="698" d="M68 0v689h153l262 -424v424h148v-689h-154l-262 408v-408h-147z" />
<glyph unicode="O" horiz-adv-x="702" d="M351 -10q-65 0 -121.5 23t-100 66.5t-68 112.5t-24.5 155t24.5 154t68 111t100 65.5t121.5 22.5t121.5 -23t100 -66t68 -111t24.5 -153q0 -86 -24.5 -154.5t-68 -112.5t-100 -67t-121.5 -23zM351 124q32 0 60.5 12.5t53 38t38.5 70t14 102.5t-14.5 101.5t-39 68t-52.5 37 t-60 12.5q-18 0 -34.5 -4t-33.5 -12t-31 -20t-26.5 -29.5t-21.5 -39.5t-14 -51t-5 -63q0 -114 48 -168.5t118 -54.5z" />
<glyph unicode="P" horiz-adv-x="616" d="M68 0v689h263q63 0 112.5 -19t78.5 -51t44 -72t15 -86q0 -45 -15 -85t-44.5 -72t-78.5 -51t-112 -19h-116v-234h-147zM215 556v-184h100q33 0 57.5 8t42 29t17.5 54t-18 54.5t-43.5 30t-56.5 8.5h-99z" />
<glyph unicode="Q" horiz-adv-x="691" d="M643 28l-110 -95l-69 77q-54 -20 -113 -20q-65 0 -121.5 23t-100 66.5t-68 112.5t-24.5 155t24.5 154t68 111t100 65.5t121.5 22.5t121.5 -23t100 -66t68 -111t24.5 -153q0 -157 -80 -253zM351 124q32 0 60.5 12.5t53 38t38.5 70t14 102.5t-14.5 101.5t-39 68t-52.5 37 t-60 12.5q-18 0 -34.5 -4t-33.5 -12t-31 -20t-26.5 -29.5t-21.5 -39.5t-14 -51t-5 -63q0 -114 48 -168.5t118 -54.5z" />
<glyph unicode="R" horiz-adv-x="646" d="M68 0v689h249q134 0 204.5 -63.5t70.5 -163.5q0 -62 -31.5 -111t-90.5 -75l135 -276h-164l-107 242h-119v-242h-147zM215 373h101q52 0 84.5 22.5t32.5 71.5q0 46 -33.5 67.5t-83.5 21.5h-101v-183z" />
<glyph unicode="S" horiz-adv-x="587" d="M300 -11q-85 0 -156 30.5t-120 82.5l96 102q36 -36 82 -59t96 -23q53 0 79 20t26 55q0 27 -13 44t-38.5 25.5t-69.5 13.5q-43 5 -81.5 18.5t-72.5 37.5t-54 63t-20 88q0 92 68 151.5t181 59.5q144 0 236 -94l-94 -95q-21 23 -65.5 40t-86.5 17q-47 0 -72.5 -18.5 t-25.5 -51.5t30.5 -50.5t96.5 -23.5q49 -4 89.5 -18t73.5 -39t51.5 -66t18.5 -94q0 -69 -35.5 -119t-92.5 -73.5t-127 -23.5z" />
<glyph unicode="T" horiz-adv-x="595" d="M224 0v559h-192v129h533v-129h-193v-559h-148z" />
<glyph unicode="U" horiz-adv-x="658" d="M330 -10q-59 0 -109 18.5t-88.5 54t-60.5 93t-22 130.5v403h148v-402q0 -41 10.5 -71.5t29.5 -48.5t42 -27t50 -9q55 0 93 39t38 117v402h147v-403q0 -73 -22 -130.5t-60 -93t-88 -54t-108 -18.5z" />
<glyph unicode="V" horiz-adv-x="667" d="M258 0l-239 688h159l157 -473l156 473h158l-239 -688h-152z" />
<glyph unicode="W" horiz-adv-x="911" d="M204 0l-188 689h159l111 -448l122 416h103l121 -418l105 450h157l-184 -689h-144l-109 358l-109 -358h-144z" />
<glyph unicode="X" horiz-adv-x="663" d="M21 0l217 346l-214 343h176l129 -223l132 223h174l-216 -343l215 -346h-171l-134 219l-136 -219h-172z" />
<glyph unicode="Y" horiz-adv-x="644" d="M245 0v257l-228 432h167l138 -279l135 279h170l-234 -432v-257h-148z" />
<glyph unicode="Z" horiz-adv-x="578" d="M32 0v137l309 415h-299v137h491v-129l-313 -418h319v-142h-507z" />
<glyph unicode="[" horiz-adv-x="364" d="M67 -89v850h246v-132h-103v-584h103v-134h-246z" />
<glyph unicode="\" horiz-adv-x="474" d="M301 0l-274 688h148l271 -688h-145z" />
<glyph unicode="]" horiz-adv-x="364" d="M275 760v-850h-246v133h103v584h-103v133h246z" />
<glyph unicode="^" horiz-adv-x="429" d="M28 523l137 166h107l132 -171l-67 -50l-119 109l-121 -108z" />
<glyph unicode="_" horiz-adv-x="585" d="M11 -125v125h564v-125h-564z" />
<glyph unicode="`" horiz-adv-x="267" d="M123 560l-116 98l167 106l87 -204h-138z" />
<glyph unicode="a" horiz-adv-x="532" d="M215 -8q-77 0 -128.5 46.5t-51.5 112.5q0 69 56.5 118t159.5 49q52 0 92 -13v16q0 90 -96 90q-56 0 -93 -37l-90 69q28 39 77.5 62t116.5 23q103 0 165.5 -57t62.5 -167v-304h-116l-11 59q-7 -12 -21 -25t-48 -27.5t-75 -14.5zM249 103q17 0 33.5 6t29 15.5t21 21 t9.5 23.5v46q-23 6 -77 6q-29 0 -49.5 -8t-30 -21.5t-9.5 -31.5q0 -28 19.5 -42.5t53.5 -14.5z" />
<glyph unicode="b" horiz-adv-x="604" d="M59 0v689h155v-223q13 25 53 43.5t79 18.5q41 0 78.5 -15.5t70.5 -46t52.5 -83.5t19.5 -122q0 -53 -12.5 -98t-34.5 -76t-51 -52.5t-61 -31.5t-67 -10q-41 0 -86 20.5t-63 45.5l-10 -59h-123zM314 115q41 0 71 37.5t30 107.5q0 71 -30.5 107.5t-75.5 36.5 q-42 0 -75 -37.5t-33 -106.5t35 -107t78 -38z" />
<glyph unicode="c" horiz-adv-x="561" d="M287 -11q-66 0 -122 30t-91.5 92t-35.5 145q0 64 20.5 116.5t55.5 86t79.5 51.5t92.5 18q90 0 158 -50t82 -145h-142q-20 71 -93 71q-20 0 -38.5 -8t-35 -24.5t-26.5 -46.5t-10 -69q0 -71 33.5 -107t76.5 -36q35 0 59 17.5t33 47.5h143q-13 -88 -77.5 -138.5 t-161.5 -50.5z" />
<glyph unicode="d" horiz-adv-x="603" d="M275 -7q-42 0 -83.5 16.5t-76.5 48t-56.5 84.5t-21.5 119q0 68 21 121.5t55.5 84t74 46t81.5 15.5q37 0 72.5 -17.5t47.5 -41.5v220h155v-689h-119l-13 59q-11 -19 -34 -34.5t-50 -23.5t-53 -8zM295 118q18 0 36 9t33.5 26t25.5 45.5t10 63.5q0 68 -31.5 105t-72.5 37 q-44 0 -76.5 -34.5t-32.5 -107.5q0 -31 7 -55.5t18 -40.5t25.5 -27t29 -16t28.5 -5z" />
<glyph unicode="e" horiz-adv-x="560" d="M295 -10q-52 0 -97.5 16.5t-81.5 48.5t-56.5 83.5t-20.5 117.5q0 65 20 117.5t54 85.5t77.5 51t91.5 18q50 0 93 -15.5t76.5 -46t52.5 -80.5t19 -113v-58h-346q2 -51 38 -79t87 -28q41 0 77.5 13t58.5 34l67 -96q-70 -69 -210 -69zM177 310h208q0 34 -14 57.5t-37 34.5 t-53 11q-42 0 -72 -27.5t-32 -75.5z" />
<glyph unicode="f" horiz-adv-x="370" d="M92 0v405h-66v113h66v13q0 91 45.5 135t141.5 44q11 0 34.5 -1.5t24.5 -1.5v-108q-58 4 -79 -9.5t-17 -56.5v-15h95v-113h-89v-405h-156z" />
<glyph unicode="g" horiz-adv-x="593" d="M267 -232q-65 0 -121.5 23t-88.5 58l81 95q20 -18 55.5 -32t69.5 -14q117 0 117 120v30q-8 -17 -25 -30t-41 -21.5t-49 -8.5q-41 0 -80 16.5t-71.5 48t-52.5 85t-20 121.5t20 121t53 83.5t71 46.5t79 16q27 0 53.5 -8t46 -22t29.5 -31l11 53h131v-469q0 -90 -31 -153 t-91 -95.5t-146 -32.5zM291 115q43 0 74 37.5t31 103.5q0 38 -9 67t-24 45.5t-33 24.5t-39 8q-28 0 -51 -14.5t-39 -48t-16 -82.5q0 -68 31 -104.5t75 -36.5z" />
<glyph unicode="h" horiz-adv-x="597" d="M65 0v689h154v-222q8 15 28.5 29.5t46.5 23t49 8.5q42 0 78.5 -14.5t64.5 -43t44 -75t16 -105.5v-290h-158v288q0 33 -11 56t-29.5 33.5t-42.5 10.5q-35 0 -60.5 -28t-25.5 -72v-288h-154z" />
<glyph unicode="i" horiz-adv-x="269" d="M134 576q-37 0 -60 19t-23 54t23 53.5t60 18.5t60.5 -18.5t23.5 -53.5t-23.5 -54t-60.5 -19zM66 0v518h143v-518h-143z" />
<glyph unicode="j" horiz-adv-x="312" d="M167 563q-37 0 -60.5 18.5t-23.5 53.5q0 36 23 54t61 18q37 0 59.5 -18t22.5 -54q0 -35 -23 -53.5t-59 -18.5zM8 -224v132q36 -2 58.5 22t22.5 67v516h156v-520q0 -69 -34 -121t-87.5 -76t-115.5 -20z" />
<glyph unicode="k" horiz-adv-x="576" d="M61 0v689h154v-371l153 200h180l-184 -231l202 -287h-177l-142 213l-32 -28v-185h-154z" />
<glyph unicode="l" horiz-adv-x="271" d="M61 0v689h149v-689h-149z" />
<glyph unicode="m" horiz-adv-x="870" d="M61 0v518h123l18 -59q13 26 53 50.5t84 24.5q46 0 83 -21.5t53 -56.5q22 32 64.5 55t97.5 23q81 0 132.5 -60.5t51.5 -161.5v-312h-149v311q0 46 -19.5 69t-54.5 23q-36 0 -59.5 -24.5t-23.5 -67.5v-311h-148v307q0 47 -19.5 71.5t-55.5 24.5q-19 0 -34 -6.5t-26 -18.5 t-16.5 -30t-5.5 -41v-307h-149z" />
<glyph unicode="n" horiz-adv-x="581" d="M61 0v518h114l17 -53q16 26 59.5 46.5t88.5 20.5q83 0 137 -53t54 -161v-318h-150v310q0 47 -23 72.5t-61 25.5t-62.5 -26.5t-24.5 -71.5v-310h-149z" />
<glyph unicode="o" horiz-adv-x="582" d="M290 -10q-36 0 -71 10t-68 31.5t-58.5 52t-40.5 76t-15 99.5q0 69 23 122.5t61 84.5t81 46.5t88 15.5q47 0 90.5 -16t81.5 -46.5t60.5 -84t22.5 -122.5q0 -67 -23 -120t-60.5 -84.5t-81.5 -48t-90 -16.5zM290 117q43 0 77.5 37t34.5 105q0 72 -34 108t-78 36 q-45 0 -77.5 -35.5t-32.5 -108.5q0 -68 33.5 -105t76.5 -37z" />
<glyph unicode="p" horiz-adv-x="596" d="M213 51v-251h-152v718h126l13 -60q21 31 62.5 49.5t88.5 18.5q30 0 59 -9.5t56.5 -30.5t48 -51t33 -75.5t12.5 -99.5q0 -67 -20 -119.5t-52.5 -83.5t-69.5 -47t-76 -16q-38 0 -77.5 16.5t-51.5 40.5zM307 117q42 0 74 36.5t32 106.5q0 72 -31.5 107.5t-74.5 35.5 q-18 0 -35.5 -7.5t-34.5 -23.5t-27 -45t-10 -67q0 -70 32.5 -106.5t74.5 -36.5z" />
<glyph unicode="q" horiz-adv-x="596" d="M383 -200v251q-11 -24 -50.5 -40.5t-78.5 -16.5q-38 0 -75.5 16t-69.5 47t-52 83.5t-20 119.5q0 54 13 99.5t34.5 75.5t50 51t58 30.5t59.5 9.5q47 0 87.5 -18.5t61.5 -49.5l13 60h121v-718h-152zM184 260q0 -71 31.5 -107t74.5 -36q42 0 75 37t33 106q0 38 -10.5 67 t-27 44.5t-34.5 23.5t-36 8q-41 0 -73.5 -35.5t-32.5 -107.5z" />
<glyph unicode="r" horiz-adv-x="402" d="M61 0v518h110l17 -56q9 18 30.5 33t49 24t53.5 9q7 0 16 -0.5t15.5 -1t14 -1.5t11.5 -1v-136q-29 3 -51 3q-58 0 -86.5 -27t-28.5 -91v-273h-151z" />
<glyph unicode="s" horiz-adv-x="485" d="M242 -14q-51 0 -111.5 17.5t-105.5 48.5l67 108q35 -22 77.5 -36t76.5 -14q78 0 78 47q0 11 -5.5 19t-14.5 13t-26 9.5t-33.5 7.5t-43.5 6q-42 6 -75 23t-55.5 50.5t-22.5 78.5q0 70 59.5 118.5t145.5 48.5q59 0 110 -15.5t82 -38.5l-61 -100q-7 5 -20 11.5t-49 18 t-68 13.5q-30 0 -49.5 -11.5t-19.5 -32.5q0 -9 3.5 -16t11.5 -12t15.5 -8.5t23 -6.5t25 -5t29.5 -5h4t3.5 -0.5t4.5 -1t4 -0.5q73 -11 114 -51.5t41 -108.5q0 -79 -57 -127t-158 -48z" />
<glyph unicode="t" horiz-adv-x="367" d="M89 148v255h-69v115h68l29 140h122v-140h95v-115h-95v-209q0 -30 8 -47t22 -22.5t39 -5.5h24v-116q-25 -6 -73 -6q-80 0 -125 38.5t-45 112.5z" />
<glyph unicode="u" d="M255 -13q-38 0 -72.5 12.5t-65 37.5t-48.5 71t-18 106v304h160v-304q0 -50 23 -76t59 -26t58.5 26t22.5 76v304h157v-518h-122l-16 59q-11 -21 -33 -37.5t-50 -25.5t-55 -9z" />
<glyph unicode="v" horiz-adv-x="547" d="M189 0l-174 518h157l98 -347l106 347h157l-185 -518h-159z" />
<glyph unicode="w" horiz-adv-x="789" d="M175 0l-157 518h157l77 -304l92 304h104l94 -304l73 304h157l-153 -518h-142l-83 256l-85 -256h-134z" />
<glyph unicode="x" horiz-adv-x="590" d="M19 0l182 258l-182 260h181l95 -150l97 150h180l-187 -258l185 -260h-180l-94 145l-96 -145h-181z" />
<glyph unicode="y" horiz-adv-x="554" d="M278 -189h-146l78 187l-1 2l-191 518h160l99 -341l99 341h161z" />
<glyph unicode="z" horiz-adv-x="475" d="M38 0v101l223 295h-216v122h386v-104l-218 -291h224v-123h-399z" />
<glyph unicode="{" horiz-adv-x="411" d="M346 -89h-41q-77 0 -126.5 52t-49.5 131v88q0 93 -81 93v132q78 0 78 97v90q0 82 49.5 132.5t132.5 51.5q1 1 38 1v-126q-45 0 -65 -22t-20 -66v-80q0 -22 -1.5 -39t-6 -35t-11.5 -31t-20 -23t-30 -15q22 -6 36 -19t20.5 -33t8.5 -39t2 -46v-87q0 -39 23 -60.5t64 -21.5 v-125z" />
<glyph unicode="|" horiz-adv-x="280" d="M77 -107v878h127v-878h-127z" />
<glyph unicode="}" horiz-adv-x="412" d="M44 778h41q77 -1 126.5 -53t49.5 -130v-89q0 -92 80 -92v-133q-77 0 -77 -97v-89q0 -82 -49.5 -133t-133.5 -51q0 -1 -37 -1v126q45 0 65 22t20 66v80q0 28 2.5 48.5t9.5 41t21.5 34t35.5 18.5q-22 7 -36 20t-20.5 33t-8.5 39t-2 46v86q0 39 -23 61t-64 22v125z" />
<glyph unicode="~" horiz-adv-x="643" d="M55 303q11 41 35 72t62 49.5t86 18.5q28 0 52.5 -5.5t41 -14t31 -17t29 -14.5t28.5 -6q22 0 39 13.5t23 36.5l106 -29q-17 -69 -65.5 -106.5t-118.5 -37.5q-36 0 -69.5 14t-61.5 28.5t-50 14.5q-46 0 -63 -52z" />
<glyph unicode="&#xa1;" horiz-adv-x="295" d="M135 645q21 0 37 -8.5t25 -25t9 -38.5q0 -33 -19.5 -52t-51.5 -19q-31 0 -51 19t-20 52t20 52.5t51 19.5zM172 440l47 -246v-244h-168v244l48 246h73z" />
<glyph unicode="&#xa2;" horiz-adv-x="561" d="M527 178q-12 -77 -63 -126t-130 -60l-16 -84h-143l14 101q-68 28 -109 91.5t-41 155.5q0 115 61.5 185.5t152.5 83.5l13 81h148l-17 -100q51 -22 86 -65.5t44 -107.5h-143q-22 71 -92 71q-43 0 -74 -36.5t-31 -112.5q0 -71 32 -106.5t74 -35.5q35 0 58.5 17.5t32.5 47.5 h143z" />
<glyph unicode="&#xa3;" horiz-adv-x="604" d="M55 0v113q1 1 12.5 7.5t25.5 17.5t29 26.5t24.5 38.5t9.5 49q0 30 -14 52h-94v132h49q-15 36 -15 82q0 78 64.5 131.5t169.5 53.5q118 0 199 -71l-63 -106q-67 51 -131 51q-45 0 -70 -23t-25 -52t16 -66h158v-132l-116 -2q13 -27 13 -70q0 -8 -1.5 -17t-4 -18t-6 -18.5 t-8 -17.5t-9.5 -15.5t-11 -13.5h277v-132h-479z" />
<glyph unicode="&#xa5;" horiz-adv-x="662" d="M546 79h-143v-79h-148v79h-145v116h145v51h-145v117h89l-172 326h167l138 -279l135 279h169l-176 -326h86v-117h-143v-51h143v-116z" />
<glyph unicode="&#xa6;" horiz-adv-x="290" d="M66 412v357h158v-357h-158zM66 -92v354h158v-354h-158z" />
<glyph unicode="&#xa7;" horiz-adv-x="534" d="M470 164q4 -75 -54 -123t-168 -48q-109 0 -200 64l70 99q55 -48 147 -44q27 1 46.5 13t19.5 30q0 8 -1 13t-1.5 8.5t-4 5.5t-6 3.5t-9.5 2t-13 1t-18 1t-22 1.5q-78 4 -133 41.5t-57 103.5q-3 66 41 111q-26 30 -29 85q-3 72 51 121.5t152 53.5q111 5 192 -53l-65 -103 q-2 2 -5.5 5t-16.5 11t-27 13.5t-36.5 10t-46.5 3.5q-32 -1 -48.5 -14.5t-16.5 -33.5q1 -15 7 -21.5t26 -10.5t66 -7q25 -1 47 -5.5t42 -12.5t36 -20.5t28.5 -28t19.5 -36t8 -44.5q3 -73 -45 -118q21 -29 24 -78zM189 350q2 -44 87 -42t84 43q0 39 -81 40h-10 q-80 -3 -80 -41z" />
<glyph unicode="&#xa8;" horiz-adv-x="378" d="M82.5 562q-29.5 0 -52.5 22.5t-23 52.5q0 32 23 54.5t52 22.5q20 0 37.5 -10t28 -28t10.5 -39q0 -30 -23 -52.5t-52.5 -22.5zM297 562q-30 0 -53 22.5t-23 52.5q0 32 23 54.5t53 22.5q29 0 52 -22.5t23 -54.5q0 -30 -23 -52.5t-52 -22.5z" />
<glyph unicode="&#xa9;" horiz-adv-x="834" d="M416 -11q-96 0 -175 43.5t-126 125t-47 185.5q0 78 27 144t74 111t111.5 71t138.5 26q73 0 136.5 -26t110 -71t73.5 -111t27 -144q0 -103 -46.5 -184.5t-126 -125.5t-177.5 -44zM419 65q46 0 87 13t74 38t57.5 58.5t38 77t13.5 91.5q0 125 -78 199.5t-192 74.5 t-191.5 -77t-77.5 -197q0 -123 76.5 -200.5t192.5 -77.5zM420 169q-68 0 -113 46t-45 124t45 126.5t113 48.5q57 0 100 -33.5t49 -97.5h-74q-4 26 -25 44.5t-50 18.5q-34 0 -57.5 -28.5t-23.5 -77.5q0 -34 11 -57t29 -33.5t41 -10.5q29 0 49 16t25 42h74q-5 -60 -47.5 -94 t-100.5 -34z" />
<glyph unicode="&#xaa;" horiz-adv-x="434" d="M170 303q-32 0 -60 13t-45 38t-17 56v8q0 53 40.5 82t101.5 29q22 0 41.5 -5.5t26.5 -10.5q0 38 -3 44q-8 29 -54 29q-62 0 -96 -29l-43 65q27 23 66.5 35.5t80.5 12.5q160 0 160 -136v-227h-88l-6 53q-29 -57 -105 -57zM201 382q21 0 38 12t19 27v40q-18 9 -40 9 q-15 0 -30 -3.5t-28 -15t-13 -28.5q0 -41 54 -41zM57 152v90h314v-90h-314z" />
<glyph unicode="&#xab;" horiz-adv-x="581" d="M404 81l-126 164v53l121 162l103 -77l-85 -110l85 -114zM171 81l-125 164v53l120 162l104 -77l-86 -110l86 -114z" />
<glyph unicode="&#xad;" horiz-adv-x="436" d="M63 242v135h309v-135h-309z" />
<glyph unicode="&#xae;" horiz-adv-x="834" d="M416 -11q-96 0 -175 43.5t-126 125t-47 185.5q0 78 27 144t74 111t111.5 71t138.5 26q73 0 136.5 -26t110 -71t73.5 -111t27 -144q0 -103 -46.5 -184.5t-126 -125.5t-177.5 -44zM419 65q46 0 87 13t74 38t57.5 58.5t38 77t13.5 91.5q0 125 -78 199.5t-192 74.5 t-191.5 -77t-77.5 -197q0 -123 76.5 -200.5t192.5 -77.5zM312 177v329h129q28 0 50 -8.5t35 -23.5t20 -33.5t7 -38.5q0 -32 -16.5 -60t-35.5 -34l62 -131h-70l-60 121h-50v-121h-71zM383 366h44q26 0 38 7.5t12 28.5q0 22 -12 29.5t-41 7.5h-41v-73z" />
<glyph unicode="&#xaf;" horiz-adv-x="382" d="M7 580v102h369v-102h-369z" />
<glyph unicode="&#xb0;" horiz-adv-x="422" d="M210 354q-66 0 -118.5 52t-52.5 121q0 70 52 121t119 51t120.5 -51t53.5 -121t-53.5 -121.5t-120.5 -51.5zM211 461q26 0 46 19.5t20 46.5q0 18 -9 33.5t-24.5 24.5t-32.5 9q-27 0 -46 -19.5t-19 -47.5q0 -27 19.5 -46.5t45.5 -19.5z" />
<glyph unicode="&#xb1;" horiz-adv-x="638" d="M532 162v-114h-431v114h152v132h-158v123h158v161h128v-161h159v-123h-159v-132h151z" />
<glyph unicode="&#xb4;" horiz-adv-x="244" d="M7 637l88 195l143 -88l-116 -107h-115z" />
<glyph unicode="&#xb6;" horiz-adv-x="677" d="M447 0h-148v235h-13q-109 0 -171 66.5t-62 160.5q0 95 62 161t172 66h160v-689zM523 0v689h98v-689h-98z" />
<glyph unicode="&#xb7;" horiz-adv-x="192" d="M97 267q-34 0 -57.5 22t-23.5 57t24 58t57 23t56.5 -23t23.5 -58t-23 -57t-57 -22z" />
<glyph unicode="&#xb8;" horiz-adv-x="398" d="M136 5h70l-6 -41q41 -6 70 -35t29 -78q0 -53 -36 -86t-101 -33q-28 0 -77 15l20 83q6 -2 26 -5t31 -3q19 0 30.5 8.5t11.5 23.5q0 29 -47 33l-41 1z" />
<glyph unicode="&#xba;" horiz-adv-x="417" d="M208 305q-44 0 -80.5 19t-58 54.5t-21.5 81.5v55q0 69 47.5 111.5t112.5 42.5q66 0 114 -43.5t48 -112.5v-54q0 -46 -22 -81.5t-58.5 -54t-81.5 -18.5zM208 393q26 0 43 17.5t17 49.5v52q0 32 -17 51t-43 19q-27 0 -43 -18t-16 -49v-55q0 -32 16.5 -49.5t42.5 -17.5z M51 152v90h314v-90h-314z" />
<glyph unicode="&#xbb;" horiz-adv-x="581" d="M154 462l125 -164v-53l-120 -162l-104 77l86 111l-86 113zM387 462l125 -164v-53l-120 -162l-104 77l85 111l-85 113z" />
<glyph unicode="&#xbf;" horiz-adv-x="551" d="M268 644q32 0 52 -19t20 -52t-20 -52t-52 -19t-51 19t-19 52t19 52t51 19zM330 441q0 -51 -16.5 -91.5t-36.5 -62.5t-49 -44q-37 -26 -51.5 -45.5t-14.5 -48.5q0 -35 24 -56t63 -21q35 0 63 20t33 58l131 -4q-2 -92 -68.5 -149t-161.5 -57q-94 0 -157.5 56t-64.5 139 q0 15 2.5 29.5t5 26t9.5 24t11 20.5t14 20t14.5 17t17 16.5t16.5 14.5t17.5 14t15.5 13q34 27 47 51.5t13 59.5h123z" />
<glyph unicode="&#xc0;" horiz-adv-x="683" d="M278 740l-116 98l167 107l87 -205h-138zM512 0l-43 124h-253l-41 -124h-158l246 689h155l248 -689h-154zM340 499l-84 -254h172z" />
<glyph unicode="&#xc1;" horiz-adv-x="683" d="M274 740l88 195l142 -88l-115 -107h-115zM512 0l-43 124h-253l-41 -124h-158l246 689h155l248 -689h-154zM340 499l-84 -254h172z" />
<glyph unicode="&#xc2;" horiz-adv-x="683" d="M233 727l-59 70l104 106h126l105 -100l-60 -75l-107 57zM512 0l-43 124h-253l-41 -124h-158l246 689h155l248 -689h-154zM340 499l-84 -254h172z" />
<glyph unicode="&#xc3;" horiz-adv-x="683" d="M133 765q3 49 36.5 88t84.5 42q28 2 53 -4t40.5 -13.5t34.5 -15t35 -7.5q46 -3 60 46l75 -26q-2 -44 -36 -85.5t-83 -44.5q-42 -3 -85.5 18t-73.5 23q-52 1 -77 -43l-16 5.5t-32 11.5zM512 0l-43 124h-253l-41 -124h-158l246 689h155l248 -689h-154zM340 499l-84 -254 h172z" />
<glyph unicode="&#xc4;" horiz-adv-x="683" d="M234.5 742q-29.5 0 -52.5 22.5t-23 53.5t23 53.5t52.5 22.5t52.5 -22.5t23 -53.5t-23 -53.5t-52.5 -22.5zM449 742q-29 0 -52.5 22.5t-23.5 53.5t23 53.5t53 22.5q29 0 52 -22.5t23 -53.5q0 -30 -23 -53t-52 -23zM512 0l-43 124h-253l-41 -124h-158l246 689h155l248 -689 h-154zM340 499l-84 -254h172z" />
<glyph unicode="&#xc5;" horiz-adv-x="683" d="M341 721q-48 0 -85.5 36.5t-37.5 85.5q0 50 38 87.5t85 37.5q48 0 86.5 -37.5t38.5 -87.5q0 -49 -38.5 -85.5t-86.5 -36.5zM341 800q19 0 31.5 13.5t12.5 31.5t-13 31t-31 13q-17 0 -30.5 -13.5t-13.5 -30.5q0 -18 13.5 -31.5t30.5 -13.5zM512 0l-43 124h-253l-41 -124 h-158l246 689h155l248 -689h-154zM340 499l-84 -254h172z" />
<glyph unicode="&#xc6;" horiz-adv-x="955" d="M-5 0l358 689h553v-134h-317v-142h249v-134h-249v-145h317v-134h-465v137h-209l-73 -137h-164zM296 264h145v272z" />
<glyph unicode="&#xc7;" horiz-adv-x="694" d="M473 -153q0 -53 -36 -86t-100 -33q-29 0 -77 15l19 83q6 -2 26.5 -4.5t31.5 -2.5q18 0 29.5 8t11.5 23q0 30 -46 33l-41 2l18 107q-53 8 -100 32t-86.5 65.5t-62.5 106.5t-23 146q0 88 26 158t71 113t101 65t119 22q123 0 205.5 -68t96.5 -184h-150q-8 54 -50.5 86 t-99.5 32q-25 0 -48 -7t-45.5 -23t-39 -40.5t-27 -64t-10.5 -89.5q0 -58 15.5 -102t41 -68.5t54.5 -36.5t61 -12q58 0 99.5 34t49.5 86h151q-7 -60 -32.5 -108t-64 -78.5t-85 -47t-98.5 -19.5l-4 -30q27 -4 48.5 -16.5t36 -38t14.5 -58.5z" />
<glyph unicode="&#xc8;" d="M237 740l-117 98l167 107l87 -205h-137zM68 0v689h468v-133h-321v-145h247v-129h-247v-149h324v-133h-471z" />
<glyph unicode="&#xc9;" d="M233 740l88 195l143 -88l-116 -107h-115zM68 0v689h468v-133h-321v-145h247v-129h-247v-149h324v-133h-471z" />
<glyph unicode="&#xca;" d="M192 727l-59 70l105 106h125l106 -100l-61 -75l-106 57zM68 0v689h468v-133h-321v-145h247v-129h-247v-149h324v-133h-471z" />
<glyph unicode="&#xcb;" d="M194 742q-29 0 -52.5 22.5t-23.5 53.5t23 53.5t53 22.5t53 -22.5t23 -53.5t-23.5 -53.5t-52.5 -22.5zM408 742q-29 0 -52 22.5t-23 53.5t23 53.5t52 22.5t52 -22.5t23 -53.5q0 -30 -23 -53t-52 -23zM68 0v689h468v-133h-321v-145h247v-129h-247v-149h324v-133h-471z" />
<glyph unicode="&#xcc;" horiz-adv-x="291" d="M100 745l-108 98l145 86l81 -184h-118zM68 0v689h147v-689h-147z" />
<glyph unicode="&#xcd;" horiz-adv-x="291" d="M75 738l81 184l145 -86l-108 -98h-118zM68 0v689h147v-689h-147z" />
<glyph unicode="&#xce;" horiz-adv-x="291" d="M79 729l-77 71l80 101h126l81 -100l-75 -72l-69 53zM68 0v689h147v-689h-147z" />
<glyph unicode="&#xcf;" horiz-adv-x="291" d="M59 738q-22 0 -37 9t-23.5 26t-8.5 42q0 36 18 55t51 19q32 0 49.5 -19t17.5 -55q0 -37 -17.5 -57t-49.5 -20zM235 738q-32 0 -50 20t-18 57q0 36 17.5 55t50.5 19q21 0 36 -8.5t23.5 -25t8.5 -40.5q0 -37 -18 -57t-50 -20zM68 -1v689h147v-689h-147z" />
<glyph unicode="&#xd0;" horiz-adv-x="686" d="M656 348q0 -175 -90.5 -261.5t-245.5 -86.5h-229v280h-75v125h75v284h229q150 0 243 -89.5t93 -251.5zM239 138h81q90 0 139.5 51.5t49.5 158.5q0 103 -51 153t-138 50h-81v-146h112v-125h-112v-142z" />
<glyph unicode="&#xd1;" horiz-adv-x="698" d="M137 757q3 49 36.5 87.5t84.5 42.5q35 2 64.5 -8t54 -21t44.5 -12q45 -3 60 46l75 -26q-2 -27 -16.5 -55.5t-42 -50t-61.5 -24.5q-41 -3 -84.5 18.5t-74.5 22.5q-51 2 -76 -43l-16 5.5t-32 11.5zM68 0v689h153l262 -424v424h148v-689h-154l-262 408v-408h-147z" />
<glyph unicode="&#xd2;" horiz-adv-x="702" d="M288 740l-116 98l167 107l87 -205h-138zM351 -10q-65 0 -121.5 23t-100 66.5t-68 112.5t-24.5 155t24.5 154t68 111t100 65.5t121.5 22.5t121.5 -23t100 -66t68 -111t24.5 -153q0 -86 -24.5 -154.5t-68 -112.5t-100 -67t-121.5 -23zM351 124q32 0 60.5 12.5t53 38 t38.5 70t14 102.5t-14.5 101.5t-39 68t-52.5 37t-60 12.5q-18 0 -34.5 -4t-33.5 -12t-31 -20t-26.5 -29.5t-21.5 -39.5t-14 -51t-5 -63q0 -114 48 -168.5t118 -54.5z" />
<glyph unicode="&#xd3;" horiz-adv-x="702" d="M284 740l88 195l143 -88l-115 -107h-116zM351 -10q-65 0 -121.5 23t-100 66.5t-68 112.5t-24.5 155t24.5 154t68 111t100 65.5t121.5 22.5t121.5 -23t100 -66t68 -111t24.5 -153q0 -86 -24.5 -154.5t-68 -112.5t-100 -67t-121.5 -23zM351 124q32 0 60.5 12.5t53 38 t38.5 70t14 102.5t-14.5 101.5t-39 68t-52.5 37t-60 12.5q-18 0 -34.5 -4t-33.5 -12t-31 -20t-26.5 -29.5t-21.5 -39.5t-14 -51t-5 -63q0 -114 48 -168.5t118 -54.5z" />
<glyph unicode="&#xd4;" horiz-adv-x="702" d="M243 727l-59 70l105 106h125l106 -100l-60 -75l-107 57zM351 -10q-65 0 -121.5 23t-100 66.5t-68 112.5t-24.5 155t24.5 154t68 111t100 65.5t121.5 22.5t121.5 -23t100 -66t68 -111t24.5 -153q0 -86 -24.5 -154.5t-68 -112.5t-100 -67t-121.5 -23zM351 124 q32 0 60.5 12.5t53 38t38.5 70t14 102.5t-14.5 101.5t-39 68t-52.5 37t-60 12.5q-18 0 -34.5 -4t-33.5 -12t-31 -20t-26.5 -29.5t-21.5 -39.5t-14 -51t-5 -63q0 -114 48 -168.5t118 -54.5z" />
<glyph unicode="&#xd5;" horiz-adv-x="702" d="M143 765q3 49 36.5 88t84.5 42q16 1 31.5 -0.5t27.5 -5t23 -7.5t21 -9t19.5 -9t20 -6.5t20.5 -2.5q45 -3 60 46l75 -26q-3 -44 -37 -85.5t-83 -44.5q-41 -3 -84.5 18t-74.5 23q-52 1 -76 -43l-16 5.5t-32 11.5zM351 -10q-65 0 -121.5 23t-100 66.5t-68 112.5t-24.5 155 t24.5 154t68 111t100 65.5t121.5 22.5t121.5 -23t100 -66t68 -111t24.5 -153q0 -86 -24.5 -154.5t-68 -112.5t-100 -67t-121.5 -23zM351 124q32 0 60.5 12.5t53 38t38.5 70t14 102.5t-14.5 101.5t-39 68t-52.5 37t-60 12.5q-18 0 -34.5 -4t-33.5 -12t-31 -20t-26.5 -29.5 t-21.5 -39.5t-14 -51t-5 -63q0 -114 48 -168.5t118 -54.5z" />
<glyph unicode="&#xd6;" horiz-adv-x="702" d="M245.5 742q-29.5 0 -52.5 22.5t-23 53.5t23 53.5t52.5 22.5t52.5 -22.5t23 -53.5t-23 -53.5t-52.5 -22.5zM460 742q-30 0 -53 22.5t-23 53.5t23 53.5t53 22.5q29 0 51.5 -22.5t22.5 -53.5q0 -30 -22.5 -53t-51.5 -23zM351 -10q-65 0 -121.5 23t-100 66.5t-68 112.5 t-24.5 155t24.5 154t68 111t100 65.5t121.5 22.5t121.5 -23t100 -66t68 -111t24.5 -153q0 -86 -24.5 -154.5t-68 -112.5t-100 -67t-121.5 -23zM351 124q32 0 60.5 12.5t53 38t38.5 70t14 102.5t-14.5 101.5t-39 68t-52.5 37t-60 12.5q-18 0 -34.5 -4t-33.5 -12t-31 -20 t-26.5 -29.5t-21.5 -39.5t-14 -51t-5 -63q0 -114 48 -168.5t118 -54.5z" />
<glyph unicode="&#xd7;" horiz-adv-x="606" d="M73 187l141 142l-137 138l86 87l138 -139l140 141l92 -91l-140 -141l139 -139l-88 -87l-138 139l-142 -141z" />
<glyph unicode="&#xd8;" horiz-adv-x="702" d="M351 -10q-95 0 -167 45l-40 -56l-78 55l47 65q-76 95 -76 248q0 86 24.5 154t68 111t100 65.5t121.5 22.5q92 0 166 -44l39 53l76 -55l-43 -61q76 -94 76 -246q0 -86 -24.5 -154.5t-68 -112.5t-100 -67t-121.5 -23zM185 347q0 -69 21 -121l229 315q-39 25 -84 25 q-18 0 -34.5 -4t-33.5 -12t-31 -20t-26.5 -29.5t-21.5 -39.5t-14 -51t-5 -63zM517 347q0 70 -21 119l-229 -318q37 -24 84 -24q32 0 60.5 12.5t53 38t38.5 70t14 102.5z" />
<glyph unicode="&#xd9;" horiz-adv-x="658" d="M265 731l-117 98l167 107l88 -205h-138zM330 -10q-59 0 -109 18.5t-88.5 54t-60.5 93t-22 130.5v403h148v-402q0 -41 10.5 -71.5t29.5 -48.5t42 -27t50 -9q55 0 93 39t38 117v402h147v-403q0 -73 -22 -130.5t-60 -93t-88 -54t-108 -18.5z" />
<glyph unicode="&#xda;" horiz-adv-x="658" d="M260 731l88 195l143 -88l-116 -107h-115zM330 -10q-59 0 -109 18.5t-88.5 54t-60.5 93t-22 130.5v403h148v-402q0 -41 10.5 -71.5t29.5 -48.5t42 -27t50 -9q55 0 93 39t38 117v402h147v-403q0 -73 -22 -130.5t-60 -93t-88 -54t-108 -18.5z" />
<glyph unicode="&#xdb;" horiz-adv-x="658" d="M220 718l-59 71l105 105h125l106 -100l-61 -75l-106 57zM330 -10q-59 0 -109 18.5t-88.5 54t-60.5 93t-22 130.5v403h148v-402q0 -41 10.5 -71.5t29.5 -48.5t42 -27t50 -9q55 0 93 39t38 117v402h147v-403q0 -73 -22 -130.5t-60 -93t-88 -54t-108 -18.5z" />
<glyph unicode="&#xdc;" horiz-adv-x="658" d="M222.5 733q-29.5 0 -53 23t-23.5 53q0 31 23 54t53 23t53 -23t23 -54q0 -30 -23 -53t-52.5 -23zM436 733q-29 0 -52 23t-23 53q0 31 23 54t52 23q19 0 36.5 -10.5t28 -28t10.5 -38.5q0 -20 -10.5 -37.5t-28 -28t-36.5 -10.5zM330 -10q-59 0 -109 18.5t-88.5 54t-60.5 93 t-22 130.5v403h148v-402q0 -41 10.5 -71.5t29.5 -48.5t42 -27t50 -9q55 0 93 39t38 117v402h147v-403q0 -73 -22 -130.5t-60 -93t-88 -54t-108 -18.5z" />
<glyph unicode="&#xdd;" horiz-adv-x="644" d="M255 736l88 195l143 -88l-115 -107h-116zM245 0v257l-228 432h167l138 -279l135 279h170l-234 -432v-257h-148z" />
<glyph unicode="&#xde;" horiz-adv-x="612" d="M68 0v689h151v-115h88q120 0 191.5 -65t71.5 -169q0 -72 -32 -125t-92 -82t-141 -29h-87v-104h-150zM219 237h92q47 0 76 28t30 75q0 31 -13 55t-37 37t-56 13h-92v-208z" />
<glyph unicode="&#xdf;" horiz-adv-x="603" d="M61 0v446q0 117 71 183.5t175 66.5q83 0 146.5 -43t78.5 -101l-95 -150q56 -16 91.5 -63t35.5 -115q0 -99 -64.5 -164t-169.5 -65q-29 0 -54 5v131q11 -3 37 -3q31 0 54 14t33 34.5t10 43.5q0 89 -114 90h-10v31l86 184q-15 40 -76 40q-24 0 -43.5 -12t-33 -39.5 t-13.5 -66.5v-447h-145z" />
<glyph unicode="&#xe0;" horiz-adv-x="532" d="M216 583l-116 98l167 107l87 -205h-138zM215 -8q-77 0 -128.5 46.5t-51.5 112.5q0 69 56.5 118t159.5 49q52 0 92 -13v16q0 90 -96 90q-56 0 -93 -37l-90 69q28 39 77.5 62t116.5 23q103 0 165.5 -57t62.5 -167v-304h-116l-11 59q-7 -12 -21 -25t-48 -27.5t-75 -14.5z M249 103q17 0 33.5 6t29 15.5t21 21t9.5 23.5v46q-23 6 -77 6q-29 0 -49.5 -8t-30 -21.5t-9.5 -31.5q0 -28 19.5 -42.5t53.5 -14.5z" />
<glyph unicode="&#xe1;" horiz-adv-x="532" d="M182 580l89 195l142 -88l-115 -107h-116zM215 -8q-77 0 -128.5 46.5t-51.5 112.5q0 69 56.5 118t159.5 49q52 0 92 -13v16q0 90 -96 90q-56 0 -93 -37l-90 69q28 39 77.5 62t116.5 23q103 0 165.5 -57t62.5 -167v-304h-116l-11 59q-7 -12 -21 -25t-48 -27.5t-75 -14.5z M249 103q17 0 33.5 6t29 15.5t21 21t9.5 23.5v46q-23 6 -77 6q-29 0 -49.5 -8t-30 -21.5t-9.5 -31.5q0 -28 19.5 -42.5t53.5 -14.5z" />
<glyph unicode="&#xe2;" horiz-adv-x="532" d="M156 574l-59 71l105 106h125l106 -100l-61 -76l-106 57zM215 -8q-77 0 -128.5 46.5t-51.5 112.5q0 69 56.5 118t159.5 49q52 0 92 -13v16q0 90 -96 90q-56 0 -93 -37l-90 69q28 39 77.5 62t116.5 23q103 0 165.5 -57t62.5 -167v-304h-116l-11 59q-7 -12 -21 -25 t-48 -27.5t-75 -14.5zM249 103q17 0 33.5 6t29 15.5t21 21t9.5 23.5v46q-23 6 -77 6q-29 0 -49.5 -8t-30 -21.5t-9.5 -31.5q0 -28 19.5 -42.5t53.5 -14.5z" />
<glyph unicode="&#xe3;" horiz-adv-x="532" d="M56 618q3 49 37 87.5t85 42.5q27 2 52 -4t40.5 -14t34.5 -15t35 -8q46 -2 61 47l74 -26q-2 -45 -36 -86t-83 -44q-41 -4 -85 17.5t-74 22.5q-52 2 -77 -42q1 0 -15 5.5t-33 10.5zM215 -8q-77 0 -128.5 46.5t-51.5 112.5q0 69 56.5 118t159.5 49q52 0 92 -13v16 q0 90 -96 90q-56 0 -93 -37l-90 69q28 39 77.5 62t116.5 23q103 0 165.5 -57t62.5 -167v-304h-116l-11 59q-7 -12 -21 -25t-48 -27.5t-75 -14.5zM249 103q17 0 33.5 6t29 15.5t21 21t9.5 23.5v46q-23 6 -77 6q-29 0 -49.5 -8t-30 -21.5t-9.5 -31.5q0 -28 19.5 -42.5 t53.5 -14.5z" />
<glyph unicode="&#xe4;" horiz-adv-x="532" d="M159 594q-29 0 -52.5 22.5t-23.5 52.5q0 32 23 54.5t53 22.5q19 0 36.5 -10t28.5 -28t11 -39q0 -20 -11 -37.5t-28.5 -27.5t-36.5 -10zM373 594q-29 0 -52 22.5t-23 52.5q0 32 23 54.5t52 22.5t52 -22.5t23 -54.5q0 -20 -10.5 -37.5t-28 -27.5t-36.5 -10zM215 -8 q-77 0 -128.5 46.5t-51.5 112.5q0 69 56.5 118t159.5 49q52 0 92 -13v16q0 90 -96 90q-56 0 -93 -37l-90 69q28 39 77.5 62t116.5 23q103 0 165.5 -57t62.5 -167v-304h-116l-11 59q-7 -12 -21 -25t-48 -27.5t-75 -14.5zM249 103q17 0 33.5 6t29 15.5t21 21t9.5 23.5v46 q-23 6 -77 6q-29 0 -49.5 -8t-30 -21.5t-9.5 -31.5q0 -28 19.5 -42.5t53.5 -14.5z" />
<glyph unicode="&#xe5;" horiz-adv-x="532" d="M265 564q-49 0 -86 36.5t-37 85.5q0 50 37.5 87.5t85.5 37.5q47 0 85.5 -37.5t38.5 -87.5q0 -49 -38.5 -85.5t-85.5 -36.5zM265 643q18 0 30.5 13t12.5 32q0 8 -3 16.5t-9 14.5t-14 9.5t-17 3.5q-18 0 -31.5 -13.5t-13.5 -30.5q0 -18 13.5 -31.5t31.5 -13.5zM215 -8 q-77 0 -128.5 46.5t-51.5 112.5q0 69 56.5 118t159.5 49q52 0 92 -13v16q0 90 -96 90q-56 0 -93 -37l-90 69q28 39 77.5 62t116.5 23q103 0 165.5 -57t62.5 -167v-304h-116l-11 59q-7 -12 -21 -25t-48 -27.5t-75 -14.5zM249 103q17 0 33.5 6t29 15.5t21 21t9.5 23.5v46 q-23 6 -77 6q-29 0 -49.5 -8t-30 -21.5t-9.5 -31.5q0 -28 19.5 -42.5t53.5 -14.5z" />
<glyph unicode="&#xe6;" horiz-adv-x="819" d="M792 59q-70 -69 -210 -69q-114 0 -185 71q-64 -69 -187 -69q-90 0 -145 46t-55 113q0 69 56.5 118t159.5 49q51 0 92 -13v16q0 90 -96 90q-56 0 -93 -37l-90 69q27 39 77 62t117 23q115 0 171 -65q67 65 165 65q50 0 93 -15.5t76.5 -46t52.5 -80.5t19 -113v-58h-346 q2 -51 38 -79t87 -28q28 0 54 6t47 16.5t36 24.5zM464 310h208q0 50 -29 76.5t-75 26.5q-42 0 -72 -27.5t-32 -75.5zM224 103q37 0 65 26t28 69v17q-23 6 -77 6q-44 -1 -68 -17.5t-24 -43.5q0 -19 9.5 -32t26.5 -19t40 -6z" />
<glyph unicode="&#xe7;" horiz-adv-x="561" d="M407 -152q0 -53 -36 -86t-100 -33q-29 0 -77 15l19 83q6 -2 26.5 -4.5t31.5 -2.5q18 0 29.5 8t11.5 23q0 29 -46 33l-41 2l17 107q-57 10 -102.5 42t-73.5 89.5t-28 131.5q0 64 20.5 116.5t55.5 86t79.5 51.5t92.5 18q90 0 158 -50t82 -145h-142q-20 71 -93 71 q-20 0 -38.5 -8t-35 -24.5t-26.5 -46.5t-10 -69q0 -71 33.5 -107t76.5 -36q35 0 59 17.5t33 47.5h143q-8 -55 -37 -95.5t-74 -64t-103 -28.5l-4 -29q42 -6 70.5 -35t28.5 -78z" />
<glyph unicode="&#xe8;" horiz-adv-x="560" d="M233 583l-117 98l167 107l88 -205h-138zM295 -10q-52 0 -97.5 16.5t-81.5 48.5t-56.5 83.5t-20.5 117.5q0 65 20 117.5t54 85.5t77.5 51t91.5 18q50 0 93 -15.5t76.5 -46t52.5 -80.5t19 -113v-58h-346q2 -51 38 -79t87 -28q41 0 77.5 13t58.5 34l67 -96q-70 -69 -210 -69 zM177 310h208q0 34 -14 57.5t-37 34.5t-53 11q-42 0 -72 -27.5t-32 -75.5z" />
<glyph unicode="&#xe9;" horiz-adv-x="560" d="M199 581l88 195l143 -88l-116 -107h-115zM295 -10q-52 0 -97.5 16.5t-81.5 48.5t-56.5 83.5t-20.5 117.5q0 65 20 117.5t54 85.5t77.5 51t91.5 18q50 0 93 -15.5t76.5 -46t52.5 -80.5t19 -113v-58h-346q2 -51 38 -79t87 -28q41 0 77.5 13t58.5 34l67 -96 q-70 -69 -210 -69zM177 310h208q0 34 -14 57.5t-37 34.5t-53 11q-42 0 -72 -27.5t-32 -75.5z" />
<glyph unicode="&#xea;" horiz-adv-x="560" d="M174 575l-60 71l105 106h125l106 -100l-60 -76l-107 57zM295 -10q-52 0 -97.5 16.5t-81.5 48.5t-56.5 83.5t-20.5 117.5q0 65 20 117.5t54 85.5t77.5 51t91.5 18q50 0 93 -15.5t76.5 -46t52.5 -80.5t19 -113v-58h-346q2 -51 38 -79t87 -28q41 0 77.5 13t58.5 34l67 -96 q-70 -69 -210 -69zM177 310h208q0 34 -14 57.5t-37 34.5t-53 11q-42 0 -72 -27.5t-32 -75.5z" />
<glyph unicode="&#xeb;" horiz-adv-x="560" d="M175.5 594q-29.5 0 -52.5 22.5t-23 52.5q0 32 23 54.5t53 22.5q19 0 36.5 -10t28 -28t10.5 -39q0 -30 -23 -52.5t-52.5 -22.5zM390 594q-19 0 -36.5 10t-28.5 27.5t-11 37.5q0 32 23 54.5t53 22.5q29 0 52 -22.5t23 -54.5q0 -30 -23 -52.5t-52 -22.5zM295 -10 q-52 0 -97.5 16.5t-81.5 48.5t-56.5 83.5t-20.5 117.5q0 65 20 117.5t54 85.5t77.5 51t91.5 18q50 0 93 -15.5t76.5 -46t52.5 -80.5t19 -113v-58h-346q2 -51 38 -79t87 -28q41 0 77.5 13t58.5 34l67 -96q-70 -69 -210 -69zM177 310h208q0 34 -14 57.5t-37 34.5t-53 11 q-42 0 -72 -27.5t-32 -75.5z" />
<glyph unicode="&#xec;" horiz-adv-x="272" d="M80 577l-62 110l143 73l43 -183h-124zM67 0v518h143v-518h-143z" />
<glyph unicode="&#xed;" horiz-adv-x="273" d="M75 581l47 192l143 -75l-74 -117h-116zM67 0v518h143v-518h-143z" />
<glyph unicode="&#xee;" horiz-adv-x="276" d="M68 582l-76 71l83 103h125l83 -102l-73 -71l-73 52zM67 0v518h143v-518h-143z" />
<glyph unicode="&#xef;" horiz-adv-x="311" d="M68 588q-67 0 -67 71q0 69 67 69q69 0 69 -69q0 -71 -69 -71zM243 587q-68 0 -68 72q0 69 68 69q67 0 67 -69q0 -72 -67 -72zM81 0v518h143v-518h-143z" />
<glyph unicode="&#xf0;" horiz-adv-x="588" d="M544 286q0 -59 -13 -108t-36.5 -83t-56 -57t-70 -34t-79.5 -11q-49 0 -94 17t-80.5 49t-56.5 83.5t-21 116.5q0 50 14 93t38 74.5t55.5 54t68 34t74.5 11.5q46 0 72 -17q-8 27 -32 76l-115 -29l-20 63l95 33q-20 32 -46 67l127 65q29 -46 52 -86l88 31l32 -90l-78 -20 q81 -168 82 -333zM290 118q41 0 74 33.5t33 103.5q0 73 -29 109.5t-78 36.5q-46 0 -77 -37.5t-31 -106.5q0 -73 33 -106t75 -33z" />
<glyph unicode="&#xf1;" horiz-adv-x="581" d="M87 622q3 49 37 87.5t85 42.5q22 1 42.5 -2.5t35.5 -9.5t28.5 -12.5t28 -11t28.5 -5.5q45 -3 60 47l74 -27q-2 -44 -36 -85t-83 -45q-41 -3 -85 18.5t-74 22.5q-52 2 -77 -43q1 0 -15 6t-32 11zM61 0v518h114l17 -53q16 26 59.5 46.5t88.5 20.5q83 0 137 -53t54 -161 v-318h-150v310q0 47 -23 72.5t-61 25.5t-62.5 -26.5t-24.5 -71.5v-310h-149z" />
<glyph unicode="&#xf2;" horiz-adv-x="582" d="M242 584l-117 98l167 107l87 -205h-137zM290 -10q-36 0 -71 10t-68 31.5t-58.5 52t-40.5 76t-15 99.5q0 69 23 122.5t61 84.5t81 46.5t88 15.5q47 0 90.5 -16t81.5 -46.5t60.5 -84t22.5 -122.5q0 -67 -23 -120t-60.5 -84.5t-81.5 -48t-90 -16.5zM290 117q43 0 77.5 37 t34.5 105q0 72 -34 108t-78 36q-45 0 -77.5 -35.5t-32.5 -108.5q0 -68 33.5 -105t76.5 -37z" />
<glyph unicode="&#xf3;" horiz-adv-x="582" d="M208 582l88 195l142 -88l-115 -107h-115zM290 -10q-36 0 -71 10t-68 31.5t-58.5 52t-40.5 76t-15 99.5q0 69 23 122.5t61 84.5t81 46.5t88 15.5q47 0 90.5 -16t81.5 -46.5t60.5 -84t22.5 -122.5q0 -67 -23 -120t-60.5 -84.5t-81.5 -48t-90 -16.5zM290 117q43 0 77.5 37 t34.5 105q0 72 -34 108t-78 36q-45 0 -77.5 -35.5t-32.5 -108.5q0 -68 33.5 -105t76.5 -37z" />
<glyph unicode="&#xf4;" horiz-adv-x="582" d="M181 576l-59 71l105 106h125l106 -100l-60 -76l-107 57zM290 -10q-36 0 -71 10t-68 31.5t-58.5 52t-40.5 76t-15 99.5q0 69 23 122.5t61 84.5t81 46.5t88 15.5q47 0 90.5 -16t81.5 -46.5t60.5 -84t22.5 -122.5q0 -67 -23 -120t-60.5 -84.5t-81.5 -48t-90 -16.5zM290 117 q43 0 77.5 37t34.5 105q0 72 -34 108t-78 36q-45 0 -77.5 -35.5t-32.5 -108.5q0 -68 33.5 -105t76.5 -37z" />
<glyph unicode="&#xf5;" horiz-adv-x="582" d="M81 619q4 49 37.5 87.5t84.5 42.5q22 1 42.5 -2.5t35.5 -9.5t28.5 -12.5t28 -11t28.5 -5.5q45 -2 60 47l75 -27q-3 -44 -37 -85t-83 -45q-21 -1 -39 2t-31 9.5t-25.5 12.5t-28.5 11t-35 6q-52 2 -76 -42l-3.5 1t-9 3t-12.5 4.5t-14 4.5t-12.5 4t-9.5 4zM290 -10 q-36 0 -71 10t-68 31.5t-58.5 52t-40.5 76t-15 99.5q0 69 23 122.5t61 84.5t81 46.5t88 15.5q47 0 90.5 -16t81.5 -46.5t60.5 -84t22.5 -122.5q0 -67 -23 -120t-60.5 -84.5t-81.5 -48t-90 -16.5zM290 117q43 0 77.5 37t34.5 105q0 72 -34 108t-78 36q-45 0 -77.5 -35.5 t-32.5 -108.5q0 -68 33.5 -105t76.5 -37z" />
<glyph unicode="&#xf6;" horiz-adv-x="582" d="M184.5 595q-29.5 0 -52.5 22.5t-23 52.5q0 16 6 30.5t16.5 24.5t24.5 16t28 6q30 0 53 -22.5t23 -54.5q0 -30 -23 -52.5t-52.5 -22.5zM399 595q-30 0 -53 22.5t-23 52.5q0 16 6.5 30.5t17 24.5t24 16t28.5 6q29 0 51.5 -22.5t22.5 -54.5q0 -30 -23 -52.5t-51 -22.5z M290 -10q-36 0 -71 10t-68 31.5t-58.5 52t-40.5 76t-15 99.5q0 69 23 122.5t61 84.5t81 46.5t88 15.5q47 0 90.5 -16t81.5 -46.5t60.5 -84t22.5 -122.5q0 -67 -23 -120t-60.5 -84.5t-81.5 -48t-90 -16.5zM290 117q43 0 77.5 37t34.5 105q0 72 -34 108t-78 36 q-45 0 -77.5 -35.5t-32.5 -108.5q0 -68 33.5 -105t76.5 -37z" />
<glyph unicode="&#xf7;" horiz-adv-x="629" d="M311 436q-28 0 -47.5 19t-19.5 49t19 48.5t48 18.5t48.5 -18.5t19.5 -48t-19.5 -49t-48.5 -19.5zM76 278v107h479v-107h-479zM311 88q-28 0 -47.5 19.5t-19.5 48.5q0 20 9 35.5t24.5 24t33.5 8.5q29 0 48.5 -19t19.5 -49q0 -29 -19.5 -48.5t-48.5 -19.5z" />
<glyph unicode="&#xf8;" horiz-adv-x="595" d="M297 -10q-74 0 -137 40l-45 -57l-58 43l49 61q-62 71 -62 182q0 69 23 122.5t61 84.5t81 46.5t88 15.5q76 0 137 -37l45 57l58 -43l-48 -61q63 -71 63 -185q0 -67 -23 -120t-61 -84.5t-81.5 -48t-89.5 -16.5zM187 259q0 -37 11 -66l153 194q-24 16 -54 16 q-45 0 -77.5 -35.5t-32.5 -108.5zM408 259q0 41 -11 70l-154 -195q26 -17 54 -17q42 0 76.5 37t34.5 105z" />
<glyph unicode="&#xf9;" d="M243 582l-116 98l167 107l87 -205h-138zM255 -13q-38 0 -72.5 12.5t-65 37.5t-48.5 71t-18 106v304h160v-304q0 -50 23 -76t59 -26t58.5 26t22.5 76v304h157v-518h-122l-16 59q-11 -21 -33 -37.5t-50 -25.5t-55 -9z" />
<glyph unicode="&#xfa;" d="M210 579l88 195l142 -88l-115 -107h-115zM255 -13q-38 0 -72.5 12.5t-65 37.5t-48.5 71t-18 106v304h160v-304q0 -50 23 -76t59 -26t58.5 26t22.5 76v304h157v-518h-122l-16 59q-11 -21 -33 -37.5t-50 -25.5t-55 -9z" />
<glyph unicode="&#xfb;" d="M184 573l-59 71l105 106h125l106 -100l-60 -76l-107 57zM255 -13q-38 0 -72.5 12.5t-65 37.5t-48.5 71t-18 106v304h160v-304q0 -50 23 -76t59 -26t58.5 26t22.5 76v304h157v-518h-122l-16 59q-11 -21 -33 -37.5t-50 -25.5t-55 -9z" />
<glyph unicode="&#xfc;" d="M186 593q-29 0 -52 22.5t-23 52.5q0 32 23 54.5t52.5 22.5t52.5 -22.5t23 -54.5q0 -20 -11 -37.5t-28.5 -27.5t-36.5 -10zM401 593q-20 0 -37.5 10t-28 27.5t-10.5 37.5q0 32 23 54.5t53 22.5q29 0 51.5 -22.5t22.5 -54.5q0 -19 -10.5 -37t-28 -28t-35.5 -10zM255 -13 q-38 0 -72.5 12.5t-65 37.5t-48.5 71t-18 106v304h160v-304q0 -50 23 -76t59 -26t58.5 26t22.5 76v304h157v-518h-122l-16 59q-11 -21 -33 -37.5t-50 -25.5t-55 -9z" />
<glyph unicode="&#xfd;" horiz-adv-x="554" d="M195 580l88 195l143 -88l-116 -107h-115zM278 -189h-146l78 187l-1 2l-191 518h160l99 -341l99 341h161z" />
<glyph unicode="&#xfe;" horiz-adv-x="596" d="M61 -200v941h151v-283q46 68 139 68q30 0 59 -9.5t56.5 -30.5t48 -51t33 -75.5t12.5 -99.5q0 -67 -20 -119.5t-52.5 -83.5t-69.5 -47t-76 -16q-38 0 -77.5 16.5t-51.5 40.5v-251h-152zM307 117q42 0 74 36.5t32 106.5q0 72 -31.5 107.5t-74.5 35.5q-18 0 -35.5 -7.5 t-34.5 -23.5t-27 -45t-10 -67q0 -70 32.5 -106.5t74.5 -36.5z" />
<glyph unicode="&#xff;" horiz-adv-x="554" d="M171.5 594q-29.5 0 -52.5 22.5t-23 52.5q0 32 23 54.5t53 22.5q14 0 28 -6t24.5 -16t16.5 -24.5t6 -30.5q0 -30 -23 -52.5t-52.5 -22.5zM386 594q-29 0 -52.5 22.5t-23.5 52.5q0 32 23 54.5t53 22.5q29 0 52 -22.5t23 -54.5q0 -20 -11 -37.5t-28 -27.5t-36 -10zM278 -189 h-146l78 187l-1 2l-191 518h160l99 -341l99 341h161z" />
<glyph unicode="&#x100;" horiz-adv-x="683" d="M156 760v101h370v-101h-370zM512 0l-43 124h-253l-41 -124h-158l246 689h155l248 -689h-154zM340 499l-84 -254h172z" />
<glyph unicode="&#x101;" horiz-adv-x="532" d="M81 607v102h369v-102h-369zM215 -8q-77 0 -128.5 46.5t-51.5 112.5q0 69 56.5 118t159.5 49q52 0 92 -13v16q0 90 -96 90q-56 0 -93 -37l-90 69q28 39 77.5 62t116.5 23q103 0 165.5 -57t62.5 -167v-304h-116l-11 59q-7 -12 -21 -25t-48 -27.5t-75 -14.5zM249 103 q17 0 33.5 6t29 15.5t21 21t9.5 23.5v46q-23 6 -77 6q-29 0 -49.5 -8t-30 -21.5t-9.5 -31.5q0 -28 19.5 -42.5t53.5 -14.5z" />
<glyph unicode="&#x102;" horiz-adv-x="683" d="M341 739q-55 0 -103.5 26t-71.5 62l73 71q16 -21 46 -34.5t56.5 -13.5t53.5 13t46 35l76 -72q-22 -35 -71.5 -61t-104.5 -26zM512 0l-43 124h-253l-41 -124h-158l246 689h155l248 -689h-154zM340 499l-84 -254h172z" />
<glyph unicode="&#x103;" horiz-adv-x="532" d="M265 587q-56 0 -104.5 25.5t-71.5 62.5l73 71q16 -21 46 -35t57 -14t54 13.5t46 35.5l75 -72q-14 -23 -40.5 -42.5t-62.5 -32t-72 -12.5zM215 -8q-77 0 -128.5 46.5t-51.5 112.5q0 69 56.5 118t159.5 49q52 0 92 -13v16q0 90 -96 90q-56 0 -93 -37l-90 69q28 39 77.5 62 t116.5 23q103 0 165.5 -57t62.5 -167v-304h-116l-11 59q-7 -12 -21 -25t-48 -27.5t-75 -14.5zM249 103q17 0 33.5 6t29 15.5t21 21t9.5 23.5v46q-23 6 -77 6q-29 0 -49.5 -8t-30 -21.5t-9.5 -31.5q0 -28 19.5 -42.5t53.5 -14.5z" />
<glyph unicode="&#x104;" horiz-adv-x="683" d="M643 -105v-115h-115q-34 0 -59.5 13.5t-36.5 34.5t-10 47.5t16 50.5q13 22 69 88l-38 110h-253l-41 -124h-158l246 689h155l248 -689h-20l-79 -88q-7 -6 -4.5 -11.5t14.5 -5.5h66zM340 499l-84 -254h172z" />
<glyph unicode="&#x105;" horiz-adv-x="532" d="M484 -105v-115h-115q-34 0 -59.5 13.5t-37 34.5t-10 47.5t16.5 50.5q19 32 83 103l2 2l-5 28q-7 -12 -21 -25t-48 -27.5t-75 -14.5q-77 0 -128.5 46.5t-51.5 112.5q0 69 56.5 118t159.5 49q52 0 92 -13v16q0 90 -96 90q-56 0 -93 -37l-90 69q28 39 77.5 62t116.5 23 q103 0 165.5 -57t62.5 -167v-303l1 -1l-79 -88q-7 -6 -4.5 -11.5t14.5 -5.5h66zM249 103q17 0 33.5 6t29 15.5t21 21t9.5 23.5v46q-23 6 -77 6q-29 0 -49.5 -8t-30 -21.5t-9.5 -31.5q0 -28 19.5 -42.5t53.5 -14.5z" />
<glyph unicode="&#x106;" horiz-adv-x="694" d="M278 740l89 195l142 -88l-115 -107h-116zM354 -11q-46 0 -90 12.5t-85.5 40.5t-73 68t-50 100t-18.5 132q0 88 26 158t71 113t101 65t119 22q123 0 205.5 -68t96.5 -184h-150q-8 54 -50.5 86t-99.5 32q-25 0 -48 -7t-45.5 -23t-39 -40.5t-27 -64t-10.5 -89.5 q0 -58 15.5 -102t41 -68.5t54.5 -36.5t61 -12q58 0 99.5 34t49.5 86h151q-7 -64 -35 -114t-70.5 -80t-92.5 -45t-106 -15z" />
<glyph unicode="&#x107;" horiz-adv-x="561" d="M204 579l88 195l143 -88l-116 -107h-115zM287 -11q-66 0 -122 30t-91.5 92t-35.5 145q0 64 20.5 116.5t55.5 86t79.5 51.5t92.5 18q90 0 158 -50t82 -145h-142q-20 71 -93 71q-20 0 -38.5 -8t-35 -24.5t-26.5 -46.5t-10 -69q0 -71 33.5 -107t76.5 -36q35 0 59 17.5 t33 47.5h143q-13 -88 -77.5 -138.5t-161.5 -50.5z" />
<glyph unicode="&#x10a;" horiz-adv-x="694" d="M346.5 743q-29.5 0 -53 23t-23.5 55q0 30 23.5 53t52.5 23q19 0 37 -10t29 -28t11 -38q0 -32 -23.5 -55t-53 -23zM354 -11q-46 0 -90 12.5t-85.5 40.5t-73 68t-50 100t-18.5 132q0 88 26 158t71 113t101 65t119 22q123 0 205.5 -68t96.5 -184h-150q-8 54 -50.5 86 t-99.5 32q-25 0 -48 -7t-45.5 -23t-39 -40.5t-27 -64t-10.5 -89.5q0 -58 15.5 -102t41 -68.5t54.5 -36.5t61 -12q58 0 99.5 34t49.5 86h151q-7 -64 -35 -114t-70.5 -80t-92.5 -45t-106 -15z" />
<glyph unicode="&#x10b;" horiz-adv-x="561" d="M287 589q-30 0 -53.5 23t-23.5 54t24 54t53 23q19 0 37 -10.5t29 -28t11 -38.5q0 -31 -23.5 -54t-53.5 -23zM287 -11q-66 0 -122 30t-91.5 92t-35.5 145q0 64 20.5 116.5t55.5 86t79.5 51.5t92.5 18q90 0 158 -50t82 -145h-142q-20 71 -93 71q-20 0 -38.5 -8t-35 -24.5 t-26.5 -46.5t-10 -69q0 -71 33.5 -107t76.5 -36q35 0 59 17.5t33 47.5h143q-13 -88 -77.5 -138.5t-161.5 -50.5z" />
<glyph unicode="&#x10c;" horiz-adv-x="694" d="M286 743l-107 100l61 77l107 -59l110 59l58 -72l-104 -105h-125zM354 -11q-46 0 -90 12.5t-85.5 40.5t-73 68t-50 100t-18.5 132q0 88 26 158t71 113t101 65t119 22q123 0 205.5 -68t96.5 -184h-150q-8 54 -50.5 86t-99.5 32q-25 0 -48 -7t-45.5 -23t-39 -40.5t-27 -64 t-10.5 -89.5q0 -58 15.5 -102t41 -68.5t54.5 -36.5t61 -12q58 0 99.5 34t49.5 86h151q-7 -64 -35 -114t-70.5 -80t-92.5 -45t-106 -15z" />
<glyph unicode="&#x10d;" horiz-adv-x="561" d="M227 589l-107 100l60 76l108 -58l110 58l58 -71l-104 -105h-125zM287 -11q-66 0 -122 30t-91.5 92t-35.5 145q0 64 20.5 116.5t55.5 86t79.5 51.5t92.5 18q90 0 158 -50t82 -145h-142q-20 71 -93 71q-20 0 -38.5 -8t-35 -24.5t-26.5 -46.5t-10 -69q0 -71 33.5 -107 t76.5 -36q35 0 59 17.5t33 47.5h143q-13 -88 -77.5 -138.5t-161.5 -50.5z" />
<glyph unicode="&#x10e;" horiz-adv-x="665" d="M256 744l-107 100l61 77l107 -59l110 59l58 -72l-104 -105h-125zM67 0v689h229q150 0 242.5 -89.5t92.5 -251.5q0 -175 -90 -261.5t-245 -86.5h-229zM214 138h82q89 0 139 51.5t50 158.5q0 103 -51 153t-138 50h-82v-413z" />
<glyph unicode="&#x10f;" horiz-adv-x="748" d="M626 689h142l-47 -179h-114zM275 -7q-42 0 -83.5 16.5t-76.5 48t-56.5 84.5t-21.5 119q0 68 21 121.5t55.5 84t74 46t81.5 15.5q37 0 72.5 -17.5t47.5 -41.5v220h155v-689h-119l-13 59q-11 -19 -34 -34.5t-50 -23.5t-53 -8zM295 118q18 0 36 9t33.5 26t25.5 45.5t10 63.5 q0 68 -31.5 105t-72.5 37q-44 0 -76.5 -34.5t-32.5 -107.5q0 -31 7 -55.5t18 -40.5t25.5 -27t29 -16t28.5 -5z" />
<glyph unicode="&#x110;" horiz-adv-x="685" d="M656 348q0 -175 -90.5 -261.5t-245.5 -86.5h-229v280h-75v125h75v284h229q150 0 243 -89.5t93 -251.5zM239 138h81q90 0 139.5 51.5t49.5 158.5q0 103 -51 153t-138 50h-81v-146h112v-125h-112v-142z" />
<glyph unicode="&#x111;" horiz-adv-x="602" d="M416 59q-16 -29 -57.5 -47.5t-82.5 -18.5q-24 0 -48 5t-47.5 16t-45 26.5t-39.5 38t-31 49t-20.5 61t-7.5 72.5q0 68 21 121.5t56 84t74.5 46t81.5 15.5q24 0 49.5 -8t46 -22t28.5 -29v104h-108v90h108v78h155v-78h71v-90h-71v-573h-119zM291 118q40 0 73.5 38t33.5 106 q0 35 -9.5 63t-25.5 44.5t-34 25.5t-37 9q-44 0 -77 -34.5t-33 -107.5q0 -38 10.5 -67t27 -45t35 -24t36.5 -8z" />
<glyph unicode="&#x112;" d="M115 760v101h370v-101h-370zM68 0v689h468v-133h-321v-145h247v-129h-247v-149h324v-133h-471z" />
<glyph unicode="&#x113;" horiz-adv-x="560" d="M97 608v102h370v-102h-370zM295 -10q-52 0 -97.5 16.5t-81.5 48.5t-56.5 83.5t-20.5 117.5q0 65 20 117.5t54 85.5t77.5 51t91.5 18q50 0 93 -15.5t76.5 -46t52.5 -80.5t19 -113v-58h-346q2 -51 38 -79t87 -28q41 0 77.5 13t58.5 34l67 -96q-70 -69 -210 -69zM177 310 h208q0 34 -14 57.5t-37 34.5t-53 11q-42 0 -72 -27.5t-32 -75.5z" />
<glyph unicode="&#x114;" d="M300 739q-38 0 -73.5 12.5t-61.5 32.5t-41 43l73 71q16 -21 46 -34.5t56.5 -13.5t54 13t46.5 35l75 -72q-22 -35 -71.5 -61t-103.5 -26zM68 0v689h468v-133h-321v-145h247v-129h-247v-149h324v-133h-471z" />
<glyph unicode="&#x115;" horiz-adv-x="560" d="M282 588q-56 0 -104 25.5t-71 62.5l72 71q17 -21 47 -35t56.5 -14t53.5 13.5t46 35.5l76 -72q-11 -17 -29 -32.5t-41 -28t-50.5 -19.5t-55.5 -7zM295 -10q-52 0 -97.5 16.5t-81.5 48.5t-56.5 83.5t-20.5 117.5q0 65 20 117.5t54 85.5t77.5 51t91.5 18q50 0 93 -15.5 t76.5 -46t52.5 -80.5t19 -113v-58h-346q2 -51 38 -79t87 -28q41 0 77.5 13t58.5 34l67 -96q-70 -69 -210 -69zM177 310h208q0 34 -14 57.5t-37 34.5t-53 11q-42 0 -72 -27.5t-32 -75.5z" />
<glyph unicode="&#x116;" d="M300.5 743q-29.5 0 -53 23t-23.5 55q0 30 23.5 53t53.5 23q19 0 36.5 -10t28.5 -28t11 -38q0 -32 -23.5 -55t-53 -23zM68 0v689h468v-133h-321v-145h247v-129h-247v-149h324v-133h-471z" />
<glyph unicode="&#x117;" horiz-adv-x="560" d="M282.5 591q-29.5 0 -53 23t-23.5 54t23.5 54t53 23t53 -23t23.5 -54t-23.5 -54t-53 -23zM295 -10q-52 0 -97.5 16.5t-81.5 48.5t-56.5 83.5t-20.5 117.5q0 65 20 117.5t54 85.5t77.5 51t91.5 18q50 0 93 -15.5t76.5 -46t52.5 -80.5t19 -113v-58h-346q2 -51 38 -79t87 -28 q41 0 77.5 13t58.5 34l67 -96q-70 -69 -210 -69zM177 310h208q0 34 -14 57.5t-37 34.5t-53 11q-42 0 -72 -27.5t-32 -75.5z" />
<glyph unicode="&#x118;" d="M537 -105v-115h-115q-34 0 -59 13.5t-36.5 34.5t-10.5 47.5t17 50.5q15 26 57 74h-322v689h468v-133h-321v-145h247v-129h-247v-149h324v-132l1 -1l-78 -88q-8 -6 -5.5 -11.5t14.5 -5.5h66z" />
<glyph unicode="&#x119;" horiz-adv-x="560" d="M480 -66v-115h-115q-34 0 -59.5 13.5t-36.5 34.5t-10 47t16 51q1 2 18 25q-52 1 -97 17.5t-80.5 48t-56 83.5t-20.5 117t20 117.5t54 85.5t77.5 51t91.5 18q50 0 93 -15.5t76.5 -46t52.5 -80.5t19 -113v-58h-346q2 -51 38 -79t87 -28q41 0 77.5 13t58.5 34l67 -96 q-11 -11 -23 -19l1 -1l-79 -88q-7 -6 -4.5 -11.5t14.5 -5.5h66zM177 310h208q0 34 -14 57.5t-37 34.5t-53 11q-42 0 -72 -27.5t-32 -75.5z" />
<glyph unicode="&#x11a;" d="M240 743l-107 100l60 77l108 -59l109 59l59 -72l-104 -105h-125zM68 0v689h468v-133h-321v-145h247v-129h-247v-149h324v-133h-471z" />
<glyph unicode="&#x11b;" horiz-adv-x="560" d="M222 591l-107 100l61 76l107 -58l110 58l58 -72l-104 -104h-125zM295 -10q-52 0 -97.5 16.5t-81.5 48.5t-56.5 83.5t-20.5 117.5q0 65 20 117.5t54 85.5t77.5 51t91.5 18q50 0 93 -15.5t76.5 -46t52.5 -80.5t19 -113v-58h-346q2 -51 38 -79t87 -28q41 0 77.5 13t58.5 34 l67 -96q-70 -69 -210 -69zM177 310h208q0 34 -14 57.5t-37 34.5t-53 11q-42 0 -72 -27.5t-32 -75.5z" />
<glyph unicode="&#x11e;" horiz-adv-x="684" d="M346 739q-56 0 -104 26t-71 62l72 71q17 -21 47 -34.5t56 -13.5q18 0 36.5 6t35 17t28.5 25l76 -72q-14 -23 -40.5 -42.5t-62.5 -32t-73 -12.5zM353 -11q-48 0 -92 12.5t-85 40t-71.5 67.5t-48.5 100.5t-18 134.5q0 86 26 155t70 112t100 65.5t119 22.5 q118 0 201.5 -66.5t97.5 -174.5h-150q-8 41 -49 74.5t-100 33.5q-70 0 -119 -57.5t-49 -164.5q0 -111 48.5 -166t119.5 -55q66 0 108 34.5t45 102.5h-118v115h268v-70q0 -82 -25.5 -144.5t-69 -99t-96 -54.5t-112.5 -18z" />
<glyph unicode="&#x11f;" horiz-adv-x="593" d="M303 587q-56 0 -104.5 25.5t-71.5 62.5l73 71q16 -21 46 -35t56.5 -14t53.5 13.5t47 35.5l75 -72q-22 -36 -71.5 -61.5t-103.5 -25.5zM267 -232q-65 0 -121.5 23t-88.5 58l81 95q20 -18 55.5 -32t69.5 -14q117 0 117 120v30q-8 -17 -25 -30t-41 -21.5t-49 -8.5 q-41 0 -80 16.5t-71.5 48t-52.5 85t-20 121.5t20 121t53 83.5t71 46.5t79 16q27 0 53.5 -8t46 -22t29.5 -31l11 53h131v-469q0 -90 -31 -153t-91 -95.5t-146 -32.5zM291 115q43 0 74 37.5t31 103.5q0 38 -9 67t-24 45.5t-33 24.5t-39 8q-28 0 -51 -14.5t-39 -48t-16 -82.5 q0 -68 31 -104.5t75 -36.5z" />
<glyph unicode="&#x120;" horiz-adv-x="684" d="M347.5 743q-29.5 0 -53 23t-23.5 55q0 30 23.5 53t52.5 23q19 0 37 -10t29 -28t11 -38q0 -32 -23.5 -55t-53 -23zM353 -11q-48 0 -92 12.5t-85 40t-71.5 67.5t-48.5 100.5t-18 134.5q0 86 26 155t70 112t100 65.5t119 22.5q118 0 201.5 -66.5t97.5 -174.5h-150 q-8 41 -49 74.5t-100 33.5q-70 0 -119 -57.5t-49 -164.5q0 -111 48.5 -166t119.5 -55q66 0 108 34.5t45 102.5h-118v115h268v-70q0 -82 -25.5 -144.5t-69 -99t-96 -54.5t-112.5 -18z" />
<glyph unicode="&#x121;" horiz-adv-x="593" d="M302.5 590q-29.5 0 -53 23t-23.5 54q0 21 11 38.5t28.5 28t37.5 10.5q29 0 52.5 -23t23.5 -54t-23.5 -54t-53 -23zM267 -232q-65 0 -121.5 23t-88.5 58l81 95q20 -18 55.5 -32t69.5 -14q117 0 117 120v30q-8 -17 -25 -30t-41 -21.5t-49 -8.5q-41 0 -80 16.5t-71.5 48 t-52.5 85t-20 121.5t20 121t53 83.5t71 46.5t79 16q27 0 53.5 -8t46 -22t29.5 -31l11 53h131v-469q0 -90 -31 -153t-91 -95.5t-146 -32.5zM291 115q43 0 74 37.5t31 103.5q0 38 -9 67t-24 45.5t-33 24.5t-39 8q-28 0 -51 -14.5t-39 -48t-16 -82.5q0 -68 31 -104.5t75 -36.5z " />
<glyph unicode="&#x122;" horiz-adv-x="684" d="M353 -11q-48 0 -92 12.5t-85 40t-71.5 67.5t-48.5 100.5t-18 134.5q0 86 26 155t70 112t100 65.5t119 22.5q118 0 201.5 -66.5t97.5 -174.5h-150q-8 41 -49 74.5t-100 33.5q-70 0 -119 -57.5t-49 -164.5q0 -111 48.5 -166t119.5 -55q66 0 108 34.5t45 102.5h-118v115h268 v-70q0 -82 -25.5 -144.5t-69 -99t-96 -54.5t-112.5 -18zM250 -228l24 171h137l-54 -171h-107z" />
<glyph unicode="&#x123;" horiz-adv-x="593" d="M383 755l-23 -171h-138l54 171h107zM267 -232q-65 0 -121.5 23t-88.5 58l81 95q20 -18 55.5 -32t69.5 -14q117 0 117 120v30q-8 -17 -25 -30t-41 -21.5t-49 -8.5q-41 0 -80 16.5t-71.5 48t-52.5 85t-20 121.5t20 121t53 83.5t71 46.5t79 16q27 0 53.5 -8t46 -22t29.5 -31 l11 53h131v-469q0 -90 -31 -153t-91 -95.5t-146 -32.5zM291 115q43 0 74 37.5t31 103.5q0 38 -9 67t-24 45.5t-33 24.5t-39 8q-28 0 -51 -14.5t-39 -48t-16 -82.5q0 -68 31 -104.5t75 -36.5z" />
<glyph unicode="&#x126;" horiz-adv-x="668" d="M216 277v-277h-147v501h-61v116h61v72h147v-72h237v72h147v-72h61v-116h-61v-501h-147v277h-237zM216 415h237v86h-237v-86z" />
<glyph unicode="&#x127;" horiz-adv-x="589" d="M224 288v-288h-154v565l-73 -5v103l73 1v77h154v-73l112 3v-87l-112 -8v-109q12 23 50 42t74 19q42 0 78 -14.5t64.5 -43t44.5 -75t16 -105.5v-290h-158v288q0 33 -11 56t-29.5 33.5t-43.5 10.5q-34 0 -59.5 -28t-25.5 -72z" />
<glyph unicode="&#x12a;" horiz-adv-x="291" d="M28 753v103h237v-103h-237zM68 0v689h147v-689h-147z" />
<glyph unicode="&#x12b;" horiz-adv-x="276" d="M14 613v119h249v-119h-249zM67 0v518h143v-518h-143z" />
<glyph unicode="&#x12c;" horiz-adv-x="283" d="M141 729q-54 0 -93 26t-59 66l74 67q33 -47 78 -47q46 0 73 47l78 -66q-18 -40 -58.5 -66.5t-92.5 -26.5zM68 0v689h147v-689h-147z" />
<glyph unicode="&#x12d;" horiz-adv-x="276" d="M139 588q-51 0 -92 26t-60 65l73 67q33 -46 79 -46q45 0 73 46l77 -66q-16 -39 -58.5 -65.5t-91.5 -26.5zM67 0v518h143v-518h-143z" />
<glyph unicode="&#x12e;" horiz-adv-x="297" d="M220 -105v-115h-115q-34 0 -59.5 13.5t-36.5 34.5t-10 47.5t17 50.5q18 31 60 78v685h147v-689l-78 -88q-8 -6 -5.5 -11.5t14.5 -5.5h66z" />
<glyph unicode="&#x12f;" horiz-adv-x="286" d="M134 576q-37 0 -60 19t-23 54t23 53.5t60 18.5t60.5 -18.5t23.5 -53.5t-23.5 -54t-60.5 -19zM205 -105v-115h-116q-34 0 -59 13.5t-36.5 34.5t-10 47.5t16.5 50.5q15 25 66 85v507h143v-518h-1l-79 -88q-7 -6 -5 -11.5t15 -5.5h66z" />
<glyph unicode="&#x130;" horiz-adv-x="291" d="M140.5 741q-29.5 0 -53 23t-23.5 55q0 15 6.5 29t17 24.5t24.5 16.5t29 6q19 0 36.5 -10t28.5 -28t11 -38q0 -32 -23.5 -55t-53 -23zM68 0v689h147v-689h-147z" />
<glyph unicode="&#x131;" horiz-adv-x="276" d="M67 0v518h143v-518h-143z" />
<glyph unicode="&#x136;" horiz-adv-x="667" d="M68 0v689h147v-291l235 291h188l-245 -301l264 -388h-178l-192 286l-72 -81v-205h-147zM248 -224l24 171h137l-54 -171h-107z" />
<glyph unicode="&#x137;" horiz-adv-x="576" d="M61 0v689h154v-371l153 200h180l-184 -231l202 -287h-177l-142 213l-32 -28v-185h-154zM209 -232l23 171h138l-55 -171h-106z" />
<glyph unicode="&#x139;" horiz-adv-x="562" d="M73 736l88 195l143 -88l-116 -107h-115zM68 0v689h147v-556h310v-133h-457z" />
<glyph unicode="&#x13a;" horiz-adv-x="282" d="M64 736l77 186l142 -88l-104 -98h-115zM61 0v689h149v-689h-149z" />
<glyph unicode="&#x13b;" horiz-adv-x="562" d="M68 0v689h147v-556h310v-133h-457zM197 -238l23 171h138l-54 -171h-107z" />
<glyph unicode="&#x13c;" horiz-adv-x="282" d="M61 0v689h149v-689h-149zM50 -234l24 171h137l-54 -171h-107z" />
<glyph unicode="&#x13d;" horiz-adv-x="572" d="M370 690h121l-45 -196h-97zM68 0v689h147v-556h310v-133h-457z" />
<glyph unicode="&#x13e;" horiz-adv-x="388" d="M303 737h105l-30 -165h-96zM61 0v689h149v-689h-149z" />
<glyph unicode="&#x13f;" horiz-adv-x="562" d="M68 0v689h147v-556h310v-133h-457zM447 328q-30 0 -53 23t-23 54t23.5 54t53 23t53 -23t23.5 -54t-23.5 -54t-53.5 -23z" />
<glyph unicode="&#x140;" horiz-adv-x="462" d="M61 0v689h149v-689h-149zM357 267q-34 0 -57.5 22t-23.5 57q0 23 11 42t29.5 29t40.5 10q33 0 56 -23t23 -58t-22.5 -57t-56.5 -22z" />
<glyph unicode="&#x141;" horiz-adv-x="584" d="M547 133v-133h-457v243l-51 -21l-44 112l95 39v316h148v-254l140 58l45 -113l-185 -76v-171h309z" />
<glyph unicode="&#x142;" horiz-adv-x="362" d="M359 389l-110 -49v-340h-149v273l-39 -18l-57 122l96 44v268h149v-200l53 24z" />
<glyph unicode="&#x143;" horiz-adv-x="698" d="M263 739l88 195l143 -88l-116 -107h-115zM68 0v689h153l262 -424v424h148v-689h-154l-262 408v-408h-147z" />
<glyph unicode="&#x144;" horiz-adv-x="581" d="M213 584l89 195l142 -88l-115 -107h-116zM61 0v518h114l17 -53q16 26 59.5 46.5t88.5 20.5q83 0 137 -53t54 -161v-318h-150v310q0 47 -23 72.5t-61 25.5t-62.5 -26.5t-24.5 -71.5v-310h-149z" />
<glyph unicode="&#x145;" horiz-adv-x="698" d="M68 0v689h153l262 -424v424h148v-689h-154l-262 408v-408h-147zM256 -225l23 171h138l-54 -171h-107z" />
<glyph unicode="&#x146;" horiz-adv-x="581" d="M61 1v518h114l17 -53q10 17 33 32.5t54 25t61 9.5q83 0 137 -53t54 -161v-318h-150v310q0 47 -23 72.5t-61 25.5t-62.5 -26.5t-24.5 -71.5v-310h-149zM210 -210l23 171h138l-55 -171h-106z" />
<glyph unicode="&#x147;" horiz-adv-x="698" d="M284 731l-106 100l60 77l107 -58l110 58l58 -72l-104 -105h-125zM68 0v689h153l262 -424v424h148v-689h-154l-262 408v-408h-147z" />
<glyph unicode="&#x148;" horiz-adv-x="581" d="M236 595l-107 100l60 76l108 -58l109 58l59 -72l-104 -104h-125zM61 0v518h114l17 -53q16 26 59.5 46.5t88.5 20.5q83 0 137 -53t54 -161v-318h-150v310q0 47 -23 72.5t-61 25.5t-62.5 -26.5t-24.5 -71.5v-310h-149z" />
<glyph unicode="&#x14c;" horiz-adv-x="702" d="M167 760v101h369v-101h-369zM351 -10q-65 0 -121.5 23t-100 66.5t-68 112.5t-24.5 155t24.5 154t68 111t100 65.5t121.5 22.5t121.5 -23t100 -66t68 -111t24.5 -153q0 -86 -24.5 -154.5t-68 -112.5t-100 -67t-121.5 -23zM351 124q32 0 60.5 12.5t53 38t38.5 70t14 102.5 t-14.5 101.5t-39 68t-52.5 37t-60 12.5q-18 0 -34.5 -4t-33.5 -12t-31 -20t-26.5 -29.5t-21.5 -39.5t-14 -51t-5 -63q0 -114 48 -168.5t118 -54.5z" />
<glyph unicode="&#x14d;" horiz-adv-x="582" d="M106 609v102h369v-102h-369zM290 -10q-36 0 -71 10t-68 31.5t-58.5 52t-40.5 76t-15 99.5q0 69 23 122.5t61 84.5t81 46.5t88 15.5q47 0 90.5 -16t81.5 -46.5t60.5 -84t22.5 -122.5q0 -67 -23 -120t-60.5 -84.5t-81.5 -48t-90 -16.5zM290 117q43 0 77.5 37t34.5 105 q0 72 -34 108t-78 36q-45 0 -77.5 -35.5t-32.5 -108.5q0 -68 33.5 -105t76.5 -37z" />
<glyph unicode="&#x14e;" horiz-adv-x="702" d="M351 739q-56 0 -104 26t-71 62l72 71q17 -21 47 -34.5t56.5 -13.5t53.5 13t46 35l76 -72q-15 -23 -41.5 -42.5t-62 -32t-72.5 -12.5zM351 -10q-65 0 -121.5 23t-100 66.5t-68 112.5t-24.5 155t24.5 154t68 111t100 65.5t121.5 22.5t121.5 -23t100 -66t68 -111t24.5 -153 q0 -86 -24.5 -154.5t-68 -112.5t-100 -67t-121.5 -23zM351 124q32 0 60.5 12.5t53 38t38.5 70t14 102.5t-14.5 101.5t-39 68t-52.5 37t-60 12.5q-18 0 -34.5 -4t-33.5 -12t-31 -20t-26.5 -29.5t-21.5 -39.5t-14 -51t-5 -63q0 -114 48 -168.5t118 -54.5z" />
<glyph unicode="&#x14f;" horiz-adv-x="582" d="M290 589q-56 0 -104.5 25.5t-71.5 62.5l73 71q11 -14 28.5 -25t37.5 -17.5t37 -6.5q18 0 36.5 6t34.5 17t29 26l76 -72q-22 -36 -71.5 -61.5t-104.5 -25.5zM290 -10q-36 0 -71 10t-68 31.5t-58.5 52t-40.5 76t-15 99.5q0 69 23 122.5t61 84.5t81 46.5t88 15.5 q47 0 90.5 -16t81.5 -46.5t60.5 -84t22.5 -122.5q0 -67 -23 -120t-60.5 -84.5t-81.5 -48t-90 -16.5zM290 117q43 0 77.5 37t34.5 105q0 72 -34 108t-78 36q-45 0 -77.5 -35.5t-32.5 -108.5q0 -68 33.5 -105t76.5 -37z" />
<glyph unicode="&#x150;" horiz-adv-x="702" d="M305 746h-109l63 194l134 -45zM491 746h-109l62 194l136 -45zM351 -10q-65 0 -121.5 23t-100 66.5t-68 112.5t-24.5 155t24.5 154t68 111t100 65.5t121.5 22.5t121.5 -23t100 -66t68 -111t24.5 -153q0 -86 -24.5 -154.5t-68 -112.5t-100 -67t-121.5 -23zM351 124 q32 0 60.5 12.5t53 38t38.5 70t14 102.5t-14.5 101.5t-39 68t-52.5 37t-60 12.5q-18 0 -34.5 -4t-33.5 -12t-31 -20t-26.5 -29.5t-21.5 -39.5t-14 -51t-5 -63q0 -114 48 -168.5t118 -54.5z" />
<glyph unicode="&#x151;" horiz-adv-x="582" d="M240 592h-109l63 194l134 -45zM426 592h-109l62 194l136 -45zM290 -10q-36 0 -71 10t-68 31.5t-58.5 52t-40.5 76t-15 99.5q0 69 23 122.5t61 84.5t81 46.5t88 15.5q47 0 90.5 -16t81.5 -46.5t60.5 -84t22.5 -122.5q0 -67 -23 -120t-60.5 -84.5t-81.5 -48t-90 -16.5z M290 117q43 0 77.5 37t34.5 105q0 72 -34 108t-78 36q-45 0 -77.5 -35.5t-32.5 -108.5q0 -68 33.5 -105t76.5 -37z" />
<glyph unicode="&#x152;" horiz-adv-x="1011" d="M527 0v59q-82 -69 -199 -69q-65 0 -121.5 23t-100 66.5t-68 112.5t-24.5 155t24.5 154t67.5 111t99.5 65.5t122.5 22.5q117 0 199 -69v58h468v-133h-321v-145h247v-129h-247v-149h324v-133h-471zM328 124q32 0 60.5 12.5t52.5 38t38.5 70t14.5 102.5t-14.5 101.5t-39 68 t-53 37t-59.5 12.5q-32 0 -60.5 -12.5t-52.5 -37t-38.5 -68t-14.5 -101.5q0 -114 47.5 -168.5t118.5 -54.5z" />
<glyph unicode="&#x153;" horiz-adv-x="905" d="M887 59q-71 -69 -211 -69q-63 0 -117 24.5t-89 70.5q-36 -46 -89.5 -70.5t-109.5 -24.5q-45 0 -88.5 16.5t-81 48t-61 84.5t-23.5 120q0 69 23.5 122.5t61.5 84.5t81 46.5t88 15.5q57 0 111 -24t90 -70q34 45 84 69.5t107 24.5q50 0 93 -15.5t76.5 -46t52.5 -80.5 t19 -113v-58h-346q2 -34 20 -59t45 -36.5t60 -11.5q28 0 54.5 6t47 16.5t35.5 24.5zM558 310h208q0 26 -8 45.5t-22 32t-32.5 19t-40.5 6.5q-43 0 -72.5 -27.5t-32.5 -75.5zM271 117q42 0 76.5 37t34.5 105q0 72 -33.5 108t-77.5 36q-45 0 -77.5 -35.5t-32.5 -108.5 q0 -68 33 -105t77 -37z" />
<glyph unicode="&#x154;" horiz-adv-x="646" d="M239 740l88 195l142 -88l-115 -107h-115zM68 0v689h249q134 0 204.5 -63.5t70.5 -163.5q0 -62 -31.5 -111t-90.5 -75l135 -276h-164l-107 242h-119v-242h-147zM215 373h101q52 0 84.5 22.5t32.5 71.5q0 46 -33.5 67.5t-83.5 21.5h-101v-183z" />
<glyph unicode="&#x155;" horiz-adv-x="402" d="M126 583l88 195l143 -88l-115 -107h-116zM61 0v518h110l17 -56q9 18 30.5 33t49 24t53.5 9q7 0 16 -0.5t15.5 -1t14 -1.5t11.5 -1v-136q-29 3 -51 3q-58 0 -86.5 -27t-28.5 -91v-273h-151z" />
<glyph unicode="&#x156;" horiz-adv-x="646" d="M68 0v689h249q134 0 204.5 -63.5t70.5 -163.5q0 -62 -31.5 -111t-90.5 -75l135 -276h-164l-107 242h-119v-242h-147zM215 373h101q52 0 84.5 22.5t32.5 71.5q0 46 -33.5 67.5t-83.5 21.5h-101v-183zM229 -212l23 170h138l-54 -170h-107z" />
<glyph unicode="&#x157;" horiz-adv-x="402" d="M61 0v518h110l17 -56q9 18 30.5 33t49 24t53.5 9q7 0 16 -0.5t15.5 -1t14 -1.5t11.5 -1v-136q-29 3 -51 3q-58 0 -86.5 -27t-28.5 -91v-273h-151zM52 -220l24 171h137l-54 -171h-107z" />
<glyph unicode="&#x158;" horiz-adv-x="646" d="M246 742l-106 100l60 77l107 -59l110 59l58 -72l-103 -105h-126zM68 0v689h249q134 0 204.5 -63.5t70.5 -163.5q0 -62 -31.5 -111t-90.5 -75l135 -276h-164l-107 242h-119v-242h-147zM215 373h101q52 0 84.5 22.5t32.5 71.5q0 46 -33.5 67.5t-83.5 21.5h-101v-183z" />
<glyph unicode="&#x159;" horiz-adv-x="402" d="M149 594l-106 100l60 76l107 -58l110 58l58 -72l-103 -104h-126zM61 0v518h110l17 -56q9 18 30.5 33t49 24t53.5 9q7 0 16 -0.5t15.5 -1t14 -1.5t11.5 -1v-136q-29 3 -51 3q-58 0 -86.5 -27t-28.5 -91v-273h-151z" />
<glyph unicode="&#x15a;" horiz-adv-x="587" d="M230 738l88 195l143 -88l-116 -107h-115zM300 -11q-85 0 -156 30.5t-120 82.5l96 102q36 -36 82 -59t96 -23q53 0 79 20t26 55q0 27 -13 44t-38.5 25.5t-69.5 13.5q-43 5 -81.5 18.5t-72.5 37.5t-54 63t-20 88q0 92 68 151.5t181 59.5q144 0 236 -94l-94 -95 q-21 23 -65.5 40t-86.5 17q-47 0 -72.5 -18.5t-25.5 -51.5t30.5 -50.5t96.5 -23.5q49 -4 89.5 -18t73.5 -39t51.5 -66t18.5 -94q0 -69 -35.5 -119t-92.5 -73.5t-127 -23.5z" />
<glyph unicode="&#x15b;" horiz-adv-x="485" d="M169 583l88 195l143 -88l-116 -107h-115zM242 -14q-51 0 -111.5 17.5t-105.5 48.5l67 108q35 -22 77.5 -36t76.5 -14q78 0 78 47q0 11 -5.5 19t-14.5 13t-26 9.5t-33.5 7.5t-43.5 6q-42 6 -75 23t-55.5 50.5t-22.5 78.5q0 70 59.5 118.5t145.5 48.5q59 0 110 -15.5 t82 -38.5l-61 -100q-7 5 -20 11.5t-49 18t-68 13.5q-30 0 -49.5 -11.5t-19.5 -32.5q0 -9 3.5 -16t11.5 -12t15.5 -8.5t23 -6.5t25 -5t29.5 -5h4t3.5 -0.5t4.5 -1t4 -0.5q73 -11 114 -51.5t41 -108.5q0 -79 -57 -127t-158 -48z" />
<glyph unicode="&#x15e;" horiz-adv-x="587" d="M418 -150q0 -35 -15.5 -61.5t-47 -42t-74.5 -15.5q-28 0 -76 15l19 83q6 -2 26.5 -4.5t30.5 -2.5q12 0 21.5 3.5t15 10.5t5.5 17q0 29 -47 33l-40 1l17 105q-140 15 -229 110l96 102q36 -36 82 -59t96 -23q53 0 79 20t26 55q0 27 -13 44t-38.5 25.5t-69.5 13.5 q-43 5 -81.5 18.5t-72.5 37.5t-54 63t-20 88q0 92 68 151.5t181 59.5q144 0 236 -94l-94 -95q-21 23 -65.5 40t-86.5 17q-47 0 -72.5 -18.5t-25.5 -51.5t30.5 -50.5t96.5 -23.5q49 -4 89.5 -18t73.5 -39t51.5 -66t18.5 -94q1 -97 -65 -153t-167 -62l-4 -27q42 -6 70.5 -35 t28.5 -78z" />
<glyph unicode="&#x15f;" horiz-adv-x="485" d="M358 -155q0 -53 -36 -86t-101 -33q-28 0 -76 15l19 83q6 -2 26 -4.5t31 -2.5q19 0 30.5 8t11.5 23q0 30 -47 33l-40 2l17 107q-98 14 -168 62l67 108q35 -22 77.5 -36t76.5 -14q78 0 78 47q0 11 -5.5 19t-14.5 13t-26 9.5t-33.5 7.5t-43.5 6q-42 6 -75 23t-55.5 50.5 t-22.5 78.5q0 70 59.5 118.5t145.5 48.5q59 0 110 -15.5t82 -38.5l-61 -100q-7 5 -20 11.5t-49 18t-68 13.5q-30 0 -49.5 -11.5t-19.5 -32.5q0 -9 3.5 -16t11.5 -12t15.5 -8.5t23 -6.5t25 -5t29.5 -5h4t3.5 -0.5t4.5 -1t4 -0.5q73 -11 114 -51.5t41 -108.5q0 -75 -51.5 -122 t-142.5 -52l-4 -29q41 -6 70 -35t29 -78z" />
<glyph unicode="&#x160;" horiz-adv-x="587" d="M237 740l-107 100l60 77l108 -59l109 59l59 -72l-104 -105h-125zM300 -11q-85 0 -156 30.5t-120 82.5l96 102q36 -36 82 -59t96 -23q53 0 79 20t26 55q0 27 -13 44t-38.5 25.5t-69.5 13.5q-43 5 -81.5 18.5t-72.5 37.5t-54 63t-20 88q0 92 68 151.5t181 59.5 q144 0 236 -94l-94 -95q-21 23 -65.5 40t-86.5 17q-47 0 -72.5 -18.5t-25.5 -51.5t30.5 -50.5t96.5 -23.5q49 -4 89.5 -18t73.5 -39t51.5 -66t18.5 -94q0 -69 -35.5 -119t-92.5 -73.5t-127 -23.5z" />
<glyph unicode="&#x161;" horiz-adv-x="485" d="M191 593l-107 100l61 76l107 -58l110 58l58 -72l-104 -104h-125zM242 -14q-51 0 -111.5 17.5t-105.5 48.5l67 108q35 -22 77.5 -36t76.5 -14q78 0 78 47q0 11 -5.5 19t-14.5 13t-26 9.5t-33.5 7.5t-43.5 6q-42 6 -75 23t-55.5 50.5t-22.5 78.5q0 70 59.5 118.5 t145.5 48.5q59 0 110 -15.5t82 -38.5l-61 -100q-7 5 -20 11.5t-49 18t-68 13.5q-30 0 -49.5 -11.5t-19.5 -32.5q0 -9 3.5 -16t11.5 -12t15.5 -8.5t23 -6.5t25 -5t29.5 -5h4t3.5 -0.5t4.5 -1t4 -0.5q73 -11 114 -51.5t41 -108.5q0 -79 -57 -127t-158 -48z" />
<glyph unicode="&#x162;" horiz-adv-x="605" d="M432 -150q0 -35 -15.5 -61.5t-47 -42t-74.5 -15.5q-28 0 -77 15l20 83q6 -2 26 -4.5t31 -2.5q18 0 30 8t12 23q0 29 -47 33l-41 1l19 113h-44v559h-192v129h533v-129h-193v-559h-34l-5 -37q41 -6 70 -35t29 -78z" />
<glyph unicode="&#x163;" horiz-adv-x="367" d="M322 -132q0 -53 -36 -85.5t-101 -32.5q-28 0 -76 14l19 84q6 -3 26.5 -5.5t30.5 -2.5q9 0 17 2t13.5 6t8.5 10t3 13q0 30 -47 33l-40 2l18 112q-69 39 -69 130v255h-69v115h68l29 140h122v-140h95v-115h-95v-209q0 -30 8 -47t22 -22.5t39 -5.5h24v-116q-25 -6 -73 -6 q-12 0 -33 2l-3 -17q42 -7 70.5 -35.5t28.5 -78.5z" />
<glyph unicode="&#x164;" horiz-adv-x="605" d="M234 739l-107 100l60 77l108 -59l109 59l59 -72l-104 -105h-125zM224 0v559h-192v129h533v-129h-193v-559h-148z" />
<glyph unicode="&#x165;" horiz-adv-x="464" d="M371 737h105l-30 -165h-96zM89 148v255h-69v115h68l29 140h122v-140h95v-115h-95v-209q0 -30 8 -47t22 -22.5t39 -5.5h24v-116q-25 -6 -73 -6q-80 0 -125 38.5t-45 112.5z" />
<glyph unicode="&#x16a;" horiz-adv-x="658" d="M144 751v102h369v-102h-369zM330 -10q-59 0 -109 18.5t-88.5 54t-60.5 93t-22 130.5v403h148v-402q0 -41 10.5 -71.5t29.5 -48.5t42 -27t50 -9q55 0 93 39t38 117v402h147v-403q0 -73 -22 -130.5t-60 -93t-88 -54t-108 -18.5z" />
<glyph unicode="&#x16b;" d="M108 606v102h369v-102h-369zM255 -13q-38 0 -72.5 12.5t-65 37.5t-48.5 71t-18 106v304h160v-304q0 -50 23 -76t59 -26t58.5 26t22.5 76v304h157v-518h-122l-16 59q-11 -21 -33 -37.5t-50 -25.5t-55 -9z" />
<glyph unicode="&#x16c;" horiz-adv-x="658" d="M328 730q-56 0 -104.5 26t-71.5 63l73 70q11 -13 28.5 -24.5t37.5 -17.5t37 -6q27 0 54 13t46 35l75 -71q-22 -36 -71 -62t-104 -26zM330 -10q-59 0 -109 18.5t-88.5 54t-60.5 93t-22 130.5v403h148v-402q0 -41 10.5 -71.5t29.5 -48.5t42 -27t50 -9q55 0 93 39t38 117 v402h147v-403q0 -73 -22 -130.5t-60 -93t-88 -54t-108 -18.5z" />
<glyph unicode="&#x16d;" d="M293 587q-56 0 -104.5 25.5t-71.5 62.5l73 71q17 -21 46.5 -35t56.5 -14q18 0 36 6.5t34.5 17t29.5 25.5l76 -72q-23 -36 -72 -61.5t-104 -25.5zM255 -13q-38 0 -72.5 12.5t-65 37.5t-48.5 71t-18 106v304h160v-304q0 -50 23 -76t59 -26t58.5 26t22.5 76v304h157v-518 h-122l-16 59q-11 -21 -33 -37.5t-50 -25.5t-55 -9z" />
<glyph unicode="&#x16e;" horiz-adv-x="658" d="M328 712q-49 0 -86 36.5t-37 85.5q0 50 37.5 87.5t85.5 37.5q47 0 85.5 -37.5t38.5 -87.5q0 -48 -38.5 -85t-85.5 -37zM328 792q18 0 31 13t13 31t-13 31.5t-31 13.5t-31.5 -13.5t-13.5 -31.5t13.5 -31t31.5 -13zM330 -10q-59 0 -109 18.5t-88.5 54t-60.5 93t-22 130.5 v403h148v-402q0 -41 10.5 -71.5t29.5 -48.5t42 -27t50 -9q55 0 93 39t38 117v402h147v-403q0 -73 -22 -130.5t-60 -93t-88 -54t-108 -18.5z" />
<glyph unicode="&#x16f;" d="M293 576q-48 0 -85.5 36.5t-37.5 85.5q0 51 37.5 88.5t85.5 37.5q47 0 85.5 -38t38.5 -88q0 -48 -38.5 -85t-85.5 -37zM293 656q18 0 31 13t13 31t-13 31.5t-31 13.5t-31.5 -13.5t-13.5 -31.5t13.5 -31t31.5 -13zM255 -13q-38 0 -72.5 12.5t-65 37.5t-48.5 71t-18 106 v304h160v-304q0 -50 23 -76t59 -26t58.5 26t22.5 76v304h157v-518h-122l-16 59q-11 -21 -33 -37.5t-50 -25.5t-55 -9z" />
<glyph unicode="&#x170;" horiz-adv-x="658" d="M280 737h-108l63 194l134 -44zM467 737h-109l62 194l136 -44zM330 -10q-59 0 -109 18.5t-88.5 54t-60.5 93t-22 130.5v403h148v-402q0 -41 10.5 -71.5t29.5 -48.5t42 -27t50 -9q55 0 93 39t38 117v402h147v-403q0 -73 -22 -130.5t-60 -93t-88 -54t-108 -18.5z" />
<glyph unicode="&#x171;" d="M242 590h-109l63 194l134 -45zM428 590h-109l62 194l136 -45zM255 -13q-38 0 -72.5 12.5t-65 37.5t-48.5 71t-18 106v304h160v-304q0 -50 23 -76t59 -26t58.5 26t22.5 76v304h157v-518h-122l-16 59q-11 -21 -33 -37.5t-50 -25.5t-55 -9z" />
<glyph unicode="&#x172;" horiz-adv-x="665" d="M455 -79v-115h-115q-35 0 -60 13.5t-36.5 34.5t-10 47.5t16.5 50.5q14 22 30 42q-103 15 -166.5 89.5t-63.5 202.5v403h148v-402q0 -41 10.5 -71.5t29.5 -48.5t42 -27t50 -9q55 0 93 39t38 117v402h147v-403q0 -106 -44 -176t-120 -99l-65 -73q-7 -6 -4.5 -11.5 t14.5 -5.5h66z" />
<glyph unicode="&#x173;" d="M528 -105v-115h-116q-34 0 -59 13.5t-36.5 34.5t-10 47.5t16.5 50.5q20 36 80 99l-10 34q-11 -21 -33 -37.5t-50 -25.5t-55 -9q-38 0 -72.5 12.5t-65 37.5t-48.5 71t-18 106v304h160v-304q0 -50 23 -76t59 -26t58.5 26t22.5 76v304h157v-518l-79 -88q-7 -6 -5 -11.5 t15 -5.5h66z" />
<glyph unicode="&#x174;" horiz-adv-x="911" d="M349 727l-59 70l105 106h125l106 -100l-60 -75l-107 57zM204 0l-188 689h159l111 -448l122 416h103l121 -418l105 450h157l-184 -689h-144l-109 358l-109 -358h-144z" />
<glyph unicode="&#x175;" horiz-adv-x="789" d="M286 573l-59 71l105 106h125l106 -100l-61 -76l-106 57zM175 0l-157 518h157l77 -304l92 304h104l94 -304l73 304h157l-153 -518h-142l-83 256l-85 -256h-134z" />
<glyph unicode="&#x176;" horiz-adv-x="644" d="M214 723l-59 70l105 106h125l106 -100l-60 -75l-107 57zM245 0v257l-228 432h167l138 -279l135 279h170l-234 -432v-257h-148z" />
<glyph unicode="&#x177;" horiz-adv-x="554" d="M169 574l-59 71l104 106h126l105 -100l-60 -76l-107 57zM278 -189h-146l78 187l-1 2l-191 518h160l99 -341l99 341h161z" />
<glyph unicode="&#x178;" horiz-adv-x="644" d="M216.5 738q-29.5 0 -52.5 23t-23 53q0 31 23 53.5t52.5 22.5t52.5 -22.5t23 -53.5q0 -30 -23 -53t-52.5 -23zM431 738q-30 0 -53 23t-23 53q0 31 23 53.5t53 22.5q29 0 51.5 -22.5t22.5 -53.5q0 -20 -10.5 -37.5t-28 -28t-35.5 -10.5zM245 0v257l-228 432h167l138 -279 l135 279h170l-234 -432v-257h-148z" />
<glyph unicode="&#x179;" horiz-adv-x="578" d="M219 740l88 195l143 -88l-115 -107h-116zM32 0v137l309 415h-299v137h491v-129l-313 -418h319v-142h-507z" />
<glyph unicode="&#x17a;" horiz-adv-x="475" d="M153 579l89 195l142 -88l-115 -107h-116zM38 0v101l223 295h-216v122h386v-104l-218 -291h224v-123h-399z" />
<glyph unicode="&#x17b;" horiz-adv-x="578" d="M287 743q-30 0 -53.5 23t-23.5 55q0 30 24 53t53 23q19 0 37 -10t29 -28t11 -38q0 -32 -23.5 -55t-53.5 -23zM32 0v137l309 415h-299v137h491v-129l-313 -418h319v-142h-507z" />
<glyph unicode="&#x17c;" horiz-adv-x="475" d="M236.5 590q-29.5 0 -53 23t-23.5 54q0 21 11 38.5t28.5 28t37.5 10.5q29 0 52.5 -23t23.5 -54t-23.5 -54t-53 -23zM38 0v101l223 295h-216v122h386v-104l-218 -291h224v-123h-399z" />
<glyph unicode="&#x17d;" horiz-adv-x="578" d="M226 743l-107 100l60 77l108 -59l110 59l58 -72l-104 -105h-125zM32 0v137l309 415h-299v137h491v-129l-313 -418h319v-142h-507z" />
<glyph unicode="&#x17e;" horiz-adv-x="475" d="M176 590l-107 100l60 76l108 -58l109 58l58 -71l-103 -105h-125zM38 0v101l223 295h-216v122h386v-104l-218 -291h224v-123h-399z" />
<glyph unicode="&#x1dd;" horiz-adv-x="550" d="M252 515q52 0 97.5 -16.5t81.5 -48t56.5 -83.5t20.5 -118q0 -64 -20 -116.5t-53.5 -86t-77.5 -51t-92 -17.5q-50 0 -93 15.5t-76 45.5t-52.5 80t-19.5 114v57h347q-3 51 -39 79.5t-87 28.5q-27 0 -53.5 -6.5t-47.5 -17t-35 -24.5l-67 96q70 69 210 69zM371 195h-209 q0 -50 29 -76.5t75 -26.5q43 0 72.5 28t32.5 75z" />
<glyph unicode="&#x1fa;" horiz-adv-x="683" d="M269 997l88 195l143 -88l-116 -107h-115zM342 719q-48 0 -85.5 36.5t-37.5 85.5q0 50 37.5 87.5t85.5 37.5t86.5 -37.5t38.5 -87.5q0 -49 -38.5 -85.5t-86.5 -36.5zM342 798q19 0 31.5 13.5t12.5 31.5t-13 31.5t-31 13.5q-17 0 -30.5 -14t-13.5 -31q0 -18 13.5 -31.5 t30.5 -13.5zM512 0l-43 124h-253l-41 -124h-158l246 689h155l248 -689h-154zM340 499l-84 -254h172z" />
<glyph unicode="&#x1fb;" horiz-adv-x="532" d="M194 833l88 195l143 -88l-116 -107h-115zM274 559q-49 0 -86.5 36.5t-37.5 85.5q0 33 17.5 62t46 46t60.5 17q47 0 85.5 -37.5t38.5 -87.5q0 -49 -38.5 -85.5t-85.5 -36.5zM274 638q18 0 30.5 13.5t12.5 31.5q0 11 -5.5 21.5t-16 17t-21.5 6.5q-18 0 -31.5 -14t-13.5 -31 q0 -18 13.5 -31.5t31.5 -13.5zM215 -8q-77 0 -128.5 46.5t-51.5 112.5q0 69 56.5 118t159.5 49q52 0 92 -13v16q0 90 -96 90q-56 0 -93 -37l-90 69q28 39 77.5 62t116.5 23q103 0 165.5 -57t62.5 -167v-304h-116l-11 59q-7 -12 -21 -25t-48 -27.5t-75 -14.5zM249 103 q17 0 33.5 6t29 15.5t21 21t9.5 23.5v46q-23 6 -77 6q-29 0 -49.5 -8t-30 -21.5t-9.5 -31.5q0 -28 19.5 -42.5t53.5 -14.5z" />
<glyph unicode="&#x1fc;" horiz-adv-x="960" d="M422 745l88 195l143 -88l-116 -107h-115zM-5 0l358 689h553v-134h-317v-142h249v-134h-249v-145h317v-134h-465v137h-209l-73 -137h-164zM296 264h145v272z" />
<glyph unicode="&#x1fd;" horiz-adv-x="819" d="M344 584l89 195l142 -88l-115 -107h-116zM792 59q-70 -69 -210 -69q-114 0 -185 71q-64 -69 -187 -69q-90 0 -145 46t-55 113q0 69 56.5 118t159.5 49q51 0 92 -13v16q0 90 -96 90q-56 0 -93 -37l-90 69q27 39 77 62t117 23q115 0 171 -65q67 65 165 65q50 0 93 -15.5 t76.5 -46t52.5 -80.5t19 -113v-58h-346q2 -51 38 -79t87 -28q28 0 54 6t47 16.5t36 24.5zM464 310h208q0 50 -29 76.5t-75 26.5q-42 0 -72 -27.5t-32 -75.5zM224 103q37 0 65 26t28 69v17q-23 6 -77 6q-44 -1 -68 -17.5t-24 -43.5q0 -19 9.5 -32t26.5 -19t40 -6z" />
<glyph unicode="&#x1fe;" horiz-adv-x="702" d="M268 744l88 195l143 -88l-116 -107h-115zM351 -10q-95 0 -167 45l-40 -56l-78 55l47 65q-76 95 -76 248q0 86 24.5 154t68 111t100 65.5t121.5 22.5q92 0 166 -44l39 53l76 -55l-43 -61q76 -94 76 -246q0 -86 -24.5 -154.5t-68 -112.5t-100 -67t-121.5 -23zM185 347 q0 -69 21 -121l229 315q-39 25 -84 25q-18 0 -34.5 -4t-33.5 -12t-31 -20t-26.5 -29.5t-21.5 -39.5t-14 -51t-5 -63zM517 347q0 70 -21 119l-229 -318q37 -24 84 -24q32 0 60.5 12.5t53 38t38.5 70t14 102.5z" />
<glyph unicode="&#x1ff;" horiz-adv-x="590" d="M210 576l89 195l142 -88l-115 -107h-116zM297 -10q-74 0 -137 40l-45 -57l-58 43l49 61q-62 71 -62 182q0 69 23 122.5t61 84.5t81 46.5t88 15.5q76 0 137 -37l45 57l58 -43l-48 -61q63 -71 63 -185q0 -67 -23 -120t-61 -84.5t-81.5 -48t-89.5 -16.5zM187 259 q0 -37 11 -66l153 194q-24 16 -54 16q-45 0 -77.5 -35.5t-32.5 -108.5zM408 259q0 41 -11 70l-154 -195q26 -17 54 -17q42 0 76.5 37t34.5 105z" />
<glyph unicode="&#x218;" horiz-adv-x="587" d="M300 -11q-85 0 -156 30.5t-120 82.5l96 102q36 -36 82 -59t96 -23q53 0 79 20t26 55q0 27 -13 44t-38.5 25.5t-69.5 13.5q-43 5 -81.5 18.5t-72.5 37.5t-54 63t-20 88q0 92 68 151.5t181 59.5q144 0 236 -94l-94 -95q-21 23 -65.5 40t-86.5 17q-47 0 -72.5 -18.5 t-25.5 -51.5t30.5 -50.5t96.5 -23.5q49 -4 89.5 -18t73.5 -39t51.5 -66t18.5 -94q0 -69 -35.5 -119t-92.5 -73.5t-127 -23.5zM214 -216l24 170h137l-54 -170h-107z" />
<glyph unicode="&#x219;" horiz-adv-x="485" d="M242 -14q-51 0 -111.5 17.5t-105.5 48.5l67 108q35 -22 77.5 -36t76.5 -14q78 0 78 47q0 11 -5.5 19t-14.5 13t-26 9.5t-33.5 7.5t-43.5 6q-42 6 -75 23t-55.5 50.5t-22.5 78.5q0 70 59.5 118.5t145.5 48.5q59 0 110 -15.5t82 -38.5l-61 -100q-7 5 -20 11.5t-49 18 t-68 13.5q-30 0 -49.5 -11.5t-19.5 -32.5q0 -9 3.5 -16t11.5 -12t15.5 -8.5t23 -6.5t25 -5t29.5 -5h4t3.5 -0.5t4.5 -1t4 -0.5q73 -11 114 -51.5t41 -108.5q0 -79 -57 -127t-158 -48zM154 -220l24 171h137l-54 -171h-107z" />
<glyph unicode="&#x21a;" horiz-adv-x="605" d="M224 0v559h-192v129h533v-129h-193v-559h-148zM205 -224l23 171h138l-55 -171h-106z" />
<glyph unicode="&#x21b;" horiz-adv-x="367" d="M89 148v255h-69v115h68l29 140h122v-140h95v-115h-95v-209q0 -30 8 -47t22 -22.5t39 -5.5h24v-116q-25 -6 -73 -6q-80 0 -125 38.5t-45 112.5zM106 -222l23 171h138l-55 -171h-106z" />
<glyph unicode="&#x2c6;" horiz-adv-x="323" d="M62 542l-59 71l105 106h125l106 -100l-61 -76l-106 57z" />
<glyph unicode="&#x2c7;" horiz-adv-x="374" d="M113 543l-107 100l60 77l108 -58l109 58l58 -72l-103 -105h-125z" />
<glyph unicode="&#x2d8;" horiz-adv-x="363" d="M182 565q-55 0 -103.5 25.5t-71.5 62.5l73 71q16 -21 46 -35t56 -14q18 0 36.5 6t35 17t28.5 26l76 -72q-22 -36 -71.5 -61.5t-104.5 -25.5z" />
<glyph unicode="&#x2d9;" horiz-adv-x="165" d="M83.5 558q-29.5 0 -53 23t-23.5 54t23.5 54t52.5 23q20 0 37.5 -10.5t28.5 -28t11 -38.5q0 -31 -23.5 -54t-53 -23z" />
<glyph unicode="&#x2da;" horiz-adv-x="259" d="M130 506q-48 0 -85.5 37t-37.5 86q0 50 37.5 87.5t85.5 37.5q47 0 85.5 -37.5t38.5 -87.5q0 -49 -38.5 -86t-85.5 -37zM130 586q12 0 22 6t16 16.5t6 21.5q0 12 -6 22.5t-16 16.5t-22 6q-17 0 -31 -13.5t-14 -31.5t13.5 -31t31.5 -13z" />
<glyph unicode="&#x2db;" horiz-adv-x="357" d="M270 -235h-116q-34 0 -59 13.5t-36.5 34.5t-10 47.5t16.5 51.5q19 32 82 103q6 6 25 10t35 5l17 1l49 -46l-79 -88q-7 -6 -5 -11t15 -5h66v-116z" />
<glyph unicode="&#x2dc;" horiz-adv-x="431" d="M7 540q3 49 36.5 88t84.5 42q35 2 64.5 -7.5t54 -21t44.5 -11.5q45 -3 60 46l75 -26q-3 -44 -36.5 -85.5t-82.5 -44.5q-42 -3 -85.5 18t-74.5 23q-51 1 -76 -43l-16 5.5t-32 11.5z" />
<glyph unicode="&#x2dd;" horiz-adv-x="396" d="M115 527h-108l63 194l134 -45zM302 527h-109l62 194l136 -45z" />
<glyph unicode="&#x1e80;" horiz-adv-x="911" d="M395 739l-117 98l167 107l88 -205h-138zM204 0l-188 689h159l111 -448l122 416h103l121 -418l105 450h157l-184 -689h-144l-109 358l-109 -358h-144z" />
<glyph unicode="&#x1e81;" horiz-adv-x="789" d="M345 582l-116 98l167 107l87 -205h-138zM175 0l-157 518h157l77 -304l92 304h104l94 -304l73 304h157l-153 -518h-142l-83 256l-85 -256h-134z" />
<glyph unicode="&#x1e82;" horiz-adv-x="911" d="M390 740l88 195l143 -88l-116 -107h-115zM204 0l-188 689h159l111 -448l122 416h103l121 -418l105 450h157l-184 -689h-144l-109 358l-109 -358h-144z" />
<glyph unicode="&#x1e83;" horiz-adv-x="789" d="M311 579l89 195l142 -88l-115 -107h-116zM175 0l-157 518h157l77 -304l92 304h104l94 -304l73 304h157l-153 -518h-142l-83 256l-85 -256h-134z" />
<glyph unicode="&#x1e84;" horiz-adv-x="911" d="M351.5 741q-29.5 0 -53 23t-23.5 53q0 31 23 53.5t53 22.5t53 -22.5t23 -53.5q0 -30 -23 -53t-52.5 -23zM566 741q-30 0 -53 23t-23 53q0 20 10.5 38t28 28t37.5 10q29 0 51.5 -22.5t22.5 -53.5q0 -30 -23 -53t-51 -23zM204 0l-188 689h159l111 -448l122 416h103 l121 -418l105 450h157l-184 -689h-144l-109 358l-109 -358h-144z" />
<glyph unicode="&#x1e85;" horiz-adv-x="789" d="M288 593q-29 0 -52.5 22.5t-23.5 52.5q0 32 23 54.5t53 22.5t53 -22.5t23 -54.5q0 -20 -11 -37.5t-28.5 -27.5t-36.5 -10zM502 593q-29 0 -52 22.5t-23 52.5q0 32 23 54.5t52 22.5t52 -22.5t23 -54.5q0 -30 -23 -52.5t-52 -22.5zM175 0l-157 518h157l77 -304l92 304h104 l94 -304l73 304h157l-153 -518h-142l-83 256l-85 -256h-134z" />
<glyph unicode="&#x1ef2;" horiz-adv-x="644" d="M259 736l-116 98l166 107l88 -205h-138zM245 0v257l-228 432h167l138 -279l135 279h170l-234 -432v-257h-148z" />
<glyph unicode="&#x1ef3;" horiz-adv-x="554" d="M229 583l-116 98l166 107l88 -205h-138zM278 -189h-146l78 187l-1 2l-191 518h160l99 -341l99 341h161z" />
<glyph unicode="&#x2000;" horiz-adv-x="596" />
<glyph unicode="&#x2001;" horiz-adv-x="1192" />
<glyph unicode="&#x2002;" horiz-adv-x="596" />
<glyph unicode="&#x2003;" horiz-adv-x="1192" />
<glyph unicode="&#x2004;" horiz-adv-x="397" />
<glyph unicode="&#x2005;" horiz-adv-x="298" />
<glyph unicode="&#x2006;" horiz-adv-x="198" />
<glyph unicode="&#x2007;" horiz-adv-x="198" />
<glyph unicode="&#x2008;" horiz-adv-x="149" />
<glyph unicode="&#x2009;" horiz-adv-x="238" />
<glyph unicode="&#x200a;" horiz-adv-x="66" />
<glyph unicode="&#x2010;" horiz-adv-x="436" d="M63 242v135h309v-135h-309z" />
<glyph unicode="&#x2011;" horiz-adv-x="436" d="M63 242v135h309v-135h-309z" />
<glyph unicode="&#x2012;" horiz-adv-x="436" d="M63 242v135h309v-135h-309z" />
<glyph unicode="&#x2013;" horiz-adv-x="556" d="M69 241v135h419v-135h-419z" />
<glyph unicode="&#x2014;" horiz-adv-x="882" d="M78 242v135h728v-135h-728z" />
<glyph unicode="&#x2018;" horiz-adv-x="258" d="M46 689h137l29 -230h-113z" />
<glyph unicode="&#x2019;" horiz-adv-x="258" d="M75 689h137l-53 -230h-113z" />
<glyph unicode="&#x201a;" horiz-adv-x="261" d="M179 230v-230h-116v230h116z" />
<glyph unicode="&#x201c;" horiz-adv-x="462" d="M250 689h138l29 -230h-113zM46 689h137l29 -230h-113z" />
<glyph unicode="&#x201d;" horiz-adv-x="461" d="M278 689h138l-53 -230h-114zM75 689h137l-53 -230h-113z" />
<glyph unicode="&#x201e;" horiz-adv-x="467" d="M384 230v-230h-116v230h116zM179 230v-230h-116v230h116z" />
<glyph unicode="&#x2020;" horiz-adv-x="540" d="M200 114v337h-132v128h132v126h141v-126h131v-128h-131v-337h-141z" />
<glyph unicode="&#x2021;" horiz-adv-x="540" d="M341 240v-127h-142v127h-131v128h131v83h-130v128h130v126h142v-126h131v-128h-131v-83h131v-128h-131z" />
<glyph unicode="&#x2022;" horiz-adv-x="383" d="M192 241q-48 0 -80 30.5t-32 81t32 81.5t80 31q32 0 57.5 -14t40.5 -39.5t15 -59.5q0 -51 -32 -81t-81 -30z" />
<glyph unicode="&#x2026;" horiz-adv-x="732" d="M124.5 -7q-33.5 0 -55 22t-21.5 56t21.5 55t55 21t55.5 -21t22 -55t-22 -56t-55.5 -22zM364.5 -7q-33.5 0 -55.5 22t-22 56q0 22 10 39.5t28 27t40 9.5q33 0 55 -21t22 -55t-22 -56t-55.5 -22zM601 -7q-34 0 -55.5 22t-21.5 56t21.5 55t55.5 21t55.5 -21t21.5 -55 t-21.5 -56t-55.5 -22z" />
<glyph unicode="&#x202f;" horiz-adv-x="238" />
<glyph unicode="&#x2039;" horiz-adv-x="350" d="M186 81l-125 164v53l120 162l104 -77l-85 -110l85 -114z" />
<glyph unicode="&#x203a;" horiz-adv-x="350" d="M141 460l125 -164v-53l-120 -162l-104 77l85 111l-85 113z" />
<glyph unicode="&#x205f;" horiz-adv-x="298" />
<glyph unicode="&#x20ac;" horiz-adv-x="650" d="M579 17q-69 -28 -170 -28q-119 0 -203 59t-112 178h-64v88h52q-1 9 -1 28q0 23 1 33h-52v89h65q15 59 45.5 104t73.5 74t96 43t116 14q111 0 195 -43l-51 -132q-62 37 -139 37q-71 0 -111.5 -23t-57.5 -74h289l-30 -89h-274q-1 -9 -1 -31q0 -20 1 -30h252l-29 -88h-208 q12 -34 33 -55t51 -31t71 -10q81 0 162 34v-147z" />
<glyph unicode="&#x2190;" horiz-adv-x="765" d="M345 30l-305 304l305 303l99 -99l-137 -137h377v-134h-377l137 -138z" />
<glyph unicode="&#x2191;" horiz-adv-x="664" d="M262 19v399l-137 -138l-99 99l304 305l303 -305l-99 -99l-137 138v-399h-135z" />
<glyph unicode="&#x2192;" horiz-adv-x="762" d="M414 28l-99 99l138 138h-378v134h378l-138 137l99 99l305 -302z" />
<glyph unicode="&#x2193;" horiz-adv-x="663" d="M330 9l-304 305l99 98l137 -137v398h135v-398l137 137l99 -98z" />
<glyph unicode="&#x2212;" horiz-adv-x="615" d="M536 258h-455v123h455v-123z" />
<glyph unicode="&#x25fc;" horiz-adv-x="518" d="M0 519h519v-519h-519v519z" />
<glyph unicode="&#xf6c3;" horiz-adv-x="174" d="M7 -210l23 171h138l-55 -171h-106z" />
<glyph horiz-adv-x="408" d="M46 -153v92l127 123l9 9q23 22 32.5 31t18.5 20t11 17.5t2 14.5q0 19 -12.5 29.5t-31.5 10.5q-44 0 -52 -44h-107q3 63 47.5 105t113.5 42q72 0 116 -42t44 -99q0 -24 -7 -44.5t-22.5 -39.5t-26.5 -30t-33 -30q-6 -6 -9 -8l-67 -59h166v-98h-319z" />
</font>
</defs>
</svg>
