<?xml version="1.0" encoding="UTF-8"?>
<svg width="15px" height="14px" viewBox="0 0 15 14" version="1.1" xmlns="http://www.w3.org/2000/svg" xmlns:xlink="http://www.w3.org/1999/xlink">
    <!-- Generator: Sketch 40.3 (33839) - http://www.bohemiancoding.com/sketch -->
    <title>Instagram</title>
    <desc>Created with Sketch.</desc>
    <defs>
        <polygon id="path-1" points="0.227 14 14.227 14 14.227 0.0002 0.227 0.0002 0.227 14"></polygon>
    </defs>
    <g id="Page-1" stroke="none" stroke-width="1" fill="none" fill-rule="evenodd">
        <g id="Desktop---Sub-page" transform="translate(-1179.000000, -929.000000)">
            <g id="Nav-2" transform="translate(1116.000000, 788.000000)">
                <g id="Social-media" transform="translate(12.000000, 141.000000)">
                    <g id="Instagram" transform="translate(51.000000, 0.000100)">
                        <mask id="mask-2" fill="white">
                            <use xlink:href="#path-1"></use>
                        </mask>
                        <g id="Clip-8"></g>
                        <path d="M7.227,1.2612 C9.096,1.2612 9.317,1.2682 10.056,1.3022 C10.738,1.3332 11.109,1.4472 11.355,1.5432 C11.682,1.6702 11.915,1.8212 12.16,2.0662 C12.405,2.3112 12.557,2.5452 12.684,2.8712 C12.78,3.1182 12.894,3.4892 12.925,4.1712 C12.959,4.9092 12.966,5.1312 12.966,7.0002 C12.966,8.8692 12.959,9.0902 12.925,9.8282 C12.894,10.5112 12.78,10.8812 12.684,11.1282 C12.557,11.4552 12.405,11.6882 12.16,11.9332 C11.915,12.1782 11.682,12.3302 11.355,12.4572 C11.109,12.5532 10.738,12.6672 10.056,12.6982 C9.318,12.7312 9.096,12.7382 7.227,12.7382 C5.358,12.7382 5.136,12.7312 4.398,12.6982 C3.716,12.6672 3.345,12.5532 3.099,12.4572 C2.772,12.3302 2.539,12.1782 2.294,11.9332 C2.049,11.6882 1.897,11.4552 1.77,11.1282 C1.674,10.8812 1.56,10.5112 1.529,9.8282 C1.495,9.0902 1.488,8.8692 1.488,7.0002 C1.488,5.1312 1.495,4.9092 1.529,4.1712 C1.56,3.4892 1.674,3.1182 1.77,2.8712 C1.897,2.5452 2.049,2.3112 2.294,2.0662 C2.539,1.8212 2.772,1.6702 3.099,1.5432 C3.345,1.4472 3.716,1.3332 4.398,1.3022 C5.137,1.2682 5.358,1.2612 7.227,1.2612 M7.227,0.0002 C5.326,0.0002 5.088,0.0082 4.341,0.0422 C3.596,0.0762 3.087,0.1942 2.642,0.3672 C2.181,0.5462 1.791,0.7852 1.402,1.1752 C1.013,1.5642 0.773,1.9542 0.594,2.4142 C0.421,2.8602 0.303,3.3692 0.269,4.1142 C0.235,4.8602 0.227,5.0992 0.227,7.0002 C0.227,8.9012 0.235,9.1392 0.269,9.8862 C0.303,10.6312 0.421,11.1402 0.594,11.5852 C0.773,12.0452 1.013,12.4362 1.402,12.8252 C1.791,13.2142 2.181,13.4532 2.642,13.6322 C3.087,13.8052 3.596,13.9242 4.341,13.9582 C5.088,13.9922 5.326,14.0002 7.227,14.0002 C9.128,14.0002 9.366,13.9922 10.113,13.9582 C10.858,13.9242 11.367,13.8052 11.812,13.6322 C12.273,13.4532 12.663,13.2142 13.052,12.8252 C13.441,12.4362 13.681,12.0452 13.86,11.5852 C14.033,11.1402 14.151,10.6312 14.185,9.8862 C14.219,9.1392 14.227,8.9012 14.227,7.0002 C14.227,5.0992 14.219,4.8602 14.185,4.1142 C14.151,3.3692 14.033,2.8602 13.86,2.4142 C13.681,1.9542 13.441,1.5642 13.052,1.1752 C12.663,0.7852 12.273,0.5462 11.812,0.3672 C11.367,0.1942 10.858,0.0762 10.113,0.0422 C9.366,0.0082 9.128,0.0002 7.227,0.0002" id="Fill-7" fill="#959CA3" mask="url(#mask-2)"></path>
                        <path d="M7.227,3.4053 C5.242,3.4053 3.632,5.0143 3.632,7.0003 C3.632,8.9853 5.242,10.5943 7.227,10.5943 C9.212,10.5943 10.822,8.9853 10.822,7.0003 C10.822,5.0143 9.212,3.4053 7.227,3.4053 M7.227,9.3333 C5.938,9.3333 4.894,8.2883 4.894,7.0003 C4.894,5.7113 5.938,4.6663 7.227,4.6663 C8.516,4.6663 9.56,5.7113 9.56,7.0003 C9.56,8.2883 8.516,9.3333 7.227,9.3333" id="Fill-10" fill="#959CA3" mask="url(#mask-2)"></path>
                        <path d="M11.8036,3.2633 C11.8036,3.7273 11.4276,4.1033 10.9636,4.1033 C10.4996,4.1033 10.1236,3.7273 10.1236,3.2633 C10.1236,2.7993 10.4996,2.4233 10.9636,2.4233 C11.4276,2.4233 11.8036,2.7993 11.8036,3.2633" id="Fill-12" fill="#959CA3" mask="url(#mask-2)"></path>
                    </g>
                </g>
            </g>
        </g>
    </g>
</svg>