<svg xmlns="http://www.w3.org/2000/svg"  viewBox="0 0 382 361" version="1.1" xml:space="preserve" stroke-linejoin="round"><style>.s0{fill:#fff;}</style><path d="M276.3 82.6c-0.9-4.7-2.8-9.2-5.6-13.1 -1.6-2.2-3.6-4.3-5.8-6.1 1.4-3.7 2-7.8 1.7-11.8 -0.2-4.1-1.3-8.1-3.1-11.8 -1.9-3.8-4.5-7.3-7.7-10 -4.1-3.7-8.9-6.4-14.2-8.2 -2.5-0.8-5.2-1.4-7.9-1.7 -0.9-2.2-2.1-4.3-3.5-6.1 -5.2-6.7-11.8-9.2-16.3-10.9 -12.4-4.3-25.9-3.6-37.9 1.9 -4.5 2.2-8.6 5.1-12.2 8.6 -1.1-1-2.5-1.9-3.9-2.6 -6-2.8-11.5-1.4-14.2-0.7 -5.5 1.4-9 4.3-11.3 6.2 -3.8 3.2-7 7.1-9.3 11.5 -4.5 8.1-6.3 17.4-5.3 26.6 -1.8 1.1-3.4 2.4-5 3.8 -2.8 2.5-5.2 5.3-7.1 8.5 -2.4 4.1-4 8.5-4.9 13.1 -0.8 4.5-0.9 9.1-0.3 13.6 0.7 4.7 2 9.3 4 13.7 1.4 3.1 2.9 6.1 4.7 8.9l5.7-3.6c-1.6-2.5-3-5.2-4.1-7.9 -1.7-3.7-2.9-7.7-3.5-11.8 -0.5-3.8-0.4-7.6 0.2-11.4 0.7-3.8 2.1-7.5 4.1-10.9 1.7-2.6 3.6-4.9 5.9-7 4.4-3.9 9.7-6.6 15.4-8 0.5-0.1 0.9-0.2 1.4-0.4 -1.6 3.3-2.9 6.8-3.8 10.4 -1.6 6.6-1.7 13.4-0.5 20.1 1.1 6.5 3 11.3 5.7 17.8 1.8 4.4 3.9 8.7 6.2 12.8l5.9-3.2c-2.2-4-4.1-8-5.8-12.1 -2.6-6.4-4.3-10.5-5.2-16.2 -2.5-13.5 1.8-27.4 11.6-37.1 1.7-1.8 3.6-3.4 5.6-4.9 0 0.6-0.1 1.2-0.1 1.9 0 0.7-0.1 1.6-0.1 2.4 -0.3 6.8 0.3 13.5 1.8 20 1.4 6 3.6 11.8 6.5 17.2 5.3 9.9 13.4 18 23.1 23.5 5.7 3.4 11.8 6.2 18.1 8.2 6.4 2.3 12.9 3.9 19.5 5l1.1-6.7c-6.2-1-12.4-2.6-18.4-4.7 -5.8-1.9-11.5-4.4-16.8-7.6 -4.3-2.4-8.2-5.4-11.7-8.8 -3.5-3.6-6.6-7.7-9-12.1 -0.3-0.5-0.7-1.2-1-2 3.1 1.2 6.3 2.2 9.6 2.9 3.5 0.8 7.1 1.3 10.7 1.4 1.6 0 3.2-0.1 4.7-0.3 6.1-0.9 11.9-3.2 17-6.8 5.1-3.4 8.1-7 10.7-10.1 3.2-3.8 5.9-7.9 8.2-12.4 2-3.7 3.4-7.5 4.4-11.5 2.4 2 4.6 4.1 6.5 6.5 2.9 3.8 5 8 6.5 12.5 2 6.2 2 11.3 2.1 17 0.1 3.8-0.2 7.6-0.9 11.3 -0.7 3.2-1.2 5.9-2.9 9.1 -1.8 3.2-4.1 6-7 8.3 -2.1 1.9-4.4 3.5-6.9 4.8l3.2 5.9c2.9-1.6 5.7-3.4 8.2-5.6 3.5-2.8 6.4-6.3 8.5-10.2 2.2-4.1 2.9-7.6 3.6-10.9 0.8-4.2 1.1-8.4 1.1-12.7 0-0.8 0-1.6 0-2.5l0.2-0.1c2.3-1.4 4.2-3.2 5.9-5.2 1.4 1.2 2.7 2.6 3.8 4.1 2.3 3.1 3.8 6.7 4.4 10.4 0.8 3.8 0.7 7.7-0.4 11.4 -1 3.4-2.9 6.4-5.4 8.9 -1.4 1.5-3.1 2.7-5 3.6 -0.5 0.2-1.1 0.5-1.6 0.6l2 6.5c0.8-0.2 1.7-0.5 2.4-0.9 2.6-1.2 5-2.8 7-4.9 3.2-3.3 5.7-7.3 7.1-11.7 1.4-4.9 1.7-9.9 0.6-14.8Zm-97.3-71.8c10.3-4.7 22-5.3 32.6-1.6 3.9 1.4 9.3 3.4 13.2 8.6 0.4 0.5 0.8 1.1 1.1 1.6l-0.5 0c-8.2-0.3-12.4-0.4-15.9 1.4 -2.4 1.3-4.4 3.1-6 5.3 -0.3-0.7-0.6-1.3-0.9-1.9 -1.9-3.7-3.2-5.1-4.1-5.8 -1.9-1.6-4.2-2.6-6.6-3 -0.7-0.1-2.7-0.4-6.8 0.5 -2.8 0.7-6.1 1.5-9.5 3.9 -1.6 1.1-2.9 2.4-4.1 3.8 -0.1-0.3-0.3-0.5-0.4-0.8 -0.6-1.2-1.3-2.3-2.1-3.4l-0.3-0.4 -0.2-0.3c3-3.1 6.7-5.7 10.7-7.6Zm-11.5 18.8c3.2 4.1 7.4 7.2 12.2 9 6.8 2.6 14.3 2.1 20.7-1.1 2.3-1.1 4.4-2.6 6.1-4.5 -0.7 1.8-1.4 3.6-2.4 5.3 -1.9 3.4-4.4 6.4-7.3 8.9l-0.1 0.2c-3.4 2.9-5.8 5.1-9.5 5.6 -3.3 0.5-6-0.4-8.4-1.2 -4.8-1.6-8.1-4.3-11.6-7.3 -1.6-1.3-3.1-2.7-4.5-4.2 0-1.9 0.4-3.9 1.1-5.7 0.8-1.9 2.2-3.7 3.9-4.9Zm8.3-1c1-1.3 2.2-2.5 3.5-3.5 2.3-1.6 4.6-2.2 7.2-2.8 1.4-0.4 2.8-0.5 4.1-0.4 1.3 0.2 2.4 0.8 3.4 1.5 0.2 0.2 1.1 1 2.4 3.7 0.7 1.3 1.2 2.6 1.7 4 -0.3 0.2-0.6 0.4-1 0.5 -4.7 2.4-10.3 2.8-15.3 0.8 -2.2-0.9-4.2-2.1-6.1-3.7Zm-30.7 13.5c-1.5 1.5-2.8 3.2-4.1 4.8 -2.7 0.3-5.4 0.8-8 1.5 -2.2 0.6-4.4 1.4-6.6 2.3 -0.3-6.9 1.4-13.8 4.7-19.8 1.9-3.7 4.5-6.9 7.7-9.5 2.1-1.7 4.7-3.8 8.7-4.8 2.3-0.6 5.9-1.5 9.8 0.3 2.3 1.1 3.8 3.2 5.9 6l0.3 0.5c0.2 0.3 0.4 0.5 0.5 0.8 -2.9 2-5.2 4.7-6.5 7.9 -0.1 0.4-0.3 0.8-0.4 1.1 -4.3 2.3-8.3 5.5-11.8 9.1Zm78.2 7.6c-2 4-4.5 7.7-7.3 11.1 -2.5 2.9-5 6-9.3 8.9 -4.2 3-9 5-14.1 5.7 -5.2 0.7-9.2-0.1-13.1-1 -5.1-1-10-2.8-14.6-5.3 -0.4-1.3-0.8-2.8-1.2-4.3 -1.1-5.1-1.6-10.3-1.6-15.5 0.2 0.2 0.4 0.3 0.5 0.5 3.7 3.1 7.9 6.5 13.9 8.5 2.8 1.1 5.6 1.6 8.6 1.7 1 0 2-0.1 2.9-0.2 5.7-0.8 9.2-3.9 13-7.2l0.2-0.1c3.5-3 6.5-6.6 8.8-10.6 2.3-4.3 4-8.9 4.9-13.7 1.8 0.5 3.6 1.1 5.3 2 1.7 0.8 3.3 1.8 4.7 3.2 1.4 1.5 2.3 3.3 2.8 5.3 -0.1 0.3-0.1 0.6-0.1 0.8 -0.8 3.6-2.1 7.1-3.9 10.5Zm31.7 16.9c-0.4-2.8-1-5.6-1.9-8.4 -1.6-5.2-4.2-10.1-7.5-14.5 -3.7-4.7-8.2-8.7-13.3-11.7 -0.7-1.3-1.5-2.4-2.5-3.4 -0.8-0.9-1.6-1.6-2.6-2.3 5.2 0.2 8.4 0.5 12.5 1.8 4.4 1.4 8.4 3.8 11.8 6.8 2.6 2.3 4.7 5 6.2 8 1.4 2.9 2.3 6 2.4 9.2 0.4 3.5-0.2 6.9-1.6 10.1 -0.9 1.7-2 3.2-3.4 4.6Z" fill="#fff"/><path d="M174.4 188.1l3.8 0 -0.7 17.9 -4.1-1.3 1.1-16.5ZM181.6 200.5l7.9-17.2 2.6-0.6 2.3 14.4 -2.8 9.6 -4.9 9.5 -6.3-1.5 1.3-14.1ZM203.5 186.9l4.5 2.9 0 12 -4.5 0.8 0-15.7ZM196.3 201.8l5 0 0 3.6 -5 3 0-6.6Z"/><path d="M145.7 175c-2.2-1.9-4.6-3.6-7.3-4.7 -1.6-0.6-3.2-1.1-4.9-1.4 -1.3-0.3-2.6-0.4-4-0.6 -4.5-0.4-94-0.1-121.5 0l-0.5 0 -7.5 7.5 8 0c80.3-0.2 118.6-0.1 120.9 0 1 0.1 2 0.2 3 0.5 1.2 0.2 2.5 0.6 3.6 1.1 1.9 0.8 3.6 2 5.2 3.3 3.9 3.1 5.9 8 5.3 13 -0.1 2-0.5 3.8-1.3 5.6l7 2.7c1-2.5 1.6-5.2 1.8-7.9 0.8-7.3-2.1-14.4-7.7-19ZM165.7 176.6c-1.8-4-4-6.5-6.6-9.4l-0.1-0.1c-2.7-3.1-5.9-5.9-9.4-8.2 -2.7-1.7-5.6-3.1-8.6-4.1 -2.4-0.8-4.9-1.4-7.4-1.6 -1.3-0.1-2.7-0.1-4-0.1 -3.4 0.2-38.9 0.2-105.7 0l-0.1 0 -1 0 -7.5 7.5 8.5 0c68 0.2 102.7 0.2 106.3 0 1-0.1 2 0 2.9 0.1 2 0.2 3.8 0.7 5.7 1.4 2.5 0.8 4.9 2 7.1 3.4 2.9 1.9 5.6 4.2 7.9 6.8l0.1 0.1c2.3 2.6 4 4.4 5.3 7.4 1.4 3.2 2 6.5 2.1 9.9 0.1 2 0 4-0.1 8 -0.1 1.9-0.2 3.8-0.4 5.7l7.5 0.6c0.2-1.9 0.3-4 0.4-5.9 0.2-2.9 0.3-5.8 0.2-8.8 -0.1-4.3-1-8.6-2.8-12.6ZM176.8 167.4c-2.9-5.4-6.7-10.3-11.2-14.5 -3.7-3.3-7.7-6.1-12.1-8.3 -4-2.2-8.2-3.9-12.7-5 -2.8-0.7-5.7-1.1-8.6-1.2 -1.1-0.1-2.2-0.1-3.3 0 -7.8 0.3-71 0-71.7 0l-15.7 0 -2.8 0 -1.3 0 -7.5 7.5 27.2 0c2.6 0 64.1 0.3 72 0 0.9 0 1.8 0 2.7 0 2.4 0.2 4.8 0.5 7.1 1.1 3.8 1 7.5 2.4 11 4.4 3.8 2 7.4 4.4 10.6 7.3 7.4 6.8 12.5 15.8 14.6 25.7 1.1 5.2 0.9 9.2 0.7 14.4 -0.1 4.2-0.6 8.5-1.3 12.6l7.4 1.3c0.8-4.5 1.3-9.1 1.4-13.6 0.2-5.4 0.4-10-0.8-16.1 -1-5.4-2.9-10.6-5.5-15.4ZM192.3 163.6c-3-6.4-6.9-12.4-11.6-17.8 -2.2-2.5-4.7-4.9-7.3-7.1 -3.7-3.1-7.8-5.8-12.1-7.9 -7.2-3.4-14.8-5.8-22.7-7.1 -1.4-0.2-2.8-0.4-4.3-0.4 -1.4-0.1-2.5-0.1-2.8 0 -1.6 0-3.4 0.1-5.4 0.1l-3.2 0c-4.2 0-6.7 0-9.9-0.1 -6.2-0.1-26-0.1-58.9 0l-1.2 0 -7.5 7.5 8.3 0c33.2-0.1 53.1-0.1 59.3 0 3.2 0.1 5.9 0.1 10 0.1l3.2 0c2.1 0 3.9 0 5.6-0.1 0.3 0 1.1 0 2.3 0 1.1 0 2.1 0.2 3.6 0.4 2.9 0.5 5.9 1.1 8.6 2 4.1 1.1 8 2.6 11.7 4.4 3.8 2 7.4 4.4 10.7 7.1 2.3 2 4.5 4.1 6.5 6.4 10.7 11.9 16.6 27.4 16.5 43.4 -0.1 3.1-0.3 6.2-0.7 9.3l-0.1 0.8c-0.3 2.6-0.7 5.2-1 7.7l7.4 1.2c0.5-2.7 0.8-5.4 1.1-8.1l0.1-0.8c0.5-3.4 0.7-6.7 0.8-10 0-4.9-0.4-9.7-1.4-14.4 -1.1-5.7-2.9-11.2-5.3-16.3ZM213.2 189.5c-0.3-5.9-1.2-11.8-2.6-17.6 -1.3-5.2-3.2-13.2-8.4-22 -3.8-6.4-7.7-10.6-11.2-14.4 -4.1-4.6-8.8-8.8-13.9-12.3 -3.8-2.5-7-4.1-13.4-7.3 -3.2-1.6-6.5-3.1-10-4.2 -2.8-0.9-5.6-1.6-8.5-2.1 -2.6-0.4-5.3-0.7-8-0.8 -5.7-0.2-30.9-0.4-68-0.2l-1.9 0 -7.5 7.5 9.8 0c36.5-0.1 62 0.1 67.4 0.2 2.3 0.1 4.7 0.3 7 0.7 2.6 0.5 5 1.1 7.5 1.9 3.1 1.1 6.1 2.3 9 3.8 6.2 3 9.2 4.5 12.5 6.8 5.8 3.8 9.4 7.8 12.6 11.2 3.4 3.6 6.9 7.4 10.3 13.1 4.7 7.9 6.4 14.9 7.6 20 1.3 5.4 2.1 10.9 2.4 16.4 0.2 3.8 0.2 7.4 0.1 11.2 0 0.5-0.1 0.8-0.1 1.1l7.5 0.5c0-0.3 0.1-0.7 0.1-1.1 0.2-4 0.2-8-0.1-12.1Z" fill="#fff"/><path d="M235.7 165.1c2.3-1.4 4.6-2.5 7.1-3.4 1.8-0.7 3.8-1.1 5.7-1.3 1-0.1 2-0.1 3-0.1 3.5 0.2 38.3 0.2 106.1 0l8.6 0 -7.5-7.5 -1 0c-66.9 0.2-102.5 0.2-105.9 0 -1.3-0.1-2.6-0.1-4 0.1 -2.5 0.3-5 0.8-7.4 1.7 -3 1.1-5.9 2.4-8.6 4.1 -3.5 2.3-6.7 5-9.4 8.2l-0.1 0.1c-2.5 2.9-4.8 5.3-6.6 9.4 -1.7 4-2.6 8.3-2.8 12.6 -0.1 2.7 0 5.4 0.2 8.1l0 0.8c0.1 1.4 0.2 2.9 0.2 4.3l7.5-0.5c-0.1-1.4-0.1-2.7-0.2-4.1l0-0.7c-0.1-3-0.2-5.3-0.1-7.3 0.1-3.4 0.8-6.7 2.1-9.9 1.4-3 3-4.8 5.3-7.4l0.1-0.1c2.3-2.6 4.9-4.9 7.8-6.8ZM220.9 158.3c3.2-2.8 6.8-5.3 10.6-7.3 3.5-1.9 7.1-3.4 11-4.3 2.3-0.6 4.7-0.9 7.1-1 0.9 0 1.8 0 2.7 0 8 0.3 69.4 0 71.9 0l27.2 0 -7.5-7.5 -1.3 0 -2.8 0 -15.7 0c-0.6 0-63.8 0.3-71.7 0 -1-0.1-2.2 0-3.3 0 -2.9 0.2-5.8 0.5-8.6 1.2 -4.4 1.1-8.7 2.8-12.7 5 -4.4 2.3-8.5 5-12.1 8.3 -8.6 8-14.5 18.4-16.9 29.8 -1.1 5.6-1 10.3-0.8 15.8l0 0.4c0.1 2.8 0.3 5.6 0.5 8.4l7.5-0.7c-0.3-2.5-0.4-5.2-0.5-7.8l0-0.4c-0.1-5.2-0.3-9.3 0.7-14 2.3-9.8 7.4-18.8 14.8-25.7ZM195.8 166.5c2.7-5.8 6.2-11.2 10.5-16 2-2.2 4.2-4.4 6.5-6.4 3.3-2.8 6.9-5.1 10.7-7 3.8-1.9 7.7-3.4 11.7-4.4 2.9-0.8 5.7-1.5 8.6-1.9 1.5-0.2 2.6-0.4 3.6-0.4 1.1 0 2 0 2.3 0 1.7 0.1 3.5 0.1 5.6 0.1l3.4 0c4 0 6.7 0 9.8-0.1 6.2-0.1 26.2-0.1 59.3 0l8.3 0 -7.5-7.5 -1.2 0c-32.9-0.1-52.7-0.1-58.9 0 -3.1 0.1-5.8 0.1-9.7 0.1l-3.4 0c-2.1 0-3.7 0-5.4-0.1 -0.4 0-1.4 0-2.8 0 -1.3 0-2.8 0.3-4.3 0.5 -7.9 1.3-15.5 3.7-22.7 7.1 -4.3 2.2-8.4 4.9-12.1 8 -2.6 2.2-5.1 4.6-7.3 7.1 -11.9 13.3-18.4 30.6-18.4 48.5 0.1 3.4 0.3 6.7 0.8 10.1l0.2 1.7c0.2 2.3 0.5 4.6 1.1 7.4 0.2 1.3 0.5 2.6 0.8 3.8l7.3-1.6c-0.3-1.1-0.5-2.3-0.7-3.5 -0.4-2.5-0.7-4.7-0.9-6.8l-0.1-1.6c-0.4-3.1-0.6-6.1-0.7-9.2 0-4.3 0.5-8.7 1.3-12.9 0.9-5.1 2.5-10 4.7-14.6ZM178 173.4c1.3-5.1 2.9-12.1 7.6-19.9 3.4-5.7 6.9-9.4 10.3-13.1 3.2-3.4 6.8-7.3 12.6-11.2 3.4-2.2 6.5-3.7 12.5-6.7 2.9-1.5 5.9-2.8 9-3.8 2.5-0.8 5-1.4 7.5-1.9 2.3-0.4 4.7-0.6 7-0.7 5.5-0.1 30.9-0.4 67.4-0.2l9.8 0 -7.5-7.5 -1.9 0c-37.1-0.1-62.3 0.1-67.9 0.2 -2.7 0.1-5.3 0.4-8 0.8 -2.9 0.5-5.8 1.2-8.5 2.1 -3.4 1.1-6.7 2.6-10 4.2 -6.4 3.2-9.7 4.7-13.4 7.3 -5.1 3.5-9.8 7.7-13.9 12.3 -3.4 3.8-7.4 8-11.2 14.4 -5.2 8.9-7.1 16.8-8.4 22.1 -1.4 5.8-2.2 11.7-2.6 17.6 -0.2 4.1-0.3 8-0.1 12.1 0 0.2 0.1 1.5 0.2 3.2 0.2 1.7 0.2 3.2 0.3 4.1l7.5-0.6c-0.1-1-0.2-2.3-0.3-4 -0.1-1.7-0.2-2.9-0.2-3.1 -0.1-3.7-0.1-7.5 0.1-11.2 0.3-5.5 1.1-11 2.4-16.4ZM373.8 168l-0.5 0c-27.4-0.1-117-0.4-121.5 0 -1.3 0.2-2.6 0.3-4 0.6 -1.6 0.3-3.3 0.8-4.9 1.4 -2.7 1.1-5.2 2.7-7.3 4.7 -5.6 4.7-8.5 11.8-7.7 19.1 0.2 2 0.5 4.1 1.1 6.1l7.1-2.2c-0.4-1.4-0.7-2.8-0.8-4.3 -0.7-4.9 1.4-9.9 5.3-13 1.5-1.3 3.2-2.5 5.2-3.3 1.2-0.4 2.4-0.8 3.6-1 1-0.2 2-0.4 3-0.4 2.9-0.2 50.3-0.2 120.9 0l8 0 -7.4-7.5ZM322.4 281.4c-10.7 0.4-21.4 0.6-32.1 1.3 -5.6 0.4-11.2 0.4-16.8 1.4 -7.2 1.4-14.2 0-21.2-1.8 -4.2-1-6 5.5-1.8 6.5 7.1 1.8 14.9 3.6 22.3 2.3 5.7-0.9 11.5-1.4 17.3-1.7 10.7-0.7 21.5-0.9 32.3-1.3 4.4-0.1 4.4-6.9 0.1-6.7Z"/><path d="M254 283.5c-3.5-4-7.7-7.1-11.7-10.7 -4.3-3.8-8.3-7.9-12.4-11.9 -7.9-8.1-15.7-16.3-23.2-24.7 -2.9-3.2-7.7 1.6-4.8 4.8 11.6 12.7 23.2 25.6 36 37.1 4.7 4.2 9.5 8.2 13.7 13.1 3.5 4 8.3 9.2 7.2 15 -1 5.6-8.5 6.3-13 5.6l-0.1 0c-0.7-1.1-1.6-2.1-2.5-3.1 -5.3-5.5-8-8.2-12.6-12.3 -3.7-3.4-7.3-6.9-10.7-10.7l-5 4.5c3.5 4 7.3 7.8 11.3 11.3 4.4 3.8 7 6.5 12.2 11.9 1.4 1.3 2.5 2.9 3.1 4.8l0 0.2c0.5 1.4 0.6 3 0.1 4.5 -0.5 1.1-1.3 2.1-2.5 2.7 -1.3 0.8-2.4 0.8-4.4 0.8 -1.3 0-2.6-0.1-3.9-0.5 -1.3-3.4-3.8-5.6-5.2-6.9l-0.1-0.1c-7-6.1-10.1-9.4-16.6-16.6l-1.1-1.2 -1-1 -4.5 5 0.5 0.5 1.1 1.1c6.7 7.4 9.9 10.8 17.2 17.2l0.1 0.1c1.4 1.3 3.2 2.8 3.7 5.2 0.5 2.6-0.4 5.3-2.2 7.1 -0.8 1-1.9 1.7-3.2 2 -3.1 0.8-5.7-1.3-6-1.6l-0.2 0.2c-0.5-1-1.1-1.8-1.9-2.6 -5.2-6.1-11-12-16.5-18 -2.9-3.2-7.7 1.6-4.8 4.8 4.2 4.7 8.5 9.3 12.7 13.9 2.9 3.2 6.6 6.2 5.7 11 -1 5.3-6.3 5.3-9.8 2.6 -4.6-3.5-9-7.5-13.5-11.2 -3.3-2.8-8.1 2-4.8 4.8 3.2 2.6 6.5 5.3 9.6 8 2.5 2 4.9 4.6 7.8 5.9 5.7 2.6 12.8 1.1 16-4.6 1.1-1.9 1.7-4.1 1.7-6.4 0.9 0.2 1.8 0.3 2.7 0.3 1 0 2-0.1 3-0.4 2.5-0.7 4.8-2 6.5-4 2.1-2.2 3.5-5 4-8.1 1.1 0.2 2.2 0.2 3.2 0.2l0.1 0c2.2 0 4.9 0 7.8-1.7 2.4-1.3 4.3-3.4 5.3-6 0.8-2.1 1.1-4.4 0.7-6.7 7.1 0.1 14.9-2.5 17-10 2.8-9.8-5.1-18.2-11-24.8ZM52.5 220.2c19.7 1.1 38.7-3.3 57.4-9.2 14.7-4.6 31.3-9.8 46.7-5.8 9.8 2.6 18.5 8.2 25.1 15.8 2.9 3.3 7.7-1.5 4.8-4.8 -12.1-13.9-29.6-20.6-47.9-18.9 -16.8 1.6-32.8 8.5-49 12.5 -12.1 3.1-24.5 4.4-36.9 3.8 -4.4-0.2-4.4 6.5-0.1 6.8ZM53.6 289c19.5-2.8 40.4 2.9 51.7 20 2.4 3.6 8.3 0.2 5.9-3.4 -13-19.9-36.6-26.3-59.3-23 -4.3 0.6-2.5 7.1 1.8 6.5Z" fill="#fff"/><path d="M323 214.2c-10.8 0.3-23 0.7-33.4-2.8 -3-1-5.4-2.8-8.1-4.4 -5.2-3.1-10.5-5.9-16.1-8.2 -10.9-4.6-22.3-5.2-34.1-4.6 -10.6 0.7-20.8 3.3-29.8 9.1 -9.8 6.4-19.5 13.2-28.2 21.1 -6.4 5.7-12.7 11.9-16 20 -4 9.6-4.1 20.4-1.3 30.3 2.4 8 10.5 14 19.1 11.6 12.6-3.7 9.4-18.1 9.8-28 0.3-5.8 1.7-7.9 6.5-11.2 4.3-2.9 8.6-6.1 13.7-7 4.3-0.7 2.5-7.2-1.8-6.5 -3.6 0.5-6.6 2.1-9.7 4 -4 2.5-8.4 5-11.6 8.4 -5.6 6.1-3.7 15.2-3.6 22.7 0 4.5-0.6 10.4-5.9 11.4 -3.4 0.6-6.4-1.2-8.4-3.8 -2.9-4-3.3-10.8-3.3-15.6 0-4.3 0.8-8.5 2.3-12.5 2.9-7.6 8.8-13.1 14.6-18.4 8.2-7.4 17.2-13.7 26.4-19.8 8.4-5.5 17.7-8.1 27.7-8.7 11.3-0.7 22.1-0.1 32.5 4.7 5.3 2.4 10.5 5.2 15.5 8.3 2.6 1.8 5.5 3.2 8.5 4.2 10.9 3.5 23.6 3.2 34.8 2.9 4.4-0.1 4.4-6.9 0-6.7ZM189.5 327.3c-0.1-1.4-0.4-3.7-2.4-5.5 -1.5-1.3-3.5-2-5.5-2 -1.3-0.1-2.5 0.2-3.7 0.5 0.8-1.4 1.4-3 1.7-4.6 0.8-3.1 0.4-6.5-1-9.4 -1.1-2.2-2.9-4.1-5.2-5.2 -2.5-1-5.2-1.2-7.8-0.4 -0.7 0.2-1.3 0.4-2 0.6 -0.1-1.3-0.4-2.6-1-3.8 -1-1.9-2.5-3.5-4.3-4.6l-0.2-0.1c-3.8-1.9-7.6-2.4-11.1-1.5 -1.6 0.5-3.1 1.2-4.5 2.3 0-0.3 0-0.5 0-0.8 -0.1-2.3-1-4.5-2.4-6.3l-0.1-0.1c-1-1.2-2.3-2.2-3.7-2.7 -1.9-0.7-4-0.8-6-0.3 -4.9 1.2-9.7 6.2-15.4 12.7 -2.8 3.2-5.7 6.4-8.2 11.2 -1.3 2.4-2.1 5.2-2 8 0.1 1.5 0.2 5.4 3.4 7.9 1.6 1.3 3.5 1.9 5.6 1.9 0.7 0 1.4-0.1 2-0.1 0.3-0.1 0.6-0.1 0.8-0.2 -0.1 0.8-0.3 1.7-0.3 2.6 -0.1 2.6 0.7 5.2 2.1 7.3 1.4 2 3.3 3.5 5.6 4.4 1.4 0.5 2.8 0.8 4.2 0.8 0.8 0 1.6-0.1 2.4-0.2 0.7-0.1 1.4-0.3 2-0.5 -0.4 2.1-0.1 4.2 0.6 6.2 1.2 3 3.5 5.3 6.5 6.5 1.1 0.4 2.2 0.6 3.3 0.6 1.9-0.1 3.8-0.4 5.6-1.2 1.5-0.5 2.9-1.2 4.3-2 -0.2 1.5-0.1 3 0.2 4.4 0.5 2.4 1.9 4.6 3.9 6 1.4 0.9 3.2 1.4 4.9 1.4 0.6 0 1.1-0.1 1.4-0.1 2-0.1 3.8-0.9 6.5-2.6 2.2-1.3 4.2-2.8 6.2-4.4l0.2-0.2c3.4-3.4 6.5-7.2 9.3-11.1 1.6-2.1 2.8-4.4 3.6-6.9 0.8-2.4 1.1-4.9 0.9-7.5Zm-75.4-9.7c-0.7 0.2-1.6 0.1-2.2-0.3 -0.7-0.6-0.8-2-0.8-2.8 0-1.6 0.5-3.1 1.3-4.6 2.1-4 4.6-6.8 7.3-9.8 3.5-3.9 8.8-9.8 12-10.6 0.4-0.1 0.8-0.1 1.1-0.1 0.3 0 0.6 0.1 0.8 0.2 0.4 0.2 0.8 0.5 1 0.8 0.6 0.8 0.9 1.7 1.1 2.6 -0.1 1.3-0.4 2.5-1 3.5 -0.8 1.7-1.9 3.3-3.3 4.7 -2.3 2.5-4.8 5-7.1 7.3 -2.3 2.3-4.9 5-7.3 7.4l-0.1 0.1c-0.7 0.9-1.6 1.5-2.6 1.8Zm14.9 14.6c-1 0.2-2.2 0.2-3.1-0.2 -1-0.4-1.8-1-2.4-1.9 -0.7-1-1-2.2-0.9-3.4 0-2.2 1.1-3.9 2.3-5.8 2.6-4.2 5.7-8.1 9.1-11.7 0.5-0.5 4.5-3.9 10.4-8.9 2.2-1.9 3-2.5 4.3-2.8 0.6-0.1 1.2-0.2 1.7-0.2 1.6 0.1 3.1 0.5 4.5 1.1 0.7 0.5 1.3 1.1 1.6 1.8 0.3 0.7 0.5 1.4 0.4 2.2 -0.1 2-1.3 3.8-2.4 5l-0.4 0.5c-8.6 7.8-12.3 11.9-14.5 14.6 -1.5 1.9-2.9 3.8-4 5.9 -0.9 1-1.9 1.9-3 2.6 -1 0.8-2.2 1.2-3.4 1.4Zm16.8 11.8c-2.1 0.8-3.2 1.1-4.4 0.7 -1.1-0.5-2-1.4-2.5-2.5 -0.4-1-0.3-1.8-0.1-3.7 0.3-2 0.9-3.9 1.8-5.7 0.1-0.2 0.2-0.4 0.3-0.6 0.1-0.1 0.3-0.4 0.5-0.5 3.5-4.4 7.4-8.6 11.3-12.7 2-2.1 4.1-4.2 6.1-6.4l0.4-0.4c3.4-3 5.3-4.4 7.9-5 0.6-0.1 1.3-0.2 2-0.2 0.5 0 1.1 0.1 1.5 0.3 0.9 0.5 1.7 1.3 2 2.3 0.8 1.6 0.9 3.4 0.5 5 -0.2 1.1-0.7 2-1.8 4.1 -1.6 2.9-3.4 5.6-5.5 8.2 -1.2 1.5-2.5 2.9-3.7 4.3 -1 1-1.4 1.4-2.4 2.3 -0.7 0.6-1.4 1.3-2.6 2.4 -1.9 1.8-3 2.9-3.7 3.5 -0.6 0.7-1.3 1.3-1.9 1.8 -1.5 1.4-3.4 2.4-5.4 3.2Zm36.5-11.3c-0.6 1.8-1.5 3.5-2.7 5.1 -2.6 3.6-5.5 7.1-8.5 10.2 -1.6 1.4-3.4 2.6-5.2 3.8 -2.5 1.6-3.3 1.7-3.7 1.7 -0.7 0.2-1.3 0.1-1.9-0.2 -0.6-0.5-1-1.2-1-2 -0.2-0.9-0.1-1.8 0-2.7 0.3-1.4 0.8-2.4 2.6-5 2.4-3.5 3.7-5.5 4.5-6.4 3.5-3.8 7.5-7 12-9.6 0.8-0.5 1.8-0.8 2.9-0.8l0.2 0c0.5 0 0.8 0.1 1.2 0.2 0.2 0.5 0.3 1 0.3 1.5 0.2 1.4-0.1 3-0.5 4.4Z"/></svg>