<?xml version="1.0" encoding="utf-8"?>
<!-- Generator: Adobe Illustrator 21.0.0, SVG Export Plug-In . SVG Version: 6.00 Build 0)  -->
<svg version="1.1" id="Layer_1" xmlns="http://www.w3.org/2000/svg" xmlns:xlink="http://www.w3.org/1999/xlink" x="0px" y="0px"
	 viewBox="0 0 720 810" style="enable-background:new 0 0 720 810;" xml:space="preserve">
<style type="text/css">
	.st0{fill:#EB2227;}
	.st1{fill:#FFFFFF;}
</style>
<title>Artboard 1</title>
<g id="background">
	<rect class="st0" width="720" height="810"/>
</g>
<g id="fingers">
	<path class="st1" d="M474.7,274.5c-1.2-6.3-3.7-12.3-7.5-17.5c-2.2-3-4.8-5.8-7.7-8.1c1.9-5,2.7-10.4,2.2-15.8
		c-0.3-5.5-1.7-10.8-4.1-15.7c-2.5-5.1-6-9.7-10.3-13.4c-5.5-4.9-11.9-8.6-18.9-10.9c-3.4-1.1-6.9-1.9-10.5-2.3
		c-1.2-2.9-2.8-5.7-4.7-8.2c-6.9-9-15.8-12.3-21.7-14.5c-16.5-5.8-34.6-4.8-50.5,2.5c-6,2.9-11.5,6.8-16.3,11.5
		c-1.5-1.4-3.3-2.6-5.2-3.5c-8-3.7-15.4-1.9-19-0.9c-7.3,1.9-12,5.7-15.1,8.2c-5.1,4.2-9.3,9.4-12.4,15.3c-6,10.8-8.4,23.2-7.1,35.4
		c-2.4,1.5-4.6,3.2-6.7,5.1c-3.7,3.3-6.9,7.1-9.5,11.3c-3.2,5.4-5.4,11.3-6.6,17.5c-1.1,6-1.2,12.1-0.4,18.1
		c0.9,6.3,2.7,12.4,5.3,18.2c1.8,4.1,3.8,8.1,6.2,11.8l7.6-4.8c-2.1-3.4-4-6.9-5.5-10.5c-2.3-5-3.9-10.3-4.7-15.8
		c-0.7-5.1-0.6-10.2,0.3-15.2c0.9-5.1,2.8-10,5.4-14.5c2.2-3.5,4.8-6.6,7.8-9.3c5.9-5.2,12.9-8.8,20.5-10.7c0.6-0.2,1.2-0.3,1.8-0.5
		c-2.2,4.4-3.9,9-5.1,13.8c-2.1,8.8-2.3,17.9-0.7,26.8c1.4,8.6,4,15,7.6,23.7c2.4,5.8,5.2,11.6,8.2,17.1l7.9-4.3
		c-2.9-5.3-5.5-10.7-7.8-16.2c-3.5-8.5-5.8-14-7-21.6c-3.4-18,2.4-36.6,15.5-49.5c2.3-2.4,4.8-4.6,7.4-6.5c0,0.8-0.1,1.6-0.1,2.5
		s-0.1,2.1-0.1,3.2c-0.4,9,0.4,18,2.4,26.7c1.9,8,4.8,15.7,8.7,22.9c7.1,13.2,17.8,24,30.8,31.3c7.6,4.5,15.7,8.2,24.1,10.9
		c8.5,3,17.2,5.2,26,6.7l1.5-8.9c-8.3-1.4-16.5-3.5-24.5-6.3c-7.8-2.5-15.3-5.9-22.4-10.1c-5.7-3.2-11-7.2-15.6-11.8
		c-4.7-4.8-8.8-10.3-12-16.2c-0.4-0.7-0.9-1.6-1.4-2.7c4.1,1.6,8.4,2.9,12.8,3.8c4.7,1.1,9.4,1.7,14.2,1.8c2.1,0,4.2-0.1,6.3-0.4
		c8.1-1.2,15.9-4.3,22.6-9.1c6.8-4.6,10.8-9.3,14.3-13.5c4.3-5.1,7.9-10.6,10.9-16.5c2.6-4.9,4.5-10,5.9-15.3
		c3.2,2.6,6.1,5.5,8.6,8.7c3.8,5,6.7,10.6,8.6,16.6c2.7,8.3,2.7,15,2.8,22.6c0.1,5.1-0.3,10.1-1.2,15.1c-0.9,4.2-1.6,7.8-3.9,12.1
		c-2.4,4.2-5.5,8-9.3,11.1c-2.8,2.5-5.9,4.6-9.2,6.4l4.2,7.9c3.9-2.1,7.6-4.6,10.9-7.5c4.6-3.8,8.5-8.4,11.3-13.6
		c2.9-5.5,3.9-10.1,4.8-14.6c1-5.6,1.5-11.2,1.4-16.9c0-1.1,0-2.2,0-3.3l0.3-0.2c3-1.9,5.6-4.3,7.8-7c1.9,1.6,3.6,3.5,5.1,5.5
		c3,4.1,5,8.9,5.9,13.9c1.1,5,0.9,10.2-0.5,15.2c-1.4,4.5-3.9,8.5-7.2,11.8c-1.9,2-4.2,3.6-6.7,4.8c-0.7,0.3-1.5,0.6-2.2,0.8
		l2.7,8.6c1.1-0.3,2.2-0.7,3.2-1.2c3.5-1.6,6.7-3.8,9.3-6.6c4.3-4.4,7.6-9.7,9.4-15.6C475.8,287.7,476.1,281,474.7,274.5z
		 M344.9,178.8c13.7-6.3,29.3-7.1,43.5-2.2c5.2,1.9,12.4,4.5,17.6,11.5c0.5,0.7,1,1.4,1.5,2.1h-0.7c-11-0.4-16.5-0.6-21.2,1.8
		c-3.2,1.7-5.9,4.1-8,7c-0.4-0.9-0.8-1.8-1.2-2.6c-2.5-5-4.3-6.8-5.5-7.8c-2.5-2.1-5.6-3.5-8.8-4c-0.9-0.1-3.6-0.6-9.1,0.7
		c-3.8,0.9-8.2,2-12.7,5.2c-2.1,1.5-3.9,3.2-5.5,5.1c-0.2-0.4-0.4-0.7-0.6-1.1c-0.8-1.6-1.7-3.1-2.8-4.5l-0.4-0.6l-0.3-0.4
		C334.7,184.9,339.6,181.4,344.9,178.8z M329.5,203.9c4.2,5.4,9.8,9.6,16.2,12c9,3.4,19,2.8,27.6-1.5c3-1.5,5.8-3.5,8.1-6
		c-0.9,2.4-1.9,4.8-3.2,7.1c-2.6,4.5-5.9,8.5-9.8,11.8l-0.2,0.2c-4.5,3.9-7.8,6.8-12.7,7.5c-4.4,0.7-8-0.5-11.2-1.6
		c-6.4-2.1-10.8-5.8-15.5-9.7c-2.1-1.8-4.1-3.6-6-5.6c0-2.6,0.5-5.2,1.5-7.6C325.3,207.9,327.2,205.6,329.5,203.9z M340.6,202.6
		c1.3-1.8,2.9-3.4,4.7-4.7c3.1-2.2,6.1-3,9.6-3.8c1.8-0.5,3.7-0.7,5.5-0.6c1.7,0.3,3.2,1,4.5,2c0.3,0.2,1.4,1.3,3.2,4.9
		c0.9,1.7,1.6,3.5,2.3,5.3c-0.4,0.2-0.8,0.5-1.3,0.7c-6.3,3.2-13.8,3.7-20.4,1.1C345.8,206.3,343.1,204.7,340.6,202.6L340.6,202.6z
		 M299.7,220.6c-2,2-3.8,4.2-5.5,6.4c-3.6,0.4-7.2,1-10.7,2c-3,0.8-5.9,1.8-8.8,3c-0.4-9.2,1.8-18.4,6.2-26.4
		c2.5-4.9,6-9.2,10.3-12.7c2.8-2.3,6.2-5.1,11.6-6.4c3-0.8,7.9-2,13,0.4c3.1,1.4,5.1,4.2,7.8,8l0.4,0.6c0.3,0.4,0.5,0.7,0.7,1
		c-3.9,2.6-6.9,6.2-8.7,10.5c-0.2,0.5-0.4,1-0.6,1.5C309.6,211.6,304.3,215.8,299.7,220.6L299.7,220.6z M403.9,230.7
		c-2.7,5.3-6,10.3-9.8,14.8c-3.3,3.9-6.7,8-12.4,11.8c-5.6,4-12,6.6-18.8,7.6c-6.9,0.9-12.3-0.2-17.5-1.3
		c-6.8-1.4-13.3-3.8-19.5-7.1c-0.6-1.8-1.1-3.8-1.6-5.8c-1.5-6.8-2.2-13.7-2.2-20.7c0.2,0.2,0.5,0.4,0.7,0.6
		c4.9,4.1,10.5,8.7,18.5,11.3c3.7,1.4,7.5,2.1,11.4,2.2c1.3,0,2.6-0.1,3.9-0.3c7.6-1.1,12.3-5.2,17.3-9.6l0.2-0.2
		c4.7-4,8.6-8.8,11.7-14.1c3.1-5.7,5.3-11.9,6.5-18.3l0,0c2.4,0.6,4.8,1.5,7.1,2.6c2.3,1,4.4,2.4,6.2,4.3c1.8,2,3.1,4.4,3.7,7.1
		c-0.1,0.4-0.1,0.8-0.2,1.1C408,221.5,406.3,226.2,403.9,230.7L403.9,230.7z M446.1,253.2c-0.5-3.8-1.3-7.5-2.5-11.2
		c-2.2-7-5.6-13.5-10-19.4c-4.9-6.3-10.9-11.6-17.8-15.6c-0.9-1.7-2-3.2-3.3-4.6c-1.1-1.2-2.2-2.2-3.5-3.1
		c6.9,0.2,11.2,0.6,16.6,2.4c5.8,1.9,11.2,5,15.7,9.1c3.5,3,6.3,6.6,8.3,10.6c1.9,3.8,3,8,3.2,12.3c0.5,4.6-0.3,9.2-2.2,13.4
		C449.4,249.3,447.9,251.4,446.1,253.2L446.1,253.2z"/>
	<polygon points="338.8,415.2 343.9,415.2 342.9,439 337.4,437.2 	"/>
	<polygon points="348.4,431.7 358.9,408.7 362.3,407.9 365.3,427.1 361.6,439.9 355.1,452.5 346.7,450.5 	"/>
	<polygon points="377.6,413.5 383.6,417.4 383.6,433.4 377.6,434.4 	"/>
	<polygon points="368,433.4 374.7,433.4 374.7,438.2 368,442.2 	"/>
	<path class="st1" d="M300.6,397.7c-2.9-2.6-6.2-4.8-9.8-6.3c-2.1-0.8-4.3-1.5-6.5-1.9c-1.7-0.4-3.5-0.6-5.3-0.8
		c-6-0.5-125.4-0.1-162,0h-0.7l-10,10H117c107-0.3,158.1-0.2,161.2,0c1.3,0.1,2.7,0.3,4,0.6c1.6,0.3,3.3,0.8,4.8,1.4
		c2.5,1.1,4.8,2.6,6.9,4.4c5.2,4.1,7.9,10.7,7,17.3c-0.2,2.6-0.7,5.1-1.7,7.5l9.3,3.6c1.3-3.4,2.1-6.9,2.4-10.5
		C312,413.3,308.1,403.8,300.6,397.7L300.6,397.7z"/>
	<path class="st1" d="M327.2,399.8c-2.4-5.4-5.4-8.7-8.8-12.5l-0.1-0.1c-3.6-4.2-7.9-7.9-12.5-10.9c-3.6-2.3-7.5-4.1-11.5-5.5
		c-3.2-1.1-6.5-1.9-9.9-2.2c-1.8-0.2-3.6-0.2-5.4-0.1c-4.5,0.2-51.9,0.2-141,0h-0.1h-1.4l-10,10h11.3c90.6,0.2,136.9,0.2,141.7,0
		c1.3-0.1,2.6,0,3.9,0.1c2.6,0.3,5.1,0.9,7.6,1.8c3.3,1.1,6.5,2.6,9.5,4.5c3.9,2.5,7.5,5.6,10.5,9.1l0.1,0.1
		c3.1,3.4,5.3,5.9,7.1,9.9c1.8,4.2,2.7,8.7,2.8,13.2c0.1,2.6,0,5.3-0.2,10.7c-0.1,2.5-0.3,5.1-0.5,7.6l10,0.8
		c0.2-2.6,0.4-5.3,0.5-7.9c0.3-3.9,0.4-7.8,0.2-11.8C330.8,410.8,329.6,405.1,327.2,399.8z"/>
	<path class="st1" d="M342,387.6c-3.9-7.2-9-13.7-15-19.3c-4.9-4.4-10.3-8.1-16.2-11.1c-5.3-3-11-5.2-16.9-6.7
		c-3.8-0.9-7.6-1.5-11.5-1.6c-1.5-0.1-2.9-0.1-4.4,0c-10.4,0.4-94.7,0-95.6,0h-20.9h-3.7h-1.8l-10,10h12h3.5h20.8
		c3.5,0,85.4,0.4,96,0c1.2,0,2.4,0,3.6,0c3.2,0.2,6.4,0.6,9.5,1.4c5.1,1.3,10,3.2,14.6,5.8c5.1,2.6,9.9,5.9,14.1,9.7
		c9.9,9.1,16.7,21.1,19.5,34.3c1.4,6.9,1.2,12.3,0.9,19.2c-0.2,5.6-0.8,11.3-1.8,16.8l9.9,1.7c1-6,1.7-12.1,1.9-18.2
		c0.3-7.2,0.5-13.4-1.1-21.5C348,400.9,345.5,394,342,387.6z"/>
	<path class="st1" d="M362.7,382.5c-4-8.6-9.2-16.6-15.5-23.7c-3-3.4-6.3-6.6-9.8-9.5c-5-4.1-10.4-7.7-16.2-10.6
		c-9.6-4.6-19.8-7.8-30.3-9.5c-1.9-0.3-3.8-0.5-5.7-0.6s-3.3-0.1-3.8,0c-2.2,0-4.5,0.1-7.2,0.1h-4.3c-5.6,0-9,0-13.2-0.1
		c-8.3-0.1-34.7-0.1-78.6,0h-1.6l-10,10h11c44.2-0.1,70.8-0.1,79.1,0c4.2,0.1,7.9,0.1,13.3,0.1h4.3c2.8,0,5.2,0,7.5-0.1
		c0.4,0,1.5,0,3,0s2.8,0.2,4.8,0.5c3.9,0.6,7.8,1.5,11.5,2.6c5.4,1.5,10.6,3.4,15.6,5.9c5.1,2.6,9.9,5.8,14.3,9.4
		c3.1,2.6,6,5.4,8.7,8.5c14.3,15.9,22.1,36.5,22,57.9c-0.1,4.1-0.4,8.3-0.9,12.4l-0.1,1.1c-0.4,3.5-0.9,6.9-1.4,10.3l9.9,1.6
		c0.6-3.6,1-7.2,1.5-10.8l0.1-1.1c0.6-4.5,0.9-8.9,1-13.4c0-6.5-0.6-12.9-1.9-19.2C368.3,396.7,365.9,389.4,362.7,382.5z"/>
	<path class="st1" d="M390.6,417c-0.4-7.9-1.6-15.8-3.5-23.5c-1.7-7-4.3-17.6-11.2-29.4c-5.1-8.6-10.3-14.2-15-19.2
		c-5.5-6.2-11.7-11.7-18.5-16.4c-5.1-3.4-9.4-5.5-17.9-9.7c-4.3-2.2-8.7-4.1-13.3-5.6c-3.7-1.2-7.5-2.2-11.4-2.8
		c-3.5-0.6-7.1-1-10.7-1.1c-7.6-0.3-41.2-0.5-90.7-0.3h-2.5l-10,10h13c48.7-0.1,82.6,0.1,89.9,0.3c3.1,0.1,6.2,0.4,9.3,0.9
		c3.4,0.6,6.7,1.4,10,2.5c4.1,1.4,8.1,3.1,12,5.1c8.2,4,12.2,6,16.7,9c7.7,5.1,12.5,10.4,16.8,14.9c4.5,4.8,9.2,9.8,13.7,17.5
		c6.2,10.5,8.5,19.8,10.1,26.6c1.7,7.2,2.8,14.5,3.2,21.8c0.3,5,0.3,9.9,0.1,14.9c0,0.6-0.1,1.1-0.1,1.4l10,0.7
		c0-0.4,0.1-0.9,0.1-1.5C391,427.8,390.9,422.4,390.6,417z"/>
	<path d="M420.5,384.5c3-1.9,6.1-3.4,9.5-4.5c2.4-0.9,5-1.5,7.6-1.8c1.3-0.1,2.7-0.1,4-0.1c4.7,0.2,51,0.2,141.5,0h11.4l-10-10h-1.4
		l0,0c-89.2,0.2-136.7,0.2-141.2,0c-1.8-0.1-3.5-0.1-5.3,0.1c-3.4,0.4-6.7,1.1-9.9,2.2c-4,1.4-7.9,3.2-11.5,5.5
		c-4.7,3-8.9,6.7-12.5,10.9l-0.1,0.1c-3.4,3.8-6.4,7.1-8.8,12.5c-2.3,5.3-3.5,11-3.7,16.8c-0.1,3.6,0,7.2,0.2,10.8v1
		c0.1,1.9,0.2,3.8,0.3,5.7l10-0.7c-0.1-1.9-0.2-3.6-0.3-5.5v-1c-0.2-4-0.3-7.1-0.2-9.7c0.1-4.5,1-9,2.8-13.2c1.8-4,4-6.4,7.1-9.9
		l0.1-0.1C413.1,390.1,416.6,387,420.5,384.5z"/>
	<path d="M400.8,375.4c4.3-3.8,9-7.1,14.1-9.7c4.6-2.6,9.5-4.5,14.6-5.8c3.1-0.8,6.3-1.2,9.5-1.4c1.2,0,2.4,0,3.6,0
		c10.6,0.4,92.5,0,95.9,0h20.8h3.5h12l-10-10h-1.8h-3.7h-20.9c-0.8,0-85.1,0.4-95.6,0c-1.4-0.1-2.9,0-4.4,0
		c-3.9,0.2-7.7,0.7-11.5,1.6c-5.9,1.5-11.6,3.7-16.9,6.7c-5.9,3-11.3,6.7-16.2,11.1c-11.5,10.6-19.3,24.5-22.5,39.7
		c-1.5,7.5-1.3,13.7-1.1,21v0.5c0.1,3.7,0.4,7.5,0.7,11.2l10-1c-0.4-3.4-0.6-7-0.7-10.4v-0.5c-0.2-6.9-0.4-12.4,0.9-18.7
		C384.1,396.6,390.9,384.6,400.8,375.4L400.8,375.4z"/>
	<path d="M367.4,386.4c3.6-7.7,8.3-14.9,14-21.3c2.7-3,5.6-5.9,8.7-8.5c4.4-3.7,9.2-6.8,14.3-9.4c5-2.5,10.2-4.5,15.6-5.9
		c3.8-1.1,7.6-2,11.5-2.6c2-0.3,3.4-0.5,4.8-0.5s2.6,0,3,0c2.3,0.1,4.6,0.1,7.5,0.1h4.5c5.3,0,8.9,0,13.1-0.1
		c8.3-0.1,34.9-0.1,79.1,0h11l-10-10h-1.6c-43.9-0.1-70.3-0.1-78.6,0c-4.2,0.1-7.7,0.1-13,0.1h-4.5c-2.8,0-5,0-7.2-0.1
		c-0.5,0-1.9,0-3.7,0s-3.8,0.4-5.7,0.6c-10.5,1.7-20.7,4.9-30.3,9.5c-5.8,2.9-11.2,6.5-16.2,10.6c-3.5,2.9-6.8,6.1-9.8,9.5
		c-15.9,17.7-24.6,40.8-24.5,64.6c0.1,4.5,0.4,8.9,1,13.4l0.2,2.2c0.3,3,0.7,6.1,1.4,9.9c0.3,1.7,0.7,3.4,1.1,5.1l9.7-2.2
		c-0.4-1.5-0.7-3.1-1-4.7c-0.6-3.4-1-6.3-1.2-9.1l-0.2-2.2c-0.5-4.1-0.8-8.2-0.9-12.3c0-5.8,0.6-11.6,1.7-17.2
		C362.4,399.1,364.5,392.6,367.4,386.4z"/>
	<path d="M343.6,395.5c1.7-6.8,3.9-16.2,10.1-26.6c4.5-7.6,9.2-12.6,13.7-17.5c4.3-4.6,9.1-9.8,16.8-14.9c4.5-3,8.6-5,16.7-9
		c3.9-2,7.9-3.7,12-5.1c3.3-1.1,6.6-1.9,10-2.5c3.1-0.5,6.2-0.8,9.3-0.9c7.3-0.2,41.2-0.5,89.9-0.3h13l-10-10h-2.6
		c-49.5-0.1-83.1,0.1-90.6,0.3c-3.6,0.1-7.1,0.5-10.7,1.1c-3.9,0.7-7.7,1.6-11.4,2.8c-4.6,1.5-9,3.4-13.3,5.6
		c-8.6,4.2-12.9,6.3-17.9,9.7c-6.8,4.7-13.1,10.2-18.5,16.4c-4.6,5-9.9,10.6-15,19.2c-6.9,11.8-9.5,22.4-11.2,29.4
		c-1.9,7.7-3,15.6-3.5,23.5c-0.3,5.4-0.4,10.7-0.1,16.1c0,0.2,0.1,2,0.3,4.3s0.3,4.2,0.4,5.5l10-0.8c-0.1-1.3-0.3-3.1-0.4-5.4
		s-0.3-3.9-0.3-4.1c-0.2-5-0.2-10,0.1-14.9C340.8,410,341.9,402.7,343.6,395.5z"/>
	<path d="M604.7,388.4H604c-36.6-0.1-156-0.5-162,0c-1.8,0.2-3.5,0.4-5.3,0.8c-2.2,0.4-4.4,1.1-6.5,1.9c-3.6,1.5-6.9,3.6-9.8,6.3
		c-7.5,6.2-11.4,15.7-10.3,25.4c0.2,2.7,0.7,5.5,1.5,8.1l9.5-3c-0.6-1.9-0.9-3.8-1.1-5.8c-0.9-6.6,1.8-13.2,7-17.3
		c2-1.8,4.3-3.3,6.9-4.4c1.6-0.6,3.2-1.1,4.8-1.4c1.3-0.3,2.7-0.5,4-0.6c3.8-0.3,67.1-0.3,161.2,0h10.7L604.7,388.4z"/>
	<path d="M536.2,539.5c-14.3,0.5-28.6,0.8-42.8,1.7c-7.5,0.5-15,0.5-22.4,1.9c-9.6,1.8-18.9,0-28.3-2.4c-5.6-1.4-8,7.3-2.4,8.7
		c9.5,2.4,19.9,4.8,29.7,3.1c7.6-1.2,15.3-1.9,23-2.3c14.3-1,28.7-1.2,43.1-1.7C541.9,548.3,541.9,539.3,536.2,539.5L536.2,539.5z"
		/>
	<path class="st1" d="M444.9,542.4c-4.7-5.3-10.3-9.5-15.6-14.3c-5.7-5.1-11.1-10.5-16.5-15.9c-10.6-10.8-20.9-21.8-31-33
		c-3.9-4.3-10.3,2.1-6.4,6.4c15.4,16.9,30.9,34.1,48,49.4c6.3,5.6,12.6,10.9,18.2,17.4c4.6,5.3,11,12.2,9.6,20
		c-1.4,7.5-11.4,8.4-17.4,7.4h-0.2c-1-1.5-2.2-2.8-3.4-4.1c-7.1-7.3-10.7-11-16.8-16.4c-5-4.5-9.8-9.2-14.3-14.3l-6.7,6
		c4.7,5.3,9.7,10.4,15.1,15.1c5.8,5.1,9.3,8.7,16.2,15.9c1.9,1.7,3.3,3.9,4.1,6.4v0.2c0.7,1.9,0.8,4,0.1,6c-0.7,1.5-1.8,2.8-3.3,3.6
		c-1.7,1-3.2,1-5.9,1l0,0c-1.7,0-3.5-0.2-5.2-0.7c-1.8-4.6-5.1-7.5-7-9.2l-0.1-0.1c-9.3-8.1-13.5-12.6-22.1-22.1l-1.5-1.6l-1.4-1.3
		l-6,6.7l0.7,0.7l1.4,1.5c8.9,9.8,13.2,14.4,22.9,22.9l0.1,0.1c1.9,1.7,4.3,3.7,4.9,6.9c0.6,3.4-0.5,7-2.9,9.5
		c-1.1,1.3-2.6,2.3-4.3,2.7c-4.1,1-7.6-1.8-8-2.1l-0.3,0.3c-0.7-1.3-1.5-2.4-2.5-3.5c-7-8.2-14.7-16-22-24
		c-3.9-4.3-10.3,2.1-6.4,6.4c5.6,6.2,11.3,12.4,16.9,18.5c3.9,4.3,8.8,8.2,7.6,14.7c-1.3,7-8.4,7-13.1,3.4c-6.2-4.7-12-10-18-15
		c-4.4-3.7-10.8,2.7-6.4,6.4c4.3,3.5,8.6,7.1,12.8,10.6c3.3,2.7,6.5,6.1,10.4,7.8c7.6,3.4,17.1,1.4,21.3-6.2
		c1.4-2.6,2.2-5.5,2.2-8.5c1.2,0.3,2.4,0.4,3.6,0.4c1.3,0,2.7-0.2,4-0.5c3.3-0.9,6.4-2.7,8.7-5.3c2.8-3,4.6-6.7,5.3-10.8
		c1.4,0.2,2.9,0.3,4.3,0.3h0.1c2.9,0,6.5,0,10.4-2.3c3.2-1.8,5.7-4.6,7-8c1.1-2.8,1.4-5.9,0.9-8.9c9.5,0.1,19.8-3.3,22.6-13.4
		C463.3,562.4,452.8,551.2,444.9,542.4z"/>
	<path class="st1" d="M176.3,457.9c26.3,1.5,51.6-4.4,76.5-12.3c19.6-6.2,41.7-13.1,62.3-7.8c13,3.5,24.7,10.9,33.4,21.1
		c3.8,4.4,10.2-2,6.4-6.4c-16.2-18.6-39.5-27.5-63.9-25.2c-22.4,2.1-43.7,11.3-65.4,16.6c-16.1,4.1-32.7,5.8-49.2,5
		C170.5,448.6,170.5,457.6,176.3,457.9L176.3,457.9z"/>
	<path class="st1" d="M177.8,549.7c26-3.8,53.9,3.8,68.9,26.6c3.2,4.8,11,0.3,7.8-4.5c-17.4-26.5-48.8-35.1-79.1-30.7
		C169.7,541.9,172.1,550.5,177.8,549.7L177.8,549.7z"/>
	<path d="M536.9,449.9c-14.4,0.4-30.7,0.9-44.6-3.8c-4-1.3-7.2-3.7-10.8-5.9c-6.9-4.2-14-7.9-21.5-11c-14.6-6.2-29.8-7-45.5-6.1
		c-14.1,0.9-27.8,4.4-39.7,12.1c-13.1,8.5-26,17.6-37.6,28.1c-8.6,7.6-16.9,15.8-21.3,26.6c-5.3,12.8-5.5,27.2-1.7,40.4
		c3.2,10.7,14,18.7,25.4,15.4c16.8-4.9,12.5-24.2,13.1-37.4c0.4-7.8,2.3-10.6,8.7-14.9c5.7-3.9,11.4-8.2,18.3-9.3
		c5.7-0.9,3.3-9.6-2.4-8.7c-4.8,0.7-8.8,2.8-12.9,5.3c-5.3,3.3-11.2,6.6-15.5,11.2c-7.5,8.1-4.9,20.2-4.8,30.2
		c0,6-0.8,13.8-7.9,15.2c-4.5,0.8-8.6-1.6-11.2-5.1c-3.9-5.4-4.4-14.4-4.4-20.8c0-5.7,1-11.4,3.1-16.7c3.8-10.1,11.7-17.5,19.5-24.6
		c10.9-9.9,22.9-18.3,35.2-26.4c11.2-7.3,23.6-10.8,36.9-11.6c15-0.9,29.4-0.1,43.3,6.2c7.1,3.2,14,6.9,20.6,11.1
		c3.5,2.4,7.3,4.2,11.3,5.6c14.5,4.6,31.4,4.3,46.4,3.9C542.7,458.7,542.7,449.7,536.9,449.9L536.9,449.9z"/>
	<path d="M358.9,600.8c-0.2-1.9-0.6-5-3.2-7.4c-2-1.8-4.7-2.7-7.4-2.7c-1.7-0.1-3.3,0.2-4.9,0.7c1.1-1.9,1.9-4,2.3-6.1
		c1-4.2,0.5-8.7-1.4-12.6c-1.5-3-3.9-5.5-6.9-7c-3.3-1.4-7-1.6-10.4-0.6c-0.9,0.2-1.8,0.5-2.7,0.8c-0.2-1.8-0.6-3.5-1.4-5.1
		c-1.3-2.6-3.3-4.7-5.7-6.2l-0.3-0.2c-5.1-2.5-10.2-3.2-14.8-2c-2.2,0.6-4.2,1.6-6,3c0-0.4,0-0.7,0-1.1c-0.2-3.1-1.4-6-3.2-8.4
		l-0.1-0.2c-1.3-1.6-3.1-2.9-5-3.6c-2.6-1-5.4-1.1-8-0.4c-6.5,1.6-12.9,8.3-20.6,16.9c-3.8,4.2-7.6,8.5-11,14.9
		c-1.8,3.2-2.8,6.9-2.7,10.6c0.1,2,0.3,7.2,4.5,10.5c2.1,1.7,4.7,2.5,7.4,2.5c0.9,0,1.8-0.1,2.6-0.2c0.4-0.1,0.8-0.2,1.1-0.3
		c-0.2,1.1-0.4,2.3-0.4,3.5c-0.1,3.5,0.9,6.9,2.8,9.7c1.8,2.6,4.4,4.7,7.4,5.8c1.8,0.7,3.7,1,5.6,1c1.1,0,2.1-0.1,3.2-0.3
		c0.9-0.2,1.8-0.4,2.7-0.7c-0.5,2.8-0.2,5.6,0.8,8.2c1.6,4,4.7,7.1,8.7,8.6c1.4,0.5,2.9,0.8,4.4,0.8c2.5-0.1,5-0.6,7.4-1.6
		c2-0.7,3.9-1.6,5.7-2.7c-0.3,2-0.1,4,0.3,5.9c0.7,3.2,2.5,6.1,5.2,8c1.9,1.2,4.2,1.8,6.5,1.8c0.8,0,1.5-0.1,1.9-0.1
		c2.6-0.2,5-1.2,8.7-3.5c2.9-1.8,5.6-3.7,8.2-5.9l0.3-0.3c4.5-4.6,8.7-9.6,12.4-14.8c2.1-2.8,3.7-5.9,4.8-9.2
		C358.8,607.6,359.2,604.2,358.9,600.8z M258.4,587.9c-1,0.3-2.1,0.1-3-0.4c-1-0.8-1.1-2.7-1.1-3.8c0-2.1,0.6-4.2,1.7-6.1
		c2.8-5.4,6.1-9.1,9.7-13.1c4.7-5.2,11.7-13.1,16-14.1c0.5-0.1,1-0.2,1.5-0.2c0.4,0,0.8,0.1,1.1,0.2c0.5,0.2,1,0.6,1.3,1
		c0.8,1,1.2,2.2,1.4,3.5c-0.1,1.7-0.6,3.3-1.4,4.7c-1.1,2.3-2.6,4.4-4.4,6.2c-3.1,3.3-6.4,6.6-9.5,9.7s-6.5,6.6-9.7,9.9l-0.1,0.1
		C260.9,586.7,259.7,587.5,258.4,587.9z M278.2,607.4c-1.4,0.3-2.9,0.2-4.2-0.3c-1.3-0.5-2.4-1.4-3.2-2.5c-0.9-1.4-1.3-3-1.2-4.6
		c0-2.9,1.4-5.2,3-7.8c3.5-5.6,7.6-10.8,12.1-15.6c0.7-0.7,6-5.2,13.9-11.9c2.9-2.5,4-3.3,5.7-3.7c0.8-0.2,1.6-0.3,2.3-0.3
		c2.1,0.1,4.1,0.6,6,1.5c0.9,0.6,1.7,1.4,2.1,2.4c0.4,0.9,0.6,1.9,0.5,2.9c-0.1,2.6-1.8,5-3.2,6.6l-0.6,0.6
		c-11.5,10.4-16.4,15.9-19.3,19.5c-2,2.5-3.9,5.1-5.4,7.9c-1.2,1.3-2.5,2.5-4,3.4C281.4,606.5,279.8,607.1,278.2,607.4L278.2,607.4z
		 M300.6,623.1c-2.8,1-4.3,1.4-5.9,0.9c-1.5-0.7-2.7-1.9-3.3-3.4c-0.5-1.3-0.4-2.4-0.1-5c0.4-2.7,1.2-5.2,2.4-7.6
		c0.1-0.3,0.3-0.6,0.4-0.8s0.4-0.5,0.6-0.7c4.7-5.9,9.8-11.5,15.1-16.9c2.6-2.8,5.4-5.6,8.1-8.6l0.5-0.6c4.5-4,7-5.9,10.5-6.7
		c0.8-0.2,1.7-0.3,2.6-0.3c0.7,0,1.4,0.1,2,0.4c1.2,0.7,2.2,1.7,2.7,3c1,2.1,1.2,4.5,0.6,6.7c-0.3,1.4-0.9,2.6-2.4,5.5
		c-2.1,3.9-4.6,7.5-7.4,10.9c-1.6,2-3.3,3.9-5,5.7l0,0c-1.3,1.3-1.9,1.9-3.2,3c-0.9,0.8-1.9,1.7-3.5,3.2c-2.6,2.4-4,3.8-4.9,4.7
		c-0.8,0.9-1.7,1.7-2.6,2.4C305.8,620.7,303.3,622.1,300.6,623.1L300.6,623.1z M349.2,608c-0.8,2.4-2,4.7-3.6,6.8
		c-3.5,4.8-7.3,9.4-11.4,13.6c-2.2,1.8-4.5,3.5-6.9,5c-3.4,2.1-4.4,2.2-4.9,2.2c-0.9,0.2-1.8,0.1-2.6-0.3c-0.8-0.7-1.3-1.6-1.4-2.7
		c-0.3-1.2-0.2-2.4,0-3.6c0.4-1.9,1.1-3.2,3.5-6.7c3.2-4.7,4.9-7.3,6-8.6c4.6-5.1,10-9.4,16-12.8c1.1-0.7,2.4-1.1,3.8-1.1h0.2
		c0.6,0,1.1,0.1,1.6,0.3c0.3,0.6,0.4,1.3,0.4,2C350.1,604,349.8,606.1,349.2,608z"/>
</g>
</svg>
