<?xml version="1.0" encoding="UTF-8"?>
<svg width="18px" height="14px" viewBox="0 0 18 14" version="1.1" xmlns="http://www.w3.org/2000/svg" xmlns:xlink="http://www.w3.org/1999/xlink">
    <!-- Generator: Sketch 40.3 (33839) - http://www.bohemiancoding.com/sketch -->
    <title>Twitter</title>
    <desc>Created with Sketch.</desc>
    <defs>
        <polygon id="path-1" points="17.227 14 0 14 0 7.0001 0 0.0002 17.227 0.0002 17.227 14"></polygon>
    </defs>
    <g id="Page-1" stroke="none" stroke-width="1" fill="none" fill-rule="evenodd">
        <g id="Desktop---Sub-page" transform="translate(-1128.000000, -929.000000)">
            <g id="Nav-2" transform="translate(1116.000000, 788.000000)">
                <g id="Social-media" transform="translate(12.000000, 141.000000)">
                    <g id="Twitter" transform="translate(0.000000, 0.000100)">
                        <mask id="mask-2" fill="white">
                            <use xlink:href="#path-1"></use>
                        </mask>
                        <g id="Clip-2"></g>
                        <path d="M17.227,1.6572 C16.593,1.9382 15.912,2.1282 15.197,2.2142 C15.927,1.7762 16.487,1.0832 16.751,0.2582 C16.068,0.6632 15.312,0.9572 14.507,1.1162 C13.862,0.4292 12.944,0.0002 11.927,0.0002 C9.975,0.0002 8.393,1.5822 8.393,3.5342 C8.393,3.8112 8.424,4.0812 8.484,4.3392 C5.547,4.1922 2.943,2.7852 1.199,0.6472 C0.895,1.1692 0.721,1.7762 0.721,2.4232 C0.721,3.6502 1.345,4.7312 2.293,5.3652 C1.714,5.3472 1.169,5.1882 0.692,4.9232 L0.692,4.9682 C0.692,6.6802 1.91,8.1092 3.527,8.4332 C3.23,8.5142 2.918,8.5572 2.596,8.5572 C2.368,8.5572 2.147,8.5352 1.931,8.4942 C2.381,9.8982 3.686,10.9202 5.233,10.9482 C4.023,11.8962 2.499,12.4612 0.843,12.4612 C0.558,12.4612 0.277,12.4442 0,12.4122 C1.564,13.4152 3.422,14.0002 5.418,14.0002 C11.919,14.0002 15.474,8.6142 15.474,3.9442 C15.474,3.7912 15.47,3.6382 15.463,3.4872 C16.154,2.9882 16.753,2.3662 17.227,1.6572" id="Fill-1" fill="#959CA3" mask="url(#mask-2)"></path>
                    </g>
                </g>
            </g>
        </g>
    </g>
</svg>